0
SECTION
2
HEADER
9
$INSUNITS
70
4
0
ENDSEC
0
SECTION
2
TABLES
0
TABLE
2
LTYPE
0
LTYPE
72
65
70
0
2
CONTINUOUS
3
______
73
0
40
0
0
LTYPE
72
65
70
0
2
DASHED
3
_ _ _ 
73
2
40
7.5
49
5
49
-2.5
0
LTYPE
72
65
70
0
2
DOTTED
3
. . . 
73
2
40
1.5
49
0.5
49
-1
0
ENDTAB
0
TABLE
2
LAYER
0
ENDTAB
0
ENDSEC
0
SECTION
2
ENTITIES
0
LINE
8
0
6
CONTINUOUS
10
102.37026
20
-100.2738587
11
201.37026
21
-100.2738587
0
LINE
8
0
6
CONTINUOUS
10
201.37026
20
-100.2738587
11
201.37026
21
-37.8738587
0
LINE
8
0
6
CONTINUOUS
10
201.37026
20
-37.8738587
11
102.37026
21
-37.8738587
0
LINE
8
0
6
CONTINUOUS
10
102.37026
20
-37.8738587
11
102.37026
21
-100.2738587
0
LINE
8
0
6
CONTINUOUS
10
41.6017956
20
-110.196576
11
54.4042964
21
-112.4540023
0
ARC
8
0
6
CONTINUOUS
10
55.2725372
20
-107.5299635
40
5
50
260
51
350
0
LINE
8
0
6
CONTINUOUS
10
60.196576
20
-108.3982044
11
61.665695
21
-100.0664165
0
LINE
8
0
6
CONTINUOUS
10
37.5459977
20
-104.4042964
11
43.1027394
21
-72.8904483
0
ARC
8
0
6
CONTINUOUS
10
42.4700365
20
-105.2725372
40
5
50
170
51
260
0
LINE
8
0
6
CONTINUOUS
10
49.0801712
20
-68.8672977
11
48.895019
21
-68.8346504
0
ARC
8
0
6
CONTINUOUS
10
48.0267782
20
-73.7586892
40
5
50
80
51
170
0
ARC
8
0
6
CONTINUOUS
10
68.2337071
20
-55.859791
40
5
50
422.5019746
51
75
0
LINE
8
0
6
CONTINUOUS
10
69.5278023
20
-51.0301619
11
56.9707665
21
-47.6655143
0
ARC
8
0
6
CONTINUOUS
10
55.6766713
20
-52.4951434
40
5
50
75
51
165
0
LINE
8
0
6
CONTINUOUS
10
50.8470422
20
-51.2010482
11
47.4823946
21
-63.758084
0
ARC
8
0
6
CONTINUOUS
10
52.3120237
20
-65.0521792
40
5
50
165
51
229.731491
0
LINE
8
0
6
CONTINUOUS
10
62.5915214
20
-100.4158728
11
75.1485572
21
-103.7805204
0
ARC
8
0
6
CONTINUOUS
10
76.4426524
20
-98.9508913
40
5
50
255
51
345
0
LINE
8
0
6
CONTINUOUS
10
81.2722815
20
-100.2449865
11
82.6289912
21
-95.181677
0
ARC
8
0
6
CONTINUOUS
10
63.8856166
20
-95.5862437
40
5
50
243.641626
51
255
0
LINE
8
0
6
CONTINUOUS
10
87.5557785
20
-43.9531783
11
95.9744193
21
-46.2089463
0
LINE
8
0
6
CONTINUOUS
10
87.5548126
20
-43.9529195
11
78.3794832
21
-41.4943974
0
ARC
8
0
6
CONTINUOUS
10
77.085388
20
-46.3240265
40
5
50
75
51
165
0
LINE
8
0
6
CONTINUOUS
10
72.2557589
20
-45.0299313
11
70.5422973
21
-51.4246573
0
LINE
8
0
6
CONTINUOUS
10
83.3506998
20
-95.5113527
11
95.5667039
21
-99.9576146
0
ARC
8
0
6
CONTINUOUS
10
97.2768046
20
-95.2591515
40
5
50
250
51
260.4318651
0
ARC
8
0
6
CONTINUOUS
10
85.0608005
20
-90.8128896
40
5
50
240.8982635
51
250
0
LINE
8
0
6
CONTINUOUS
10
117.6330171
20
-53.9499391
11
119.418295
21
-49.0449285
0
ARC
8
0
6
CONTINUOUS
10
114.7198319
20
-47.3348278
40
5
50
340
51
70
0
LINE
8
0
6
CONTINUOUS
10
116.4299326
20
-42.6363647
11
104.2139285
21
-38.1901028
0
ARC
8
0
6
CONTINUOUS
10
102.5038278
20
-42.8885659
40
5
50
70
51
160
0
LINE
8
0
6
CONTINUOUS
10
97.8053647
20
-41.1784652
11
95.9744193
21
-46.2089463
0
LINE
8
0
6
CONTINUOUS
10
97.5908256
20
-110.4906534
11
106.3667573
21
-114.1257633
0
LINE
8
0
6
CONTINUOUS
10
106.3676812
20
-114.126146
11
109.6012595
21
-115.465538
0
LINE
8
0
6
CONTINUOUS
10
106.3667573
20
-114.1257633
11
106.3676812
21
-114.126146
0
ARC
8
0
6
CONTINUOUS
10
111.5146767
20
-110.8461404
40
5
50
247.5
51
247.5114598
0
LINE
8
0
6
CONTINUOUS
10
96.4457028
20
-100.1895947
11
94.8848451
21
-103.9578386
0
ARC
8
0
6
CONTINUOUS
10
99.5042427
20
-105.8712558
40
5
50
157.5
51
247.5
0
LINE
8
0
6
CONTINUOUS
10
132.6783641
20
-72.8181086
11
135.6509293
21
-65.6417014
0
ARC
8
0
6
CONTINUOUS
10
131.0315317
20
-63.7282842
40
5
50
337.5
51
67.5
0
LINE
8
0
6
CONTINUOUS
10
132.9449488
20
-59.1088866
11
120.9345149
21
-54.134002
0
ARC
8
0
6
CONTINUOUS
10
119.0210977
20
-58.7533996
40
5
50
67.5
51
106.1179785
0
LINE
8
0
6
CONTINUOUS
10
128.4201376
20
-116.405422
11
129.5786323
21
-116.8852862
0
ARC
8
0
6
CONTINUOUS
10
131.4920495
20
-112.2658886
40
5
50
247.5
51
337.5
0
LINE
8
0
6
CONTINUOUS
10
136.1114471
20
-114.1793057
11
141.0863317
21
-102.1688718
0
ARC
8
0
6
CONTINUOUS
10
136.4669341
20
-100.2554546
40
5
50
337.5
51
374.3698967
0
ARC
8
0
6
CONTINUOUS
10
138.7630347
20
-94.7121775
40
5
50
300.6301032
51
337.5
0
LINE
8
0
6
CONTINUOUS
10
143.3824323
20
-96.6255946
11
148.3573169
21
-84.6151607
0
ARC
8
0
6
CONTINUOUS
10
143.7379193
20
-82.7017435
40
5
50
337.5
51
67.5
0
LINE
8
0
6
CONTINUOUS
10
145.6513364
20
-78.0823459
11
133.6409025
21
-73.1074613
0
ARC
8
0
6
CONTINUOUS
10
131.7274853
20
-77.7268589
40
5
50
67.5
51
79.0369585
0
LINE
8
0
6
CONTINUOUS
10
249.3362236
20
-112.4540023
11
262.1387244
21
-110.196576
0
ARC
8
0
6
CONTINUOUS
10
261.2704835
20
-105.2725372
40
5
50
280
51
10
0
LINE
8
0
6
CONTINUOUS
10
260.6377806
20
-72.8904483
11
266.1945223
21
-104.4042964
0
LINE
8
0
6
CONTINUOUS
10
242.074825
20
-100.0664165
11
243.543944
21
-108.3982044
0
ARC
8
0
6
CONTINUOUS
10
248.4679828
20
-107.5299635
40
5
50
190
51
280
0
ARC
8
0
6
CONTINUOUS
10
255.7137418
20
-73.7586892
40
5
50
10
51
100
0
LINE
8
0
6
CONTINUOUS
10
254.845501
20
-68.8346504
11
254.6603488
21
-68.8672977
0
ARC
8
0
6
CONTINUOUS
10
251.4284963
20
-65.0521792
40
5
50
310.268509
51
15
0
LINE
8
0
6
CONTINUOUS
10
256.2581254
20
-63.758084
11
252.8934778
21
-51.2010482
0
ARC
8
0
6
CONTINUOUS
10
248.0638487
20
-52.4951434
40
5
50
15
51
105
0
LINE
8
0
6
CONTINUOUS
10
246.7697535
20
-47.6655143
11
234.2127177
21
-51.0301619
0
ARC
8
0
6
CONTINUOUS
10
235.5068129
20
-55.859791
40
5
50
105
51
117.4980254
0
LINE
8
0
6
CONTINUOUS
10
228.5919628
20
-103.7805204
11
241.1489986
21
-100.4158728
0
ARC
8
0
6
CONTINUOUS
10
239.8549034
20
-95.5862437
40
5
50
285
51
296.358374
0
LINE
8
0
6
CONTINUOUS
10
221.1115288
20
-95.181677
11
222.4682385
21
-100.2449865
0
ARC
8
0
6
CONTINUOUS
10
227.2978676
20
-98.9508913
40
5
50
195
51
285
0
LINE
8
0
6
CONTINUOUS
10
233.1982227
20
-51.4246573
11
231.4847611
21
-45.0299313
0
ARC
8
0
6
CONTINUOUS
10
226.655132
20
-46.3240265
40
5
50
15
51
105
0
LINE
8
0
6
CONTINUOUS
10
225.3610368
20
-41.4943974
11
216.1857074
21
-43.9529195
0
LINE
8
0
6
CONTINUOUS
10
207.7661007
20
-46.2089463
11
216.1847415
21
-43.9531783
0
LINE
8
0
6
CONTINUOUS
10
208.1738161
20
-99.9576146
11
220.3898202
21
-95.5113527
0
ARC
8
0
6
CONTINUOUS
10
218.6797195
20
-90.8128896
40
5
50
290
51
299.1017365
0
ARC
8
0
6
CONTINUOUS
10
206.4637154
20
-95.2591515
40
5
50
279.5681349
51
290
0
LINE
8
0
6
CONTINUOUS
10
207.7661007
20
-46.2089463
11
205.9351553
21
-41.1784652
0
ARC
8
0
6
CONTINUOUS
10
201.2366922
20
-42.8885659
40
5
50
20
51
110
0
LINE
8
0
6
CONTINUOUS
10
199.5265915
20
-38.1901028
11
187.3105874
21
-42.6363647
0
ARC
8
0
6
CONTINUOUS
10
189.0206881
20
-47.3348278
40
5
50
110
51
200
0
LINE
8
0
6
CONTINUOUS
10
184.322225
20
-49.0449285
11
186.1075029
21
-53.9499391
0
LINE
8
0
6
CONTINUOUS
10
194.1392605
20
-115.465538
11
197.3728388
21
-114.126146
0
LINE
8
0
6
CONTINUOUS
10
197.3737627
20
-114.1257633
11
206.1496944
21
-110.4906534
0
ARC
8
0
6
CONTINUOUS
10
204.2362773
20
-105.8712558
40
5
50
292.5
51
22.5
0
LINE
8
0
6
CONTINUOUS
10
208.8556749
20
-103.9578386
11
207.2948172
21
-100.1895947
0
ARC
8
0
6
CONTINUOUS
10
192.2258433
20
-110.8461404
40
5
50
292.4885402
51
292.5
0
ARC
8
0
6
CONTINUOUS
10
184.7194223
20
-58.7533996
40
5
50
73.8820215
51
112.5
0
LINE
8
0
6
CONTINUOUS
10
182.8060051
20
-54.134002
11
170.7955712
21
-59.1088866
0
ARC
8
0
6
CONTINUOUS
10
172.7089883
20
-63.7282842
40
5
50
112.5
51
202.5
0
LINE
8
0
6
CONTINUOUS
10
168.0895907
20
-65.6417014
11
171.0621559
21
-72.8181086
0
LINE
8
0
6
CONTINUOUS
10
174.1618877
20
-116.8852862
11
175.3203824
21
-116.405422
0
ARC
8
0
6
CONTINUOUS
10
167.2735859
20
-100.2554546
40
5
50
165.6301033
51
202.5
0
LINE
8
0
6
CONTINUOUS
10
162.6541883
20
-102.1688718
11
167.6290729
21
-114.1793057
0
ARC
8
0
6
CONTINUOUS
10
172.2484705
20
-112.2658886
40
5
50
202.5
51
292.5
0
ARC
8
0
6
CONTINUOUS
10
172.0130347
20
-77.7268589
40
5
50
100.9630415
51
112.5
0
LINE
8
0
6
CONTINUOUS
10
170.0996175
20
-73.1074613
11
158.0891836
21
-78.0823459
0
ARC
8
0
6
CONTINUOUS
10
160.0026007
20
-82.7017435
40
5
50
112.5
51
202.5
0
LINE
8
0
6
CONTINUOUS
10
155.3832031
20
-84.6151607
11
160.3580877
21
-96.6255946
0
ARC
8
0
6
CONTINUOUS
10
164.9774853
20
-94.7121775
40
5
50
202.5
51
239.3698968
0
LINE
8
0
6
CONTINUOUS
10
107.3976862
20
-129.2651931
11
125.2481363
21
-142.9623253
0
LINE
8
0
6
CONTINUOUS
10
128.4201376
20
-116.405422
11
136.4717905
21
-122.5836726
0
LINE
8
0
6
CONTINUOUS
10
111.1818132
20
-116.1202247
11
106.4747266
21
-122.2546193
0
ARC
8
0
6
CONTINUOUS
10
110.4414933
20
-125.2984264
40
5
50
142.5
51
232.5
0
LINE
8
0
6
CONTINUOUS
10
125.2481363
20
-142.9623253
11
125.2492583
21
-142.9631861
0
LINE
8
0
6
CONTINUOUS
10
125.2492583
20
-142.9631861
11
132.7849931
21
-148.7455588
0
ARC
8
0
6
CONTINUOUS
10
135.8288002
20
-144.7787921
40
5
50
232.5
51
322.5
0
LINE
8
0
6
CONTINUOUS
10
139.7955669
20
-147.8225992
11
147.7094655
21
-137.5090058
0
ARC
8
0
6
CONTINUOUS
10
143.7426988
20
-134.4651987
40
5
50
322.5
51
52.5
0
LINE
8
0
6
CONTINUOUS
10
136.4729125
20
-122.5845334
11
146.7865059
21
-130.498432
0
ARC
8
0
6
CONTINUOUS
10
133.4291054
20
-126.5513001
40
5
50
52.5
51
52.5162055
0
LINE
8
0
6
CONTINUOUS
10
178.4923837
20
-142.9623253
11
196.3428338
21
-129.2651931
0
ARC
8
0
6
CONTINUOUS
10
193.2990267
20
-125.2984264
40
5
50
307.5
51
37.5
0
LINE
8
0
6
CONTINUOUS
10
197.2657934
20
-122.2546193
11
192.5587068
21
-116.1202247
0
LINE
8
0
6
CONTINUOUS
10
167.2687295
20
-122.5836726
11
175.3203824
21
-116.405422
0
LINE
8
0
6
CONTINUOUS
10
170.9555269
20
-148.7455588
11
178.4912617
21
-142.9631861
0
ARC
8
0
6
CONTINUOUS
10
170.3114146
20
-126.5513001
40
5
50
127.4837945
51
127.5
0
LINE
8
0
6
CONTINUOUS
10
156.9540141
20
-130.498432
11
167.2676075
21
-122.5845334
0
ARC
8
0
6
CONTINUOUS
10
159.9978212
20
-134.4651987
40
5
50
127.5
51
217.5
0
LINE
8
0
6
CONTINUOUS
10
156.0310545
20
-137.5090058
11
163.9449531
21
-147.8225992
0
ARC
8
0
6
CONTINUOUS
10
167.9117198
20
-144.7787921
40
5
50
217.5
51
307.5
0
ARC
8
0
6
CONTINUOUS
10
128.2919434
20
-138.9955586
40
5
50
232.5
51
232.5162055
0
ARC
8
0
6
CONTINUOUS
10
175.4485766
20
-138.9955586
40
5
50
307.4837945
51
307.5
0
LINE
8
0
6
CONTINUOUS
10
109.6012595
20
-115.465538
11
109.6021835
21
-115.4659207
0
LINE
8
0
6
CONTINUOUS
10
109.6021835
20
-115.4659207
11
111.1818132
21
-116.1202247
0
ARC
8
0
6
CONTINUOUS
10
108.2810983
20
-109.5067484
40
5
50
247.4885409
51
247.5
0
LINE
8
0
6
CONTINUOUS
10
192.5587068
20
-116.1202247
11
194.1383365
21
-115.4659207
0
ARC
8
0
6
CONTINUOUS
10
195.4594217
20
-109.5067484
40
5
50
292.5
51
292.5114591
0
CIRCLE
8
0
6
CONTINUOUS
10
151.87026
20
-125.6650461
40
30
0
ENDSEC
0
EOF