0
SECTION
2
HEADER
9
$INSUNITS
70
4
0
ENDSEC
0
SECTION
2
TABLES
0
TABLE
2
LTYPE
0
LTYPE
72
65
70
0
2
CONTINUOUS
3
______
73
0
40
0
0
LTYPE
72
65
70
0
2
DASHED
3
_ _ _ 
73
2
40
7.5
49
5
49
-2.5
0
LTYPE
72
65
70
0
2
DOTTED
3
. . . 
73
2
40
1.5
49
0.5
49
-1
0
ENDTAB
0
TABLE
2
LAYER
0
ENDTAB
0
ENDSEC
0
SECTION
2
ENTITIES
0
LINE
8
0
6
CONTINUOUS
10
201.37026
20
-37.8903503
11
201.37026
21
-37.8738587
0
LINE
8
0
6
CONTINUOUS
10
102.37026
20
-37.8738587
11
201.37026
21
-37.8738587
0
LINE
8
0
6
CONTINUOUS
10
102.37026
20
-37.8903503
11
102.37026
21
-37.8738587
0
ARC
8
0
6
CONTINUOUS
10
151.87026
20
-125.6650461
40
30
50
228.5677801
51
588.5677801
0
ARC
8
0
6
CONTINUOUS
10
102.5038278
20
-42.8885659
40
5
50
91.5307564
51
451.5307564
0
ARC
8
0
6
CONTINUOUS
10
201.2366922
20
-42.8885659
40
5
50
20.9626433
51
380.9626433
0
LINE
8
0
6
CONTINUOUS
10
117.6730668
20
-137.14977
11
125.2481363
21
-142.9623253
0
LINE
8
0
6
CONTINUOUS
10
125.2481363
20
-142.9623253
11
125.2492583
21
-142.9631861
0
LINE
8
0
6
CONTINUOUS
10
125.2492583
20
-142.9631861
11
132.0182526
21
-148.1572181
0
LINE
8
0
6
CONTINUOUS
10
178.4923837
20
-142.9623253
11
186.0674532
21
-137.14977
0
LINE
8
0
6
CONTINUOUS
10
171.7222674
20
-148.1572181
11
178.4912617
21
-142.9631861
0
ARC
8
0
6
CONTINUOUS
10
128.2919434
20
-138.9955586
40
5
50
232.5
51
592.5
0
ARC
8
0
6
CONTINUOUS
10
175.4485766
20
-138.9955586
40
5
50
307.4837945
51
667.4837945
0
LINE
8
0
6
CONTINUOUS
10
41.87026
20
-138.49977
11
119.432421
21
-138.49977
0
LINE
8
0
6
CONTINUOUS
10
184.308099
20
-138.49977
11
261.87026
21
-138.49977
0
ARC
8
0
6
CONTINUOUS
10
261.87026
20
-133.49977
40
5
50
270
51
360
0
LINE
8
0
6
CONTINUOUS
10
266.87026
20
-133.49977
11
266.87026
21
-46.09977
0
ARC
8
0
6
CONTINUOUS
10
261.87026
20
-46.09977
40
5
50
0
51
90
0
LINE
8
0
6
CONTINUOUS
10
261.87026
20
-41.09977
11
205.9057616
21
-41.09977
0
LINE
8
0
6
CONTINUOUS
10
97.8347584
20
-41.09977
11
41.87026
21
-41.09977
0
ARC
8
0
6
CONTINUOUS
10
41.87026
20
-46.09977
40
5
50
90
51
180
0
LINE
8
0
6
CONTINUOUS
10
36.87026
20
-46.09977
11
36.87026
21
-133.49977
0
ARC
8
0
6
CONTINUOUS
10
41.87026
20
-133.49977
40
5
50
180
51
270
0
LINE
8
0
6
CONTINUOUS
10
41.87026
20
-137.49977
11
118.1291957
21
-137.49977
0
LINE
8
0
6
CONTINUOUS
10
185.6113243
20
-137.49977
11
261.87026
21
-137.49977
0
ARC
8
0
6
CONTINUOUS
10
261.87026
20
-133.49977
40
4
50
270
51
360
0
LINE
8
0
6
CONTINUOUS
10
265.87026
20
-133.49977
11
265.87026
21
-107.2326536
0
LINE
8
0
6
CONTINUOUS
10
265.87026
20
-102.5653135
11
265.87026
21
-46.09977
0
ARC
8
0
6
CONTINUOUS
10
261.87026
20
-46.09977
40
4
50
0
51
90
0
LINE
8
0
6
CONTINUOUS
10
261.87026
20
-42.09977
11
229.330138
21
-42.09977
0
LINE
8
0
6
CONTINUOUS
10
74.410382
20
-42.09977
11
41.87026
21
-42.09977
0
LINE
8
0
6
CONTINUOUS
10
97.4700372
20
-42.09977
11
80.6387645
21
-42.09977
0
LINE
8
0
6
CONTINUOUS
10
223.1017555
20
-42.09977
11
206.2704828
21
-42.09977
0
ARC
8
0
6
CONTINUOUS
10
41.87026
20
-46.09977
40
4
50
90
51
180
0
LINE
8
0
6
CONTINUOUS
10
37.87026
20
-46.09977
11
37.87026
21
-102.5653135
0
LINE
8
0
6
CONTINUOUS
10
37.87026
20
-107.2326536
11
37.87026
21
-133.49977
0
ARC
8
0
6
CONTINUOUS
10
41.87026
20
-133.49977
40
4
50
180
51
270
0
LINE
8
0
6
CONTINUOUS
10
37.5459977
20
-104.4042964
11
38.22026
21
-100.5803649
0
ARC
8
0
6
CONTINUOUS
10
42.4700365
20
-105.2725372
40
5
50
170
51
211.7931917
0
LINE
8
0
6
CONTINUOUS
10
78.3794832
20
-41.4943974
11
81.9449823
21
-42.44977
0
ARC
8
0
6
CONTINUOUS
10
77.085388
20
-46.3240265
40
5
50
75
51
129.2084469
0
LINE
8
0
6
CONTINUOUS
10
97.3426476
20
-42.44977
11
97.8053647
21
-41.1784652
0
ARC
8
0
6
CONTINUOUS
10
261.2704835
20
-105.2725372
40
5
50
336.9195476
51
696.9195476
0
LINE
8
0
6
CONTINUOUS
10
265.52026
20
-100.5803649
11
266.1945223
21
-104.4042964
0
ARC
8
0
6
CONTINUOUS
10
226.655132
20
-46.3240265
40
5
50
57.6560073
51
417.6560073
0
LINE
8
0
6
CONTINUOUS
10
221.7955377
20
-42.44977
11
225.3610368
21
-41.4943974
0
LINE
8
0
6
CONTINUOUS
10
205.9351553
20
-41.1784652
11
206.3978724
21
-42.44977
0
LINE
8
0
6
CONTINUOUS
10
41.87026
20
-137.14977
11
117.6730668
21
-137.14977
0
LINE
8
0
6
CONTINUOUS
10
186.0674532
20
-137.14977
11
261.87026
21
-137.14977
0
ARC
8
0
6
CONTINUOUS
10
261.87026
20
-133.49977
40
3.65
50
270
51
360
0
LINE
8
0
6
CONTINUOUS
10
265.52026
20
-133.49977
11
265.52026
21
-107.9068112
0
LINE
8
0
6
CONTINUOUS
10
265.52026
20
-100.5803649
11
265.52026
21
-46.09977
0
ARC
8
0
6
CONTINUOUS
10
261.87026
20
-46.09977
40
3.65
50
0
51
90
0
LINE
8
0
6
CONTINUOUS
10
261.87026
20
-42.44977
11
229.8158497
21
-42.44977
0
LINE
8
0
6
CONTINUOUS
10
73.9246703
20
-42.44977
11
41.87026
21
-42.44977
0
LINE
8
0
6
CONTINUOUS
10
97.3426476
20
-42.44977
11
81.9449823
21
-42.44977
0
LINE
8
0
6
CONTINUOUS
10
221.7955377
20
-42.44977
11
206.3978724
21
-42.44977
0
ARC
8
0
6
CONTINUOUS
10
41.87026
20
-46.09977
40
3.65
50
90
51
180
0
LINE
8
0
6
CONTINUOUS
10
38.22026
20
-46.09977
11
38.22026
21
-100.5803649
0
LINE
8
0
6
CONTINUOUS
10
38.22026
20
-107.9068112
11
38.22026
21
-133.49977
0
ARC
8
0
6
CONTINUOUS
10
41.87026
20
-133.49977
40
3.65
50
180
51
270
0
CIRCLE
8
0
6
CONTINUOUS
10
122.4532924
20
-42.1682439
40
3.1
0
CIRCLE
8
0
6
CONTINUOUS
10
181.2872276
20
-42.1682439
40
3.1
0
CIRCLE
8
0
6
CONTINUOUS
10
151.87026
20
-150.8650461
40
3.1
0
CIRCLE
8
0
6
CONTINUOUS
10
151.87026
20
-91.0150461
40
3.1
0
CIRCLE
8
0
6
CONTINUOUS
10
42.2849775
20
-46.8362975
40
3.1
0
CIRCLE
8
0
6
CONTINUOUS
10
261.4555425
20
-46.8362975
40
3.1
0
CIRCLE
8
0
6
CONTINUOUS
10
42.1900976
20
-133.3504936
40
3.1
0
CIRCLE
8
0
6
CONTINUOUS
10
261.5504224
20
-133.3504936
40
3.1
0
CIRCLE
8
0
6
CONTINUOUS
10
114.5082262
20
-40.6066986
40
2.2
0
CIRCLE
8
0
6
CONTINUOUS
10
189.2322938
20
-40.6066986
40
2.2
0
CIRCLE
8
0
6
CONTINUOUS
10
151.87026
20
-77.7150461
40
2.2
0
CIRCLE
8
0
6
CONTINUOUS
10
151.87026
20
-144.2150461
40
2.2
0
ENDSEC
0
EOF