0
SECTION
2
HEADER
9
$INSUNITS
70
4
0
ENDSEC
0
SECTION
2
TABLES
0
TABLE
2
LTYPE
0
LTYPE
72
65
70
0
2
CONTINUOUS
3
______
73
0
40
0
0
LTYPE
72
65
70
0
2
DASHED
3
_ _ _ 
73
2
40
7.5
49
5
49
-2.5
0
LTYPE
72
65
70
0
2
DOTTED
3
. . . 
73
2
40
1.5
49
0.5
49
-1
0
ENDTAB
0
TABLE
2
LAYER
0
ENDTAB
0
ENDSEC
0
SECTION
2
ENTITIES
0
LINE
8
0
6
CONTINUOUS
10
201.37026
20
-37.8903503
11
201.37026
21
-37.8738587
0
LINE
8
0
6
CONTINUOUS
10
201.37026
20
-37.8738587
11
102.37026
21
-37.8738587
0
LINE
8
0
6
CONTINUOUS
10
102.37026
20
-37.8738587
11
102.37026
21
-37.8903503
0
ARC
8
0
6
CONTINUOUS
10
151.87026
20
-125.6650461
40
30
50
228.5677801
51
311.4322199
0
LINE
8
0
6
CONTINUOUS
10
41.6017956
20
-110.196576
11
54.4042964
21
-112.4540023
0
ARC
8
0
6
CONTINUOUS
10
55.2725372
20
-107.5299635
40
5
50
260
51
350
0
LINE
8
0
6
CONTINUOUS
10
60.196576
20
-108.3982044
11
61.665695
21
-100.0664165
0
LINE
8
0
6
CONTINUOUS
10
37.5459977
20
-104.4042964
11
43.1027394
21
-72.8904483
0
ARC
8
0
6
CONTINUOUS
10
42.4700365
20
-105.2725372
40
5
50
170
51
260
0
LINE
8
0
6
CONTINUOUS
10
49.0801712
20
-68.8672977
11
48.895019
21
-68.8346504
0
ARC
8
0
6
CONTINUOUS
10
48.0267782
20
-73.7586892
40
5
50
80
51
170
0
ARC
8
0
6
CONTINUOUS
10
68.2337071
20
-55.859791
40
5
50
422.5019746
51
75
0
LINE
8
0
6
CONTINUOUS
10
69.5278023
20
-51.0301619
11
56.9707665
21
-47.6655143
0
ARC
8
0
6
CONTINUOUS
10
55.6766713
20
-52.4951434
40
5
50
75
51
165
0
LINE
8
0
6
CONTINUOUS
10
50.8470422
20
-51.2010482
11
47.4823946
21
-63.758084
0
ARC
8
0
6
CONTINUOUS
10
52.3120237
20
-65.0521792
40
5
50
165
51
229.731491
0
LINE
8
0
6
CONTINUOUS
10
62.5915214
20
-100.4158728
11
75.1485572
21
-103.7805204
0
ARC
8
0
6
CONTINUOUS
10
76.4426524
20
-98.9508913
40
5
50
255
51
345
0
LINE
8
0
6
CONTINUOUS
10
81.2722815
20
-100.2449865
11
82.6289912
21
-95.181677
0
ARC
8
0
6
CONTINUOUS
10
63.8856166
20
-95.5862437
40
5
50
243.641626
51
255
0
LINE
8
0
6
CONTINUOUS
10
87.5557785
20
-43.9531783
11
95.9744193
21
-46.2089463
0
LINE
8
0
6
CONTINUOUS
10
87.5548126
20
-43.9529195
11
78.3794832
21
-41.4943974
0
ARC
8
0
6
CONTINUOUS
10
77.085388
20
-46.3240265
40
5
50
75
51
165
0
LINE
8
0
6
CONTINUOUS
10
72.2557589
20
-45.0299313
11
70.5422973
21
-51.4246573
0
LINE
8
0
6
CONTINUOUS
10
83.3506998
20
-95.5113527
11
95.5667039
21
-99.9576146
0
ARC
8
0
6
CONTINUOUS
10
97.2768046
20
-95.2591515
40
5
50
250
51
260.4318651
0
ARC
8
0
6
CONTINUOUS
10
85.0608005
20
-90.8128896
40
5
50
240.8982635
51
250
0
ARC
8
0
6
CONTINUOUS
10
102.5038278
20
-42.8885659
40
5
50
91.5307564
51
160
0
LINE
8
0
6
CONTINUOUS
10
97.8053647
20
-41.1784652
11
95.9744193
21
-46.2089463
0
LINE
8
0
6
CONTINUOUS
10
97.5908256
20
-110.4906534
11
106.3667573
21
-114.1257633
0
LINE
8
0
6
CONTINUOUS
10
106.3676812
20
-114.126146
11
109.6012595
21
-115.465538
0
LINE
8
0
6
CONTINUOUS
10
106.3667573
20
-114.1257633
11
106.3676812
21
-114.126146
0
ARC
8
0
6
CONTINUOUS
10
111.5146767
20
-110.8461404
40
5
50
247.5
51
247.5114598
0
LINE
8
0
6
CONTINUOUS
10
96.4457028
20
-100.1895947
11
94.8848451
21
-103.9578386
0
ARC
8
0
6
CONTINUOUS
10
99.5042427
20
-105.8712558
40
5
50
157.5
51
247.5
0
LINE
8
0
6
CONTINUOUS
10
249.3362236
20
-112.4540023
11
262.1387244
21
-110.196576
0
ARC
8
0
6
CONTINUOUS
10
261.2704835
20
-105.2725372
40
5
50
280
51
10
0
LINE
8
0
6
CONTINUOUS
10
260.6377806
20
-72.8904483
11
266.1945223
21
-104.4042964
0
LINE
8
0
6
CONTINUOUS
10
242.074825
20
-100.0664165
11
243.543944
21
-108.3982044
0
ARC
8
0
6
CONTINUOUS
10
248.4679828
20
-107.5299635
40
5
50
190
51
280
0
ARC
8
0
6
CONTINUOUS
10
255.7137418
20
-73.7586892
40
5
50
10
51
100
0
LINE
8
0
6
CONTINUOUS
10
254.845501
20
-68.8346504
11
254.6603488
21
-68.8672977
0
ARC
8
0
6
CONTINUOUS
10
251.4284963
20
-65.0521792
40
5
50
310.268509
51
15
0
LINE
8
0
6
CONTINUOUS
10
256.2581254
20
-63.758084
11
252.8934778
21
-51.2010482
0
ARC
8
0
6
CONTINUOUS
10
248.0638487
20
-52.4951434
40
5
50
15
51
105
0
LINE
8
0
6
CONTINUOUS
10
246.7697535
20
-47.6655143
11
234.2127177
21
-51.0301619
0
ARC
8
0
6
CONTINUOUS
10
235.5068129
20
-55.859791
40
5
50
105
51
117.4980254
0
LINE
8
0
6
CONTINUOUS
10
228.5919628
20
-103.7805204
11
241.1489986
21
-100.4158728
0
ARC
8
0
6
CONTINUOUS
10
239.8549034
20
-95.5862437
40
5
50
285
51
296.358374
0
LINE
8
0
6
CONTINUOUS
10
221.1115288
20
-95.181677
11
222.4682385
21
-100.2449865
0
ARC
8
0
6
CONTINUOUS
10
227.2978676
20
-98.9508913
40
5
50
195
51
285
0
LINE
8
0
6
CONTINUOUS
10
233.1982227
20
-51.4246573
11
231.4847611
21
-45.0299313
0
ARC
8
0
6
CONTINUOUS
10
226.655132
20
-46.3240265
40
5
50
15
51
105
0
LINE
8
0
6
CONTINUOUS
10
225.3610368
20
-41.4943974
11
216.1857074
21
-43.9529195
0
LINE
8
0
6
CONTINUOUS
10
207.7661007
20
-46.2089463
11
216.1847415
21
-43.9531783
0
LINE
8
0
6
CONTINUOUS
10
208.1738161
20
-99.9576146
11
220.3898202
21
-95.5113527
0
ARC
8
0
6
CONTINUOUS
10
218.6797195
20
-90.8128896
40
5
50
290
51
299.1017365
0
ARC
8
0
6
CONTINUOUS
10
206.4637154
20
-95.2591515
40
5
50
279.5681349
51
290
0
LINE
8
0
6
CONTINUOUS
10
207.7661007
20
-46.2089463
11
205.9351553
21
-41.1784652
0
ARC
8
0
6
CONTINUOUS
10
201.2366922
20
-42.8885659
40
5
50
20
51
88.4692436
0
LINE
8
0
6
CONTINUOUS
10
194.1392605
20
-115.465538
11
197.3728388
21
-114.126146
0
LINE
8
0
6
CONTINUOUS
10
197.3737627
20
-114.1257633
11
206.1496944
21
-110.4906534
0
ARC
8
0
6
CONTINUOUS
10
204.2362773
20
-105.8712558
40
5
50
292.5
51
22.5
0
LINE
8
0
6
CONTINUOUS
10
208.8556749
20
-103.9578386
11
207.2948172
21
-100.1895947
0
ARC
8
0
6
CONTINUOUS
10
192.2258433
20
-110.8461404
40
5
50
292.4885402
51
292.5
0
LINE
8
0
6
CONTINUOUS
10
107.3976862
20
-129.2651931
11
125.2481363
21
-142.9623253
0
LINE
8
0
6
CONTINUOUS
10
111.1818132
20
-116.1202247
11
106.4747266
21
-122.2546193
0
ARC
8
0
6
CONTINUOUS
10
110.4414933
20
-125.2984264
40
5
50
142.5
51
232.5
0
LINE
8
0
6
CONTINUOUS
10
125.2481363
20
-142.9623253
11
125.2492583
21
-142.9631861
0
LINE
8
0
6
CONTINUOUS
10
125.2492583
20
-142.9631861
11
132.0182526
21
-148.1572181
0
LINE
8
0
6
CONTINUOUS
10
178.4923837
20
-142.9623253
11
196.3428338
21
-129.2651931
0
ARC
8
0
6
CONTINUOUS
10
193.2990267
20
-125.2984264
40
5
50
307.5
51
37.5
0
LINE
8
0
6
CONTINUOUS
10
197.2657934
20
-122.2546193
11
192.5587068
21
-116.1202247
0
LINE
8
0
6
CONTINUOUS
10
171.7222674
20
-148.1572181
11
178.4912617
21
-142.9631861
0
ARC
8
0
6
CONTINUOUS
10
128.2919434
20
-138.9955586
40
5
50
232.5
51
232.5162055
0
ARC
8
0
6
CONTINUOUS
10
175.4485766
20
-138.9955586
40
5
50
307.4837945
51
307.5
0
LINE
8
0
6
CONTINUOUS
10
109.6012595
20
-115.465538
11
109.6021835
21
-115.4659207
0
LINE
8
0
6
CONTINUOUS
10
109.6021835
20
-115.4659207
11
111.1818132
21
-116.1202247
0
ARC
8
0
6
CONTINUOUS
10
108.2810983
20
-109.5067484
40
5
50
247.4885409
51
247.5
0
LINE
8
0
6
CONTINUOUS
10
192.5587068
20
-116.1202247
11
194.1383365
21
-115.4659207
0
ARC
8
0
6
CONTINUOUS
10
195.4594217
20
-109.5067484
40
5
50
292.5
51
292.5114591
0
LINE
8
0
6
CONTINUOUS
10
42.3832124
20
-105.7649411
11
55.1857132
21
-108.0223674
0
ARC
8
0
6
CONTINUOUS
10
54.8669575
20
-106.9507356
40
1
50
260
51
350
0
LINE
8
0
6
CONTINUOUS
10
55.8517652
20
-107.1243838
11
57.9355433
21
-95.3066907
0
ARC
8
0
6
CONTINUOUS
10
56.9507356
20
-95.1330425
40
1
50
350
51
80
0
LINE
8
0
6
CONTINUOUS
10
44.8142868
20
-91.9776326
11
57.6167876
21
-94.2350589
0
ARC
8
0
6
CONTINUOUS
10
45.1330425
20
-93.0492644
40
1
50
80
51
170
0
LINE
8
0
6
CONTINUOUS
10
44.1482348
20
-92.8756162
11
42.0644567
21
-104.6933093
0
ARC
8
0
6
CONTINUOUS
10
43.0492644
20
-104.8669575
40
1
50
170
51
260
0
LINE
8
0
6
CONTINUOUS
10
45.6825278
20
-87.0535938
11
58.4850286
21
-89.3110201
0
ARC
8
0
6
CONTINUOUS
10
58.1662729
20
-88.2393883
40
1
50
260
51
350
0
LINE
8
0
6
CONTINUOUS
10
59.1510806
20
-88.4130365
11
61.2348587
21
-76.5953434
0
ARC
8
0
6
CONTINUOUS
10
60.250051
20
-76.4216952
40
1
50
350
51
80
0
LINE
8
0
6
CONTINUOUS
10
48.1136022
20
-73.2662853
11
60.916103
21
-75.5237116
0
ARC
8
0
6
CONTINUOUS
10
48.4323579
20
-74.3379171
40
1
50
80
51
170
0
LINE
8
0
6
CONTINUOUS
10
47.4475502
20
-74.1642689
11
45.3637721
21
-85.981962
0
ARC
8
0
6
CONTINUOUS
10
46.3485798
20
-86.1556102
40
1
50
170
51
260
0
LINE
8
0
6
CONTINUOUS
10
52.1826142
20
-65.5351421
11
64.73965
21
-68.8997897
0
ARC
8
0
6
CONTINUOUS
10
64.5155061
20
-67.8044543
40
1
50
255
51
345
0
LINE
8
0
6
CONTINUOUS
10
65.4814319
20
-68.0632734
11
68.5872605
21
-56.4721635
0
ARC
8
0
6
CONTINUOUS
10
67.6213346
20
-56.2133444
40
1
50
345
51
75
0
LINE
8
0
6
CONTINUOUS
10
55.8060808
20
-52.0121805
11
68.3631166
21
-55.3768281
0
ARC
8
0
6
CONTINUOUS
10
56.0302247
20
-53.1075159
40
1
50
75
51
165
0
LINE
8
0
6
CONTINUOUS
10
55.0642989
20
-52.8486968
11
51.9584703
21
-64.4398067
0
ARC
8
0
6
CONTINUOUS
10
52.9243962
20
-64.6986258
40
1
50
165
51
255
0
LINE
8
0
6
CONTINUOUS
10
63.7562071
20
-96.0692066
11
76.3132429
21
-99.4338542
0
ARC
8
0
6
CONTINUOUS
10
76.089099
20
-98.3385188
40
1
50
255
51
345
0
LINE
8
0
6
CONTINUOUS
10
77.0550248
20
-98.5973379
11
80.1608534
21
-87.006228
0
ARC
8
0
6
CONTINUOUS
10
79.1949275
20
-86.7474089
40
1
50
345
51
75
0
LINE
8
0
6
CONTINUOUS
10
67.3796737
20
-82.546245
11
79.9367095
21
-85.9108926
0
ARC
8
0
6
CONTINUOUS
10
67.6038176
20
-83.6415804
40
1
50
75
51
165
0
LINE
8
0
6
CONTINUOUS
10
66.6378918
20
-83.3827613
11
63.5320632
21
-94.9738712
0
ARC
8
0
6
CONTINUOUS
10
64.4979891
20
-95.2326903
40
1
50
165
51
255
0
LINE
8
0
6
CONTINUOUS
10
68.673769
20
-77.7166159
11
81.2308048
21
-81.0812635
0
ARC
8
0
6
CONTINUOUS
10
81.0066609
20
-79.9859281
40
1
50
255
51
345
0
LINE
8
0
6
CONTINUOUS
10
81.9725867
20
-80.2447472
11
85.0784153
21
-68.6536373
0
ARC
8
0
6
CONTINUOUS
10
84.1124894
20
-68.3948182
40
1
50
345
51
75
0
LINE
8
0
6
CONTINUOUS
10
72.2972356
20
-64.1936543
11
84.8542714
21
-67.5583019
0
ARC
8
0
6
CONTINUOUS
10
72.5213795
20
-65.2889897
40
1
50
75
51
165
0
LINE
8
0
6
CONTINUOUS
10
71.5554537
20
-65.0301706
11
68.4496251
21
-76.6212805
0
ARC
8
0
6
CONTINUOUS
10
69.415551
20
-76.8800996
40
1
50
165
51
255
0
LINE
8
0
6
CONTINUOUS
10
73.5913309
20
-59.3640252
11
86.1483667
21
-62.7286728
0
ARC
8
0
6
CONTINUOUS
10
85.9242228
20
-61.6333374
40
1
50
255
51
345
0
LINE
8
0
6
CONTINUOUS
10
86.8901486
20
-61.8921565
11
89.9959772
21
-50.3010466
0
ARC
8
0
6
CONTINUOUS
10
89.0300513
20
-50.0422275
40
1
50
345
51
75
0
LINE
8
0
6
CONTINUOUS
10
77.2147975
20
-45.8410636
11
89.7718333
21
-49.2057112
0
ARC
8
0
6
CONTINUOUS
10
77.4389414
20
-46.936399
40
1
50
75
51
165
0
LINE
8
0
6
CONTINUOUS
10
76.4730156
20
-46.6775799
11
73.367187
21
-58.2686898
0
ARC
8
0
6
CONTINUOUS
10
74.3331129
20
-58.5275089
40
1
50
165
51
255
0
LINE
8
0
6
CONTINUOUS
10
84.8897905
20
-91.2827359
11
97.1057945
21
-95.7289978
0
ARC
8
0
6
CONTINUOUS
10
96.9779684
20
-94.6182951
40
1
50
250
51
340
0
LINE
8
0
6
CONTINUOUS
10
97.917661
20
-94.9603152
11
102.0219027
21
-83.6840038
0
ARC
8
0
6
CONTINUOUS
10
101.0822101
20
-83.3419836
40
1
50
340
51
70
0
LINE
8
0
6
CONTINUOUS
10
89.6780725
20
-78.1270392
11
101.8940765
21
-82.5733011
0
ARC
8
0
6
CONTINUOUS
10
89.8058986
20
-79.2377419
40
1
50
70
51
160
0
LINE
8
0
6
CONTINUOUS
10
88.866206
20
-78.8957218
11
84.7619643
21
-90.1720332
0
ARC
8
0
6
CONTINUOUS
10
85.7016569
20
-90.5140534
40
1
50
160
51
250
0
LINE
8
0
6
CONTINUOUS
10
91.3881732
20
-73.4285761
11
103.6041772
21
-77.874838
0
ARC
8
0
6
CONTINUOUS
10
103.4763511
20
-76.7641353
40
1
50
250
51
340
0
LINE
8
0
6
CONTINUOUS
10
104.4160437
20
-77.1061554
11
108.5202854
21
-65.829844
0
ARC
8
0
6
CONTINUOUS
10
107.5805928
20
-65.4878238
40
1
50
340
51
70
0
LINE
8
0
6
CONTINUOUS
10
96.1764552
20
-60.2728794
11
108.3924592
21
-64.7191413
0
ARC
8
0
6
CONTINUOUS
10
96.3042813
20
-61.3835821
40
1
50
70
51
160
0
LINE
8
0
6
CONTINUOUS
10
95.3645887
20
-61.041562
11
91.260347
21
-72.3178734
0
ARC
8
0
6
CONTINUOUS
10
92.2000396
20
-72.6598936
40
1
50
160
51
250
0
LINE
8
0
6
CONTINUOUS
10
97.8865559
20
-55.5744163
11
110.1025599
21
-60.0206782
0
ARC
8
0
6
CONTINUOUS
10
109.9747338
20
-58.9099755
40
1
50
250
51
340
0
LINE
8
0
6
CONTINUOUS
10
110.9144264
20
-59.2519956
11
115.0186681
21
-47.9756842
0
ARC
8
0
6
CONTINUOUS
10
114.0789755
20
-47.633664
40
1
50
340
51
70
0
LINE
8
0
6
CONTINUOUS
10
102.6748379
20
-42.4187196
11
114.8908419
21
-46.8649815
0
ARC
8
0
6
CONTINUOUS
10
102.802664
20
-43.5294223
40
1
50
70
51
160
0
LINE
8
0
6
CONTINUOUS
10
101.8629714
20
-43.1874022
11
97.7587297
21
-54.4637136
0
ARC
8
0
6
CONTINUOUS
10
98.6984223
20
-54.8057338
40
1
50
160
51
250
0
LINE
8
0
6
CONTINUOUS
10
99.312901
20
-106.3331955
11
111.3233349
21
-111.3080801
0
ARC
8
0
6
CONTINUOUS
10
111.2440786
20
-110.1928589
40
1
50
247.5
51
337.5
0
LINE
8
0
6
CONTINUOUS
10
112.1679581
20
-110.5755423
11
116.7601593
21
-99.4889879
0
ARC
8
0
6
CONTINUOUS
10
115.8362798
20
-99.1063045
40
1
50
337.5
51
67.5
0
LINE
8
0
6
CONTINUOUS
10
104.6704691
20
-93.3988821
11
116.680903
21
-98.3737667
0
ARC
8
0
6
CONTINUOUS
10
104.7497254
20
-94.5141033
40
1
50
67.5
51
157.5
0
LINE
8
0
6
CONTINUOUS
10
103.8258459
20
-94.1314199
11
99.2336447
21
-105.2179743
0
ARC
8
0
6
CONTINUOUS
10
100.1575242
20
-105.6006577
40
1
50
157.5
51
247.5
0
LINE
8
0
6
CONTINUOUS
10
106.5838862
20
-88.7794844
11
118.5943201
21
-93.754369
0
ARC
8
0
6
CONTINUOUS
10
118.5150638
20
-92.6391478
40
1
50
247.5
51
337.5
0
LINE
8
0
6
CONTINUOUS
10
119.4389433
20
-93.0218312
11
124.0311445
21
-81.9352768
0
ARC
8
0
6
CONTINUOUS
10
123.107265
20
-81.5525934
40
1
50
337.5
51
67.5
0
LINE
8
0
6
CONTINUOUS
10
111.9414543
20
-75.845171
11
123.9518882
21
-80.8200556
0
ARC
8
0
6
CONTINUOUS
10
112.0207106
20
-76.9603922
40
1
50
67.5
51
157.5
0
LINE
8
0
6
CONTINUOUS
10
111.0968311
20
-76.5777088
11
106.5046299
21
-87.6642632
0
ARC
8
0
6
CONTINUOUS
10
107.4285094
20
-88.0469466
40
1
50
157.5
51
247.5
0
LINE
8
0
6
CONTINUOUS
10
113.8548714
20
-71.2257733
11
125.8653053
21
-76.2006579
0
ARC
8
0
6
CONTINUOUS
10
125.786049
20
-75.0854367
40
1
50
247.5
51
337.5
0
LINE
8
0
6
CONTINUOUS
10
126.7099285
20
-75.4681201
11
131.3021297
21
-64.3815657
0
ARC
8
0
6
CONTINUOUS
10
130.3782502
20
-63.9988823
40
1
50
337.5
51
67.5
0
LINE
8
0
6
CONTINUOUS
10
119.2124395
20
-58.2914599
11
131.2228734
21
-63.2663445
0
ARC
8
0
6
CONTINUOUS
10
119.2916958
20
-59.4066811
40
1
50
67.5
51
157.5
0
LINE
8
0
6
CONTINUOUS
10
118.3678163
20
-59.0239977
11
113.7756151
21
-70.1105521
0
ARC
8
0
6
CONTINUOUS
10
114.6994946
20
-70.4932355
40
1
50
157.5
51
247.5
0
LINE
8
0
6
CONTINUOUS
10
119.2902738
20
-107.7529437
11
131.3007077
21
-112.7278283
0
ARC
8
0
6
CONTINUOUS
10
131.2214514
20
-111.6126071
40
1
50
247.5
51
337.5
0
LINE
8
0
6
CONTINUOUS
10
132.1453309
20
-111.9952905
11
136.7375321
21
-100.9087361
0
ARC
8
0
6
CONTINUOUS
10
135.8136526
20
-100.5260527
40
1
50
337.5
51
67.5
0
LINE
8
0
6
CONTINUOUS
10
124.6478419
20
-94.8186303
11
136.6582758
21
-99.7935149
0
ARC
8
0
6
CONTINUOUS
10
124.7270982
20
-95.9338515
40
1
50
67.5
51
157.5
0
LINE
8
0
6
CONTINUOUS
10
123.8032187
20
-95.5511681
11
119.2110175
21
-106.6377225
0
ARC
8
0
6
CONTINUOUS
10
120.134897
20
-107.0204059
40
1
50
157.5
51
247.5
0
LINE
8
0
6
CONTINUOUS
10
126.561259
20
-90.1992326
11
138.5716929
21
-95.1741172
0
ARC
8
0
6
CONTINUOUS
10
138.4924366
20
-94.058896
40
1
50
247.5
51
337.5
0
LINE
8
0
6
CONTINUOUS
10
139.4163161
20
-94.4415794
11
144.0085173
21
-83.355025
0
ARC
8
0
6
CONTINUOUS
10
143.0846378
20
-82.9723416
40
1
50
337.5
51
67.5
0
LINE
8
0
6
CONTINUOUS
10
131.9188271
20
-77.2649192
11
143.929261
21
-82.2398038
0
ARC
8
0
6
CONTINUOUS
10
131.9980834
20
-78.3801404
40
1
50
67.5
51
157.5
0
LINE
8
0
6
CONTINUOUS
10
131.0742039
20
-77.997457
11
126.4820027
21
-89.0840114
0
ARC
8
0
6
CONTINUOUS
10
127.4058822
20
-89.4666948
40
1
50
157.5
51
247.5
0
LINE
8
0
6
CONTINUOUS
10
248.5548068
20
-108.0223674
11
261.3573076
21
-105.7649411
0
ARC
8
0
6
CONTINUOUS
10
260.6912556
20
-104.8669575
40
1
50
280
51
10
0
LINE
8
0
6
CONTINUOUS
10
261.6760633
20
-104.6933093
11
259.5922852
21
-92.8756162
0
ARC
8
0
6
CONTINUOUS
10
258.6074775
20
-93.0492644
40
1
50
10
51
100
0
LINE
8
0
6
CONTINUOUS
10
246.1237324
20
-94.2350589
11
258.9262332
21
-91.9776326
0
ARC
8
0
6
CONTINUOUS
10
246.7897844
20
-95.1330425
40
1
50
100
51
190
0
LINE
8
0
6
CONTINUOUS
10
245.8049767
20
-95.3066907
11
247.8887548
21
-107.1243838
0
ARC
8
0
6
CONTINUOUS
10
248.8735625
20
-106.9507356
40
1
50
190
51
280
0
LINE
8
0
6
CONTINUOUS
10
245.2554914
20
-89.3110201
11
258.0579922
21
-87.0535938
0
ARC
8
0
6
CONTINUOUS
10
257.3919402
20
-86.1556102
40
1
50
280
51
10
0
LINE
8
0
6
CONTINUOUS
10
258.3767479
20
-85.981962
11
256.2929698
21
-74.1642689
0
ARC
8
0
6
CONTINUOUS
10
255.3081621
20
-74.3379171
40
1
50
10
51
100
0
LINE
8
0
6
CONTINUOUS
10
242.824417
20
-75.5237116
11
255.6269178
21
-73.2662853
0
ARC
8
0
6
CONTINUOUS
10
243.490469
20
-76.4216952
40
1
50
100
51
190
0
LINE
8
0
6
CONTINUOUS
10
242.5056613
20
-76.5953434
11
244.5894394
21
-88.4130365
0
ARC
8
0
6
CONTINUOUS
10
245.5742471
20
-88.2393883
40
1
50
190
51
280
0
LINE
8
0
6
CONTINUOUS
10
239.00087
20
-68.8997897
11
251.5579058
21
-65.5351421
0
ARC
8
0
6
CONTINUOUS
10
250.8161238
20
-64.6986258
40
1
50
285
51
15
0
LINE
8
0
6
CONTINUOUS
10
251.7820497
20
-64.4398067
11
248.6762211
21
-52.8486968
0
ARC
8
0
6
CONTINUOUS
10
247.7102953
20
-53.1075159
40
1
50
15
51
105
0
LINE
8
0
6
CONTINUOUS
10
235.3774034
20
-55.3768281
11
247.9344392
21
-52.0121805
0
ARC
8
0
6
CONTINUOUS
10
236.1191854
20
-56.2133444
40
1
50
105
51
195
0
LINE
8
0
6
CONTINUOUS
10
235.1532595
20
-56.4721635
11
238.2590881
21
-68.0632734
0
ARC
8
0
6
CONTINUOUS
10
239.2250139
20
-67.8044543
40
1
50
195
51
285
0
LINE
8
0
6
CONTINUOUS
10
227.4272771
20
-99.4338542
11
239.9843129
21
-96.0692066
0
ARC
8
0
6
CONTINUOUS
10
239.2425309
20
-95.2326903
40
1
50
285
51
15
0
LINE
8
0
6
CONTINUOUS
10
240.2084568
20
-94.9738712
11
237.1026282
21
-83.3827613
0
ARC
8
0
6
CONTINUOUS
10
236.1367024
20
-83.6415804
40
1
50
15
51
105
0
LINE
8
0
6
CONTINUOUS
10
223.8038105
20
-85.9108926
11
236.3608463
21
-82.546245
0
ARC
8
0
6
CONTINUOUS
10
224.5455925
20
-86.7474089
40
1
50
105
51
195
0
LINE
8
0
6
CONTINUOUS
10
223.5796666
20
-87.006228
11
226.6854952
21
-98.5973379
0
ARC
8
0
6
CONTINUOUS
10
227.651421
20
-98.3385188
40
1
50
195
51
285
0
LINE
8
0
6
CONTINUOUS
10
222.5097152
20
-81.0812635
11
235.066751
21
-77.7166159
0
ARC
8
0
6
CONTINUOUS
10
234.324969
20
-76.8800996
40
1
50
285
51
15
0
LINE
8
0
6
CONTINUOUS
10
235.2908949
20
-76.6212805
11
232.1850663
21
-65.0301706
0
ARC
8
0
6
CONTINUOUS
10
231.2191405
20
-65.2889897
40
1
50
15
51
105
0
LINE
8
0
6
CONTINUOUS
10
218.8862486
20
-67.5583019
11
231.4432844
21
-64.1936543
0
ARC
8
0
6
CONTINUOUS
10
219.6280306
20
-68.3948182
40
1
50
105
51
195
0
LINE
8
0
6
CONTINUOUS
10
218.6621047
20
-68.6536373
11
221.7679333
21
-80.2447472
0
ARC
8
0
6
CONTINUOUS
10
222.7338591
20
-79.9859281
40
1
50
195
51
285
0
LINE
8
0
6
CONTINUOUS
10
217.5921533
20
-62.7286728
11
230.1491891
21
-59.3640252
0
ARC
8
0
6
CONTINUOUS
10
229.4074071
20
-58.5275089
40
1
50
285
51
15
0
LINE
8
0
6
CONTINUOUS
10
230.373333
20
-58.2686898
11
227.2675044
21
-46.6775799
0
ARC
8
0
6
CONTINUOUS
10
226.3015786
20
-46.936399
40
1
50
15
51
105
0
LINE
8
0
6
CONTINUOUS
10
213.9686867
20
-49.2057112
11
226.5257225
21
-45.8410636
0
ARC
8
0
6
CONTINUOUS
10
214.7104687
20
-50.0422275
40
1
50
105
51
195
0
LINE
8
0
6
CONTINUOUS
10
213.7445428
20
-50.3010466
11
216.8503714
21
-61.8921565
0
ARC
8
0
6
CONTINUOUS
10
217.8162972
20
-61.6333374
40
1
50
195
51
285
0
LINE
8
0
6
CONTINUOUS
10
206.6347255
20
-95.7289978
11
218.8507295
21
-91.2827359
0
ARC
8
0
6
CONTINUOUS
10
218.0388631
20
-90.5140534
40
1
50
290
51
20
0
LINE
8
0
6
CONTINUOUS
10
218.9785557
20
-90.1720332
11
214.874314
21
-78.8957218
0
ARC
8
0
6
CONTINUOUS
10
213.9346214
20
-79.2377419
40
1
50
20
51
110
0
LINE
8
0
6
CONTINUOUS
10
201.8464435
20
-82.5733011
11
214.0624475
21
-78.1270392
0
ARC
8
0
6
CONTINUOUS
10
202.6583099
20
-83.3419836
40
1
50
110
51
200
0
LINE
8
0
6
CONTINUOUS
10
201.7186173
20
-83.6840038
11
205.822859
21
-94.9603152
0
ARC
8
0
6
CONTINUOUS
10
206.7625516
20
-94.6182951
40
1
50
200
51
290
0
LINE
8
0
6
CONTINUOUS
10
200.1363428
20
-77.874838
11
212.3523468
21
-73.4285761
0
ARC
8
0
6
CONTINUOUS
10
211.5404804
20
-72.6598936
40
1
50
290
51
20
0
LINE
8
0
6
CONTINUOUS
10
212.480173
20
-72.3178734
11
208.3759313
21
-61.041562
0
ARC
8
0
6
CONTINUOUS
10
207.4362387
20
-61.3835821
40
1
50
20
51
110
0
LINE
8
0
6
CONTINUOUS
10
195.3480608
20
-64.7191413
11
207.5640648
21
-60.2728794
0
ARC
8
0
6
CONTINUOUS
10
196.1599272
20
-65.4878238
40
1
50
110
51
200
0
LINE
8
0
6
CONTINUOUS
10
195.2202346
20
-65.829844
11
199.3244763
21
-77.1061554
0
ARC
8
0
6
CONTINUOUS
10
200.2641689
20
-76.7641353
40
1
50
200
51
290
0
LINE
8
0
6
CONTINUOUS
10
193.6379601
20
-60.0206782
11
205.8539641
21
-55.5744163
0
ARC
8
0
6
CONTINUOUS
10
205.0420977
20
-54.8057338
40
1
50
290
51
20
0
LINE
8
0
6
CONTINUOUS
10
205.9817903
20
-54.4637136
11
201.8775486
21
-43.1874022
0
ARC
8
0
6
CONTINUOUS
10
200.937856
20
-43.5294223
40
1
50
20
51
110
0
LINE
8
0
6
CONTINUOUS
10
188.8496781
20
-46.8649815
11
201.0656821
21
-42.4187196
0
ARC
8
0
6
CONTINUOUS
10
189.6615445
20
-47.633664
40
1
50
110
51
200
0
LINE
8
0
6
CONTINUOUS
10
188.7218519
20
-47.9756842
11
192.8260936
21
-59.2519956
0
ARC
8
0
6
CONTINUOUS
10
193.7657862
20
-58.9099755
40
1
50
200
51
290
0
LINE
8
0
6
CONTINUOUS
10
192.4171851
20
-111.3080801
11
204.427619
21
-106.3331955
0
ARC
8
0
6
CONTINUOUS
10
203.5829958
20
-105.6006577
40
1
50
292.5
51
22.5
0
LINE
8
0
6
CONTINUOUS
10
204.5068753
20
-105.2179743
11
199.9146741
21
-94.1314199
0
ARC
8
0
6
CONTINUOUS
10
198.9907946
20
-94.5141033
40
1
50
22.5
51
112.5
0
LINE
8
0
6
CONTINUOUS
10
187.059617
20
-98.3737667
11
199.0700509
21
-93.3988821
0
ARC
8
0
6
CONTINUOUS
10
187.9042402
20
-99.1063045
40
1
50
112.5
51
202.5
0
LINE
8
0
6
CONTINUOUS
10
186.9803607
20
-99.4889879
11
191.5725619
21
-110.5755423
0
ARC
8
0
6
CONTINUOUS
10
192.4964414
20
-110.1928589
40
1
50
202.5
51
292.5
0
LINE
8
0
6
CONTINUOUS
10
185.1461999
20
-93.754369
11
197.1566338
21
-88.7794844
0
ARC
8
0
6
CONTINUOUS
10
196.3120106
20
-88.0469466
40
1
50
292.5
51
22.5
0
LINE
8
0
6
CONTINUOUS
10
197.2358901
20
-87.6642632
11
192.6436889
21
-76.5777088
0
ARC
8
0
6
CONTINUOUS
10
191.7198094
20
-76.9603922
40
1
50
22.5
51
112.5
0
LINE
8
0
6
CONTINUOUS
10
179.7886318
20
-80.8200556
11
191.7990657
21
-75.845171
0
ARC
8
0
6
CONTINUOUS
10
180.633255
20
-81.5525934
40
1
50
112.5
51
202.5
0
LINE
8
0
6
CONTINUOUS
10
179.7093755
20
-81.9352768
11
184.3015767
21
-93.0218312
0
ARC
8
0
6
CONTINUOUS
10
185.2254562
20
-92.6391478
40
1
50
202.5
51
292.5
0
LINE
8
0
6
CONTINUOUS
10
177.8752147
20
-76.2006579
11
189.8856486
21
-71.2257733
0
ARC
8
0
6
CONTINUOUS
10
189.0410254
20
-70.4932355
40
1
50
292.5
51
22.5
0
LINE
8
0
6
CONTINUOUS
10
189.9649049
20
-70.1105521
11
185.3727037
21
-59.0239977
0
ARC
8
0
6
CONTINUOUS
10
184.4488242
20
-59.4066811
40
1
50
22.5
51
112.5
0
LINE
8
0
6
CONTINUOUS
10
172.5176466
20
-63.2663445
11
184.5280805
21
-58.2914599
0
ARC
8
0
6
CONTINUOUS
10
173.3622698
20
-63.9988823
40
1
50
112.5
51
202.5
0
LINE
8
0
6
CONTINUOUS
10
172.4383903
20
-64.3815657
11
177.0305915
21
-75.4681201
0
ARC
8
0
6
CONTINUOUS
10
177.954471
20
-75.0854367
40
1
50
202.5
51
292.5
0
LINE
8
0
6
CONTINUOUS
10
172.4398123
20
-112.7278283
11
184.4502462
21
-107.7529437
0
ARC
8
0
6
CONTINUOUS
10
183.605623
20
-107.0204059
40
1
50
292.5
51
22.5
0
LINE
8
0
6
CONTINUOUS
10
184.5295025
20
-106.6377225
11
179.9373013
21
-95.5511681
0
ARC
8
0
6
CONTINUOUS
10
179.0134218
20
-95.9338515
40
1
50
22.5
51
112.5
0
LINE
8
0
6
CONTINUOUS
10
167.0822442
20
-99.7935149
11
179.0926781
21
-94.8186303
0
ARC
8
0
6
CONTINUOUS
10
167.9268674
20
-100.5260527
40
1
50
112.5
51
202.5
0
LINE
8
0
6
CONTINUOUS
10
167.0029879
20
-100.9087361
11
171.5951891
21
-111.9952905
0
ARC
8
0
6
CONTINUOUS
10
172.5190686
20
-111.6126071
40
1
50
202.5
51
292.5
0
LINE
8
0
6
CONTINUOUS
10
165.1688271
20
-95.1741172
11
177.179261
21
-90.1992326
0
ARC
8
0
6
CONTINUOUS
10
176.3346378
20
-89.4666948
40
1
50
292.5
51
22.5
0
LINE
8
0
6
CONTINUOUS
10
177.2585173
20
-89.0840114
11
172.6663161
21
-77.997457
0
ARC
8
0
6
CONTINUOUS
10
171.7424366
20
-78.3801404
40
1
50
22.5
51
112.5
0
LINE
8
0
6
CONTINUOUS
10
159.811259
20
-82.2398038
11
171.8216929
21
-77.2649192
0
ARC
8
0
6
CONTINUOUS
10
160.6558822
20
-82.9723416
40
1
50
112.5
51
202.5
0
LINE
8
0
6
CONTINUOUS
10
159.7320027
20
-83.355025
11
164.3242039
21
-94.4415794
0
ARC
8
0
6
CONTINUOUS
10
165.2480834
20
-94.058896
40
1
50
202.5
51
292.5
0
LINE
8
0
6
CONTINUOUS
10
125.2108261
20
-137.2615702
11
135.5244195
21
-145.1754688
0
ARC
8
0
6
CONTINUOUS
10
135.7365043
20
-144.0777347
40
1
50
232.5
51
322.5
0
LINE
8
0
6
CONTINUOUS
10
136.5298576
20
-144.6864961
11
143.8349948
21
-135.1662561
0
ARC
8
0
6
CONTINUOUS
10
143.0416414
20
-134.5574946
40
1
50
322.5
51
52.5
0
LINE
8
0
6
CONTINUOUS
10
133.7334861
20
-126.1546234
11
144.0470795
21
-134.068522
0
ARC
8
0
6
CONTINUOUS
10
133.5214013
20
-127.2523575
40
1
50
52.5
51
142.5
0
LINE
8
0
6
CONTINUOUS
10
132.728048
20
-126.6435961
11
125.4229108
21
-136.1638361
0
ARC
8
0
6
CONTINUOUS
10
126.2162642
20
-136.7725976
40
1
50
142.5
51
232.5
0
LINE
8
0
6
CONTINUOUS
10
168.2161005
20
-145.1754688
11
178.5296939
21
-137.2615702
0
ARC
8
0
6
CONTINUOUS
10
177.5242558
20
-136.7725976
40
1
50
307.5
51
37.5
0
LINE
8
0
6
CONTINUOUS
10
178.3176092
20
-136.1638361
11
171.012472
21
-126.6435961
0
ARC
8
0
6
CONTINUOUS
10
170.2191187
20
-127.2523575
40
1
50
37.5
51
127.5
0
LINE
8
0
6
CONTINUOUS
10
159.6934405
20
-134.068522
11
170.0070339
21
-126.1546234
0
ARC
8
0
6
CONTINUOUS
10
160.6988786
20
-134.5574946
40
1
50
127.5
51
217.5
0
LINE
8
0
6
CONTINUOUS
10
159.9055252
20
-135.1662561
11
167.2106624
21
-144.6864961
0
ARC
8
0
6
CONTINUOUS
10
168.0040157
20
-144.0777347
40
1
50
217.5
51
307.5
0
LINE
8
0
6
CONTINUOUS
10
145.67026
20
-122.3150461
11
148.82026
21
-122.3150461
0
LINE
8
0
6
CONTINUOUS
10
154.92026
20
-122.3150461
11
158.07026
21
-122.3150461
0
LINE
8
0
6
CONTINUOUS
10
158.07026
20
-122.3150461
11
158.07026
21
-109.1150461
0
LINE
8
0
6
CONTINUOUS
10
158.07026
20
-109.1150461
11
145.67026
21
-109.1150461
0
LINE
8
0
6
CONTINUOUS
10
145.67026
20
-109.1150461
11
145.67026
21
-122.3150461
0
LINE
8
0
6
CONTINUOUS
10
148.82026
20
-123.5150461
11
154.92026
21
-123.5150461
0
LINE
8
0
6
CONTINUOUS
10
154.92026
20
-123.5150461
11
154.92026
21
-122.3150461
0
LINE
8
0
6
CONTINUOUS
10
148.82026
20
-122.3150461
11
148.82026
21
-123.5150461
0
ARC
8
0
6
CONTINUOUS
10
49.2886435
20
-108.3533809
40
1
50
285.1370401
51
350
0
LINE
8
0
6
CONTINUOUS
10
50.2734513
20
-108.527029
11
50.5078763
21
-107.1975386
0
LINE
8
0
6
CONTINUOUS
10
52.9389509
20
-93.4102301
11
53.1733759
21
-92.0807396
0
ARC
8
0
6
CONTINUOUS
10
52.1885681
20
-91.9070914
40
1
50
350
51
80
0
LINE
8
0
6
CONTINUOUS
10
52.3622163
20
-90.9222836
11
50.8850046
21
-90.6618114
0
ARC
8
0
6
CONTINUOUS
10
50.7113565
20
-91.6466191
40
1
50
80
51
170
0
LINE
8
0
6
CONTINUOUS
10
49.7265487
20
-91.472971
11
49.4921237
21
-92.8024614
0
LINE
8
0
6
CONTINUOUS
10
47.0610491
20
-106.5897699
11
46.8266241
21
-107.9192604
0
ARC
8
0
6
CONTINUOUS
10
47.8114319
20
-108.0929086
40
1
50
170
51
234.8629645
0
LINE
8
0
6
CONTINUOUS
10
50.9370991
20
-90.3663691
11
52.4143108
21
-90.6268413
0
ARC
8
0
6
CONTINUOUS
10
52.5879589
20
-89.6420336
40
1
50
260
51
350
0
LINE
8
0
6
CONTINUOUS
10
53.5727667
20
-89.8156817
11
53.8071917
21
-88.4861913
0
LINE
8
0
6
CONTINUOUS
10
56.2382663
20
-74.6988828
11
56.4726913
21
-73.3693923
0
ARC
8
0
6
CONTINUOUS
10
55.4878835
20
-73.1957441
40
1
50
350
51
80
0
LINE
8
0
6
CONTINUOUS
10
55.6615317
20
-72.2109363
11
54.18432
21
-71.9504641
0
ARC
8
0
6
CONTINUOUS
10
54.0106719
20
-72.9352718
40
1
50
80
51
170
0
LINE
8
0
6
CONTINUOUS
10
53.0258641
20
-72.7616237
11
52.7914391
21
-74.0911141
0
LINE
8
0
6
CONTINUOUS
10
50.3603645
20
-87.8784226
11
50.1259395
21
-89.2079131
0
ARC
8
0
6
CONTINUOUS
10
51.1107473
20
-89.3815613
40
1
50
170
51
260
0
LINE
8
0
6
CONTINUOUS
10
57.128463
20
-69.2932773
11
58.5773517
21
-69.6815059
0
ARC
8
0
6
CONTINUOUS
10
58.8361707
20
-68.71558
40
1
50
255
51
345
0
LINE
8
0
6
CONTINUOUS
10
59.8020966
20
-68.9743991
11
60.1515023
21
-67.6703993
0
LINE
8
0
6
CONTINUOUS
10
63.7749689
20
-54.1474376
11
64.1243746
21
-52.8434378
0
ARC
8
0
6
CONTINUOUS
10
63.1584488
20
-52.5846187
40
1
50
345
51
75
0
LINE
8
0
6
CONTINUOUS
10
63.4172678
20
-51.6186929
11
61.9683791
21
-51.2304643
0
ARC
8
0
6
CONTINUOUS
10
61.7095601
20
-52.1963902
40
1
50
75
51
165
0
LINE
8
0
6
CONTINUOUS
10
60.7436342
20
-51.9375711
11
60.3942285
21
-53.2415709
0
LINE
8
0
6
CONTINUOUS
10
56.7707619
20
-66.7645326
11
56.4213562
21
-68.0685324
0
ARC
8
0
6
CONTINUOUS
10
57.387282
20
-68.3273515
40
1
50
165
51
255
0
LINE
8
0
6
CONTINUOUS
10
68.7020559
20
-99.8273418
11
70.1509446
21
-100.2155704
0
ARC
8
0
6
CONTINUOUS
10
70.4097636
20
-99.2496445
40
1
50
255
51
345
0
LINE
8
0
6
CONTINUOUS
10
71.3756895
20
-99.5084636
11
71.7250952
21
-98.2044638
0
LINE
8
0
6
CONTINUOUS
10
75.3485618
20
-84.6815021
11
75.6979675
21
-83.3775023
0
ARC
8
0
6
CONTINUOUS
10
74.7320417
20
-83.1186832
40
1
50
345
51
75
0
LINE
8
0
6
CONTINUOUS
10
74.9908607
20
-82.1527574
11
73.541972
21
-81.7645288
0
ARC
8
0
6
CONTINUOUS
10
73.283153
20
-82.7304547
40
1
50
75
51
165
0
LINE
8
0
6
CONTINUOUS
10
72.3172271
20
-82.4716356
11
71.9678214
21
-83.7756354
0
LINE
8
0
6
CONTINUOUS
10
68.3443548
20
-97.2985971
11
67.9949491
21
-98.6025969
0
ARC
8
0
6
CONTINUOUS
10
68.9608749
20
-98.861416
40
1
50
165
51
255
0
LINE
8
0
6
CONTINUOUS
10
73.6196178
20
-81.4747511
11
75.0685065
21
-81.8629797
0
ARC
8
0
6
CONTINUOUS
10
75.3273255
20
-80.8970538
40
1
50
255
51
345
0
LINE
8
0
6
CONTINUOUS
10
76.2932514
20
-81.1558729
11
76.6426571
21
-79.8518731
0
LINE
8
0
6
CONTINUOUS
10
80.2661237
20
-66.3289114
11
80.6155294
21
-65.0249116
0
ARC
8
0
6
CONTINUOUS
10
79.6496036
20
-64.7660925
40
1
50
345
51
75
0
LINE
8
0
6
CONTINUOUS
10
79.9084226
20
-63.8001667
11
78.4595339
21
-63.4119381
0
ARC
8
0
6
CONTINUOUS
10
78.2007149
20
-64.377864
40
1
50
75
51
165
0
LINE
8
0
6
CONTINUOUS
10
77.234789
20
-64.1190449
11
76.8853833
21
-65.4230447
0
LINE
8
0
6
CONTINUOUS
10
73.2619167
20
-78.9460064
11
72.912511
21
-80.2500062
0
ARC
8
0
6
CONTINUOUS
10
73.8784368
20
-80.5088253
40
1
50
165
51
255
0
LINE
8
0
6
CONTINUOUS
10
78.5371797
20
-63.1221604
11
79.9860684
21
-63.510389
0
ARC
8
0
6
CONTINUOUS
10
80.2448874
20
-62.5444631
40
1
50
255
51
345
0
LINE
8
0
6
CONTINUOUS
10
81.2108133
20
-62.8032822
11
81.560219
21
-61.4992824
0
LINE
8
0
6
CONTINUOUS
10
85.1836856
20
-47.9763207
11
85.5330913
21
-46.6723209
0
ARC
8
0
6
CONTINUOUS
10
84.5671655
20
-46.4135018
40
1
50
345
51
75
0
LINE
8
0
6
CONTINUOUS
10
84.8259845
20
-45.447576
11
83.3770958
21
-45.0593474
0
ARC
8
0
6
CONTINUOUS
10
83.1182768
20
-46.0252733
40
1
50
75
51
165
0
LINE
8
0
6
CONTINUOUS
10
82.1523509
20
-45.7664542
11
81.8029452
21
-47.070454
0
LINE
8
0
6
CONTINUOUS
10
78.1794786
20
-60.5934157
11
77.8300729
21
-61.8974155
0
ARC
8
0
6
CONTINUOUS
10
78.7959987
20
-62.1562346
40
1
50
165
51
255
0
LINE
8
0
6
CONTINUOUS
10
89.4892757
20
-95.4576294
11
90.8988146
21
-95.9706596
0
ARC
8
0
6
CONTINUOUS
10
91.2408348
20
-95.030967
40
1
50
250
51
340
0
LINE
8
0
6
CONTINUOUS
10
92.1805274
20
-95.3729871
11
92.6422546
21
-94.1044021
0
LINE
8
0
6
CONTINUOUS
10
97.4305366
20
-80.9487054
11
97.8922638
21
-79.6801204
0
ARC
8
0
6
CONTINUOUS
10
96.9525712
20
-79.3381002
40
1
50
340
51
70
0
LINE
8
0
6
CONTINUOUS
10
97.2945913
20
-78.3984076
11
95.8850524
21
-77.8853774
0
ARC
8
0
6
CONTINUOUS
10
95.5430322
20
-78.82507
40
1
50
70
51
160
0
LINE
8
0
6
CONTINUOUS
10
94.6033396
20
-78.4830499
11
94.1416124
21
-79.7516349
0
LINE
8
0
6
CONTINUOUS
10
89.3533304
20
-92.9073316
11
88.8916032
21
-94.1759166
0
ARC
8
0
6
CONTINUOUS
10
89.8312958
20
-94.5179368
40
1
50
160
51
250
0
LINE
8
0
6
CONTINUOUS
10
95.9876584
20
-77.6034696
11
97.3971973
21
-78.1164998
0
ARC
8
0
6
CONTINUOUS
10
97.7392175
20
-77.1768072
40
1
50
250
51
340
0
LINE
8
0
6
CONTINUOUS
10
98.6789101
20
-77.5188273
11
99.1406373
21
-76.2502423
0
LINE
8
0
6
CONTINUOUS
10
103.9289193
20
-63.0945456
11
104.3906465
21
-61.8259606
0
ARC
8
0
6
CONTINUOUS
10
103.4509539
20
-61.4839404
40
1
50
340
51
70
0
LINE
8
0
6
CONTINUOUS
10
103.792974
20
-60.5442478
11
102.3834351
21
-60.0312176
0
ARC
8
0
6
CONTINUOUS
10
102.0414149
20
-60.9709102
40
1
50
70
51
160
0
LINE
8
0
6
CONTINUOUS
10
101.1017223
20
-60.6288901
11
100.6399951
21
-61.8974751
0
LINE
8
0
6
CONTINUOUS
10
95.8517131
20
-75.0531718
11
95.3899859
21
-76.3217568
0
ARC
8
0
6
CONTINUOUS
10
96.3296785
20
-76.663777
40
1
50
160
51
250
0
LINE
8
0
6
CONTINUOUS
10
102.4860411
20
-59.7493098
11
103.89558
21
-60.26234
0
ARC
8
0
6
CONTINUOUS
10
104.2376002
20
-59.3226474
40
1
50
250
51
340
0
LINE
8
0
6
CONTINUOUS
10
105.1772928
20
-59.6646675
11
105.63902
21
-58.3960825
0
LINE
8
0
6
CONTINUOUS
10
110.427302
20
-45.2403858
11
110.8890292
21
-43.9718008
0
ARC
8
0
6
CONTINUOUS
10
109.9493366
20
-43.6297806
40
1
50
340
51
70
0
LINE
8
0
6
CONTINUOUS
10
110.2913567
20
-42.690088
11
108.8818178
21
-42.1770578
0
ARC
8
0
6
CONTINUOUS
10
108.5397976
20
-43.1167504
40
1
50
70
51
160
0
LINE
8
0
6
CONTINUOUS
10
107.600105
20
-42.7747303
11
107.1383778
21
-44.0433153
0
LINE
8
0
6
CONTINUOUS
10
102.3500958
20
-57.199012
11
101.8883686
21
-58.467597
0
ARC
8
0
6
CONTINUOUS
10
102.8280612
20
-58.8096172
40
1
50
160
51
250
0
LINE
8
0
6
CONTINUOUS
10
103.7259023
20
-110.7047422
11
105.1117216
21
-111.2787673
0
ARC
8
0
6
CONTINUOUS
10
105.494405
20
-110.3548878
40
1
50
247.5
51
337.5
0
LINE
8
0
6
CONTINUOUS
10
106.4182845
20
-110.7375712
11
106.9349071
21
-109.4903338
0
LINE
8
0
6
CONTINUOUS
10
112.2924752
20
-96.5560204
11
112.8090978
21
-95.308783
0
ARC
8
0
6
CONTINUOUS
10
111.8852183
20
-94.9260996
40
1
50
337.5
51
67.5
0
LINE
8
0
6
CONTINUOUS
10
112.2679017
20
-94.00222
11
110.8820824
21
-93.4281949
0
ARC
8
0
6
CONTINUOUS
10
110.499399
20
-94.3520744
40
1
50
67.5
51
157.5
0
LINE
8
0
6
CONTINUOUS
10
109.5755195
20
-93.969391
11
109.0588969
21
-95.2166284
0
LINE
8
0
6
CONTINUOUS
10
103.7013288
20
-108.1509418
11
103.1847062
21
-109.3981792
0
ARC
8
0
6
CONTINUOUS
10
104.1085857
20
-109.7808626
40
1
50
157.5
51
247.5
0
LINE
8
0
6
CONTINUOUS
10
110.9968875
20
-93.1510311
11
112.3827068
21
-93.7250562
0
ARC
8
0
6
CONTINUOUS
10
112.7653902
20
-92.8011767
40
1
50
247.5
51
337.5
0
LINE
8
0
6
CONTINUOUS
10
113.6892697
20
-93.1838601
11
114.2058923
21
-91.9366227
0
LINE
8
0
6
CONTINUOUS
10
119.5634604
20
-79.0023093
11
120.080083
21
-77.7550719
0
ARC
8
0
6
CONTINUOUS
10
119.1562035
20
-77.3723885
40
1
50
337.5
51
67.5
0
LINE
8
0
6
CONTINUOUS
10
119.5388869
20
-76.4485089
11
118.1530676
21
-75.8744838
0
ARC
8
0
6
CONTINUOUS
10
117.7703842
20
-76.7983633
40
1
50
67.5
51
157.5
0
LINE
8
0
6
CONTINUOUS
10
116.8465047
20
-76.4156799
11
116.3298821
21
-77.6629173
0
LINE
8
0
6
CONTINUOUS
10
110.972314
20
-90.5972307
11
110.4556914
21
-91.8444681
0
ARC
8
0
6
CONTINUOUS
10
111.3795709
20
-92.2271515
40
1
50
157.5
51
247.5
0
LINE
8
0
6
CONTINUOUS
10
118.2678727
20
-75.59732
11
119.653692
21
-76.1713451
0
ARC
8
0
6
CONTINUOUS
10
120.0363754
20
-75.2474656
40
1
50
247.5
51
337.5
0
LINE
8
0
6
CONTINUOUS
10
120.9602549
20
-75.630149
11
121.4768775
21
-74.3829116
0
LINE
8
0
6
CONTINUOUS
10
126.8344456
20
-61.4485982
11
127.3510682
21
-60.2013608
0
ARC
8
0
6
CONTINUOUS
10
126.4271887
20
-59.8186774
40
1
50
337.5
51
67.5
0
LINE
8
0
6
CONTINUOUS
10
126.8098721
20
-58.8947978
11
125.4240528
21
-58.3207727
0
ARC
8
0
6
CONTINUOUS
10
125.0413694
20
-59.2446522
40
1
50
67.5
51
157.5
0
LINE
8
0
6
CONTINUOUS
10
124.1174899
20
-58.8619688
11
123.6008673
21
-60.1092062
0
LINE
8
0
6
CONTINUOUS
10
118.2432992
20
-73.0435196
11
117.7266766
21
-74.290757
0
ARC
8
0
6
CONTINUOUS
10
118.6505561
20
-74.6734404
40
1
50
157.5
51
247.5
0
LINE
8
0
6
CONTINUOUS
10
123.7032751
20
-112.1244904
11
125.0890944
21
-112.6985155
0
ARC
8
0
6
CONTINUOUS
10
125.4717778
20
-111.774636
40
1
50
247.5
51
337.5
0
LINE
8
0
6
CONTINUOUS
10
126.3956573
20
-112.1573194
11
126.9122799
21
-110.910082
0
LINE
8
0
6
CONTINUOUS
10
132.269848
20
-97.9757686
11
132.7864706
21
-96.7285312
0
ARC
8
0
6
CONTINUOUS
10
131.8625911
20
-96.3458478
40
1
50
337.5
51
67.5
0
LINE
8
0
6
CONTINUOUS
10
132.2452745
20
-95.4219682
11
130.8594552
21
-94.8479431
0
ARC
8
0
6
CONTINUOUS
10
130.4767718
20
-95.7718226
40
1
50
67.5
51
157.5
0
LINE
8
0
6
CONTINUOUS
10
129.5528923
20
-95.3891392
11
129.0362697
21
-96.6363766
0
LINE
8
0
6
CONTINUOUS
10
123.6787016
20
-109.57069
11
123.162079
21
-110.8179274
0
ARC
8
0
6
CONTINUOUS
10
124.0859585
20
-111.2006108
40
1
50
157.5
51
247.5
0
LINE
8
0
6
CONTINUOUS
10
130.9742603
20
-94.5707793
11
132.3600796
21
-95.1448044
0
ARC
8
0
6
CONTINUOUS
10
132.742763
20
-94.2209249
40
1
50
247.5
51
337.5
0
LINE
8
0
6
CONTINUOUS
10
133.6666425
20
-94.6036083
11
134.1832651
21
-93.3563709
0
LINE
8
0
6
CONTINUOUS
10
139.5408332
20
-80.4220575
11
140.0574558
21
-79.1748201
0
ARC
8
0
6
CONTINUOUS
10
139.1335763
20
-78.7921367
40
1
50
337.5
51
67.5
0
LINE
8
0
6
CONTINUOUS
10
139.5162597
20
-77.8682571
11
138.1304404
21
-77.294232
0
ARC
8
0
6
CONTINUOUS
10
137.747757
20
-78.2181115
40
1
50
67.5
51
157.5
0
LINE
8
0
6
CONTINUOUS
10
136.8238775
20
-77.8354281
11
136.3072549
21
-79.0826655
0
LINE
8
0
6
CONTINUOUS
10
130.9496868
20
-92.0169789
11
130.4330642
21
-93.2642163
0
ARC
8
0
6
CONTINUOUS
10
131.3569437
20
-93.6468997
40
1
50
157.5
51
247.5
0
ARC
8
0
6
CONTINUOUS
10
255.9290881
20
-108.0929086
40
1
50
305.1370355
51
10
0
LINE
8
0
6
CONTINUOUS
10
256.9138959
20
-107.9192604
11
256.6794709
21
-106.5897699
0
LINE
8
0
6
CONTINUOUS
10
254.2483963
20
-92.8024614
11
254.0139713
21
-91.472971
0
ARC
8
0
6
CONTINUOUS
10
253.0291635
20
-91.6466191
40
1
50
10
51
100
0
LINE
8
0
6
CONTINUOUS
10
252.8555154
20
-90.6618114
11
251.3783037
21
-90.9222836
0
ARC
8
0
6
CONTINUOUS
10
251.5519519
20
-91.9070914
40
1
50
100
51
190
0
LINE
8
0
6
CONTINUOUS
10
250.5671441
20
-92.0807396
11
250.8015691
21
-93.4102301
0
LINE
8
0
6
CONTINUOUS
10
253.2326437
20
-107.1975386
11
253.4670687
21
-108.527029
0
ARC
8
0
6
CONTINUOUS
10
254.4518765
20
-108.3533809
40
1
50
190
51
254.8629599
0
LINE
8
0
6
CONTINUOUS
10
251.3262092
20
-90.6268413
11
252.8034209
21
-90.3663691
0
ARC
8
0
6
CONTINUOUS
10
252.6297727
20
-89.3815613
40
1
50
280
51
10
0
LINE
8
0
6
CONTINUOUS
10
253.6145805
20
-89.2079131
11
253.3801555
21
-87.8784226
0
LINE
8
0
6
CONTINUOUS
10
250.9490809
20
-74.0911141
11
250.7146559
21
-72.7616237
0
ARC
8
0
6
CONTINUOUS
10
249.7298481
20
-72.9352718
40
1
50
10
51
100
0
LINE
8
0
6
CONTINUOUS
10
249.5562
20
-71.9504641
11
248.0789883
21
-72.2109363
0
ARC
8
0
6
CONTINUOUS
10
248.2526365
20
-73.1957441
40
1
50
100
51
190
0
LINE
8
0
6
CONTINUOUS
10
247.2678287
20
-73.3693923
11
247.5022537
21
-74.6988828
0
LINE
8
0
6
CONTINUOUS
10
249.9333283
20
-88.4861913
11
250.1677533
21
-89.8156817
0
ARC
8
0
6
CONTINUOUS
10
251.1525611
20
-89.6420336
40
1
50
190
51
280
0
LINE
8
0
6
CONTINUOUS
10
245.1631683
20
-69.6815059
11
246.612057
21
-69.2932773
0
ARC
8
0
6
CONTINUOUS
10
246.353238
20
-68.3273515
40
1
50
285
51
15
0
LINE
8
0
6
CONTINUOUS
10
247.3191638
20
-68.0685324
11
246.9697581
21
-66.7645326
0
LINE
8
0
6
CONTINUOUS
10
243.3462915
20
-53.2415709
11
242.9968858
21
-51.9375711
0
ARC
8
0
6
CONTINUOUS
10
242.0309599
20
-52.1963902
40
1
50
15
51
105
0
LINE
8
0
6
CONTINUOUS
10
241.7721409
20
-51.2304643
11
240.3232522
21
-51.6186929
0
ARC
8
0
6
CONTINUOUS
10
240.5820712
20
-52.5846187
40
1
50
105
51
195
0
LINE
8
0
6
CONTINUOUS
10
239.6161454
20
-52.8434378
11
239.9655511
21
-54.1474376
0
LINE
8
0
6
CONTINUOUS
10
243.5890177
20
-67.6703993
11
243.9384234
21
-68.9743991
0
ARC
8
0
6
CONTINUOUS
10
244.9043493
20
-68.71558
40
1
50
195
51
285
0
LINE
8
0
6
CONTINUOUS
10
233.5895754
20
-100.2155704
11
235.0384641
21
-99.8273418
0
ARC
8
0
6
CONTINUOUS
10
234.7796451
20
-98.861416
40
1
50
285
51
15
0
LINE
8
0
6
CONTINUOUS
10
235.7455709
20
-98.6025969
11
235.3961652
21
-97.2985971
0
LINE
8
0
6
CONTINUOUS
10
231.7726986
20
-83.7756354
11
231.4232929
21
-82.4716356
0
ARC
8
0
6
CONTINUOUS
10
230.457367
20
-82.7304547
40
1
50
15
51
105
0
LINE
8
0
6
CONTINUOUS
10
230.198548
20
-81.7645288
11
228.7496593
21
-82.1527574
0
ARC
8
0
6
CONTINUOUS
10
229.0084783
20
-83.1186832
40
1
50
105
51
195
0
LINE
8
0
6
CONTINUOUS
10
228.0425525
20
-83.3775023
11
228.3919582
21
-84.6815021
0
LINE
8
0
6
CONTINUOUS
10
232.0154248
20
-98.2044638
11
232.3648305
21
-99.5084636
0
ARC
8
0
6
CONTINUOUS
10
233.3307564
20
-99.2496445
40
1
50
195
51
285
0
LINE
8
0
6
CONTINUOUS
10
228.6720135
20
-81.8629797
11
230.1209022
21
-81.4747511
0
ARC
8
0
6
CONTINUOUS
10
229.8620832
20
-80.5088253
40
1
50
285
51
15
0
LINE
8
0
6
CONTINUOUS
10
230.828009
20
-80.2500062
11
230.4786033
21
-78.9460064
0
LINE
8
0
6
CONTINUOUS
10
226.8551367
20
-65.4230447
11
226.505731
21
-64.1190449
0
ARC
8
0
6
CONTINUOUS
10
225.5398051
20
-64.377864
40
1
50
15
51
105
0
LINE
8
0
6
CONTINUOUS
10
225.2809861
20
-63.4119381
11
223.8320974
21
-63.8001667
0
ARC
8
0
6
CONTINUOUS
10
224.0909164
20
-64.7660925
40
1
50
105
51
195
0
LINE
8
0
6
CONTINUOUS
10
223.1249906
20
-65.0249116
11
223.4743963
21
-66.3289114
0
LINE
8
0
6
CONTINUOUS
10
227.0978629
20
-79.8518731
11
227.4472686
21
-81.1558729
0
ARC
8
0
6
CONTINUOUS
10
228.4131945
20
-80.8970538
40
1
50
195
51
285
0
LINE
8
0
6
CONTINUOUS
10
223.7544516
20
-63.510389
11
225.2033403
21
-63.1221604
0
ARC
8
0
6
CONTINUOUS
10
224.9445213
20
-62.1562346
40
1
50
285
51
15
0
LINE
8
0
6
CONTINUOUS
10
225.9104471
20
-61.8974155
11
225.5610414
21
-60.5934157
0
LINE
8
0
6
CONTINUOUS
10
221.9375748
20
-47.070454
11
221.5881691
21
-45.7664542
0
ARC
8
0
6
CONTINUOUS
10
220.6222432
20
-46.0252733
40
1
50
15
51
105
0
LINE
8
0
6
CONTINUOUS
10
220.3634242
20
-45.0593474
11
218.9145355
21
-45.447576
0
ARC
8
0
6
CONTINUOUS
10
219.1733545
20
-46.4135018
40
1
50
105
51
195
0
LINE
8
0
6
CONTINUOUS
10
218.2074287
20
-46.6723209
11
218.5568344
21
-47.9763207
0
LINE
8
0
6
CONTINUOUS
10
222.180301
20
-61.4992824
11
222.5297067
21
-62.8032822
0
ARC
8
0
6
CONTINUOUS
10
223.4956326
20
-62.5444631
40
1
50
195
51
285
0
LINE
8
0
6
CONTINUOUS
10
212.8417054
20
-95.9706596
11
214.2512443
21
-95.4576294
0
ARC
8
0
6
CONTINUOUS
10
213.9092242
20
-94.5179368
40
1
50
290
51
20
0
LINE
8
0
6
CONTINUOUS
10
214.8489168
20
-94.1759166
11
214.3871896
21
-92.9073316
0
LINE
8
0
6
CONTINUOUS
10
209.5989076
20
-79.7516349
11
209.1371804
21
-78.4830499
0
ARC
8
0
6
CONTINUOUS
10
208.1974878
20
-78.82507
40
1
50
20
51
110
0
LINE
8
0
6
CONTINUOUS
10
207.8554676
20
-77.8853774
11
206.4459287
21
-78.3984076
0
ARC
8
0
6
CONTINUOUS
10
206.7879488
20
-79.3381002
40
1
50
110
51
200
0
LINE
8
0
6
CONTINUOUS
10
205.8482562
20
-79.6801204
11
206.3099834
21
-80.9487054
0
LINE
8
0
6
CONTINUOUS
10
211.0982654
20
-94.1044021
11
211.5599926
21
-95.3729871
0
ARC
8
0
6
CONTINUOUS
10
212.4996852
20
-95.030967
40
1
50
200
51
290
0
LINE
8
0
6
CONTINUOUS
10
206.3433227
20
-78.1164998
11
207.7528616
21
-77.6034696
0
ARC
8
0
6
CONTINUOUS
10
207.4108415
20
-76.663777
40
1
50
290
51
20
0
LINE
8
0
6
CONTINUOUS
10
208.3505341
20
-76.3217568
11
207.8888069
21
-75.0531718
0
LINE
8
0
6
CONTINUOUS
10
203.1005249
20
-61.8974751
11
202.6387977
21
-60.6288901
0
ARC
8
0
6
CONTINUOUS
10
201.6991051
20
-60.9709102
40
1
50
20
51
110
0
LINE
8
0
6
CONTINUOUS
10
201.3570849
20
-60.0312176
11
199.947546
21
-60.5442478
0
ARC
8
0
6
CONTINUOUS
10
200.2895661
20
-61.4839404
40
1
50
110
51
200
0
LINE
8
0
6
CONTINUOUS
10
199.3498735
20
-61.8259606
11
199.8116007
21
-63.0945456
0
LINE
8
0
6
CONTINUOUS
10
204.5998827
20
-76.2502423
11
205.0616099
21
-77.5188273
0
ARC
8
0
6
CONTINUOUS
10
206.0013025
20
-77.1768072
40
1
50
200
51
290
0
LINE
8
0
6
CONTINUOUS
10
199.84494
20
-60.26234
11
201.2544789
21
-59.7493098
0
ARC
8
0
6
CONTINUOUS
10
200.9124588
20
-58.8096172
40
1
50
290
51
20
0
LINE
8
0
6
CONTINUOUS
10
201.8521514
20
-58.467597
11
201.3904242
21
-57.199012
0
LINE
8
0
6
CONTINUOUS
10
196.6021422
20
-44.0433153
11
196.140415
21
-42.7747303
0
ARC
8
0
6
CONTINUOUS
10
195.2007224
20
-43.1167504
40
1
50
20
51
110
0
LINE
8
0
6
CONTINUOUS
10
194.8587022
20
-42.1770578
11
193.4491633
21
-42.690088
0
ARC
8
0
6
CONTINUOUS
10
193.7911834
20
-43.6297806
40
1
50
110
51
200
0
LINE
8
0
6
CONTINUOUS
10
192.8514908
20
-43.9718008
11
193.313218
21
-45.2403858
0
LINE
8
0
6
CONTINUOUS
10
198.1015
20
-58.3960825
11
198.5632272
21
-59.6646675
0
ARC
8
0
6
CONTINUOUS
10
199.5029198
20
-59.3226474
40
1
50
200
51
290
0
LINE
8
0
6
CONTINUOUS
10
198.6287984
20
-111.2787673
11
200.0146177
21
-110.7047422
0
ARC
8
0
6
CONTINUOUS
10
199.6319343
20
-109.7808626
40
1
50
292.5
51
22.5
0
LINE
8
0
6
CONTINUOUS
10
200.5558138
20
-109.3981792
11
200.0391912
21
-108.1509418
0
LINE
8
0
6
CONTINUOUS
10
194.6816231
20
-95.2166284
11
194.1650005
21
-93.969391
0
ARC
8
0
6
CONTINUOUS
10
193.241121
20
-94.3520744
40
1
50
22.5
51
112.5
0
LINE
8
0
6
CONTINUOUS
10
192.8584376
20
-93.4281949
11
191.4726183
21
-94.00222
0
ARC
8
0
6
CONTINUOUS
10
191.8553017
20
-94.9260996
40
1
50
112.5
51
202.5
0
LINE
8
0
6
CONTINUOUS
10
190.9314222
20
-95.308783
11
191.4480448
21
-96.5560204
0
LINE
8
0
6
CONTINUOUS
10
196.8056129
20
-109.4903338
11
197.3222355
21
-110.7375712
0
ARC
8
0
6
CONTINUOUS
10
198.246115
20
-110.3548878
40
1
50
202.5
51
292.5
0
LINE
8
0
6
CONTINUOUS
10
191.3578132
20
-93.7250562
11
192.7436325
21
-93.1510311
0
ARC
8
0
6
CONTINUOUS
10
192.3609491
20
-92.2271515
40
1
50
292.5
51
22.5
0
LINE
8
0
6
CONTINUOUS
10
193.2848286
20
-91.8444681
11
192.768206
21
-90.5972307
0
LINE
8
0
6
CONTINUOUS
10
187.4106379
20
-77.6629173
11
186.8940153
21
-76.4156799
0
ARC
8
0
6
CONTINUOUS
10
185.9701358
20
-76.7983633
40
1
50
22.5
51
112.5
0
LINE
8
0
6
CONTINUOUS
10
185.5874524
20
-75.8744838
11
184.2016331
21
-76.4485089
0
ARC
8
0
6
CONTINUOUS
10
184.5843165
20
-77.3723885
40
1
50
112.5
51
202.5
0
LINE
8
0
6
CONTINUOUS
10
183.660437
20
-77.7550719
11
184.1770596
21
-79.0023093
0
LINE
8
0
6
CONTINUOUS
10
189.5346277
20
-91.9366227
11
190.0512503
21
-93.1838601
0
ARC
8
0
6
CONTINUOUS
10
190.9751298
20
-92.8011767
40
1
50
202.5
51
292.5
0
LINE
8
0
6
CONTINUOUS
10
184.086828
20
-76.1713451
11
185.4726473
21
-75.59732
0
ARC
8
0
6
CONTINUOUS
10
185.0899639
20
-74.6734404
40
1
50
292.5
51
22.5
0
LINE
8
0
6
CONTINUOUS
10
186.0138434
20
-74.290757
11
185.4972208
21
-73.0435196
0
LINE
8
0
6
CONTINUOUS
10
180.1396527
20
-60.1092062
11
179.6230301
21
-58.8619688
0
ARC
8
0
6
CONTINUOUS
10
178.6991506
20
-59.2446522
40
1
50
22.5
51
112.5
0
LINE
8
0
6
CONTINUOUS
10
178.3164672
20
-58.3207727
11
176.9306479
21
-58.8947978
0
ARC
8
0
6
CONTINUOUS
10
177.3133313
20
-59.8186774
40
1
50
112.5
51
202.5
0
LINE
8
0
6
CONTINUOUS
10
176.3894518
20
-60.2013608
11
176.9060744
21
-61.4485982
0
LINE
8
0
6
CONTINUOUS
10
182.2636425
20
-74.3829116
11
182.7802651
21
-75.630149
0
ARC
8
0
6
CONTINUOUS
10
183.7041446
20
-75.2474656
40
1
50
202.5
51
292.5
0
LINE
8
0
6
CONTINUOUS
10
178.6514256
20
-112.6985155
11
180.0372449
21
-112.1244904
0
ARC
8
0
6
CONTINUOUS
10
179.6545615
20
-111.2006108
40
1
50
292.5
51
22.5
0
LINE
8
0
6
CONTINUOUS
10
180.578441
20
-110.8179274
11
180.0618184
21
-109.57069
0
LINE
8
0
6
CONTINUOUS
10
174.7042503
20
-96.6363766
11
174.1876277
21
-95.3891392
0
ARC
8
0
6
CONTINUOUS
10
173.2637482
20
-95.7718226
40
1
50
22.5
51
112.5
0
LINE
8
0
6
CONTINUOUS
10
172.8810648
20
-94.8479431
11
171.4952455
21
-95.4219682
0
ARC
8
0
6
CONTINUOUS
10
171.8779289
20
-96.3458478
40
1
50
112.5
51
202.5
0
LINE
8
0
6
CONTINUOUS
10
170.9540494
20
-96.7285312
11
171.470672
21
-97.9757686
0
LINE
8
0
6
CONTINUOUS
10
176.8282401
20
-110.910082
11
177.3448627
21
-112.1573194
0
ARC
8
0
6
CONTINUOUS
10
178.2687422
20
-111.774636
40
1
50
202.5
51
292.5
0
LINE
8
0
6
CONTINUOUS
10
171.3804404
20
-95.1448044
11
172.7662597
21
-94.5707793
0
ARC
8
0
6
CONTINUOUS
10
172.3835763
20
-93.6468997
40
1
50
292.5
51
22.5
0
LINE
8
0
6
CONTINUOUS
10
173.3074558
20
-93.2642163
11
172.7908332
21
-92.0169789
0
LINE
8
0
6
CONTINUOUS
10
167.4332651
20
-79.0826655
11
166.9166425
21
-77.8354281
0
ARC
8
0
6
CONTINUOUS
10
165.992763
20
-78.2181115
40
1
50
22.5
51
112.5
0
LINE
8
0
6
CONTINUOUS
10
165.6100796
20
-77.294232
11
164.2242603
21
-77.8682571
0
ARC
8
0
6
CONTINUOUS
10
164.6069437
20
-78.7921367
40
1
50
112.5
51
202.5
0
LINE
8
0
6
CONTINUOUS
10
163.6830642
20
-79.1748201
11
164.1996868
21
-80.4220575
0
LINE
8
0
6
CONTINUOUS
10
169.5572549
20
-93.3563709
11
170.0738775
21
-94.6036083
0
ARC
8
0
6
CONTINUOUS
10
170.997757
20
-94.2209249
40
1
50
202.5
51
292.5
0
LINE
8
0
6
CONTINUOUS
10
128.3420184
20
-142.6263288
11
129.5320484
21
-143.5394709
0
ARC
8
0
6
CONTINUOUS
10
130.1408099
20
-142.7461176
40
1
50
232.5
51
322.5
0
LINE
8
0
6
CONTINUOUS
10
130.9341632
20
-143.354879
11
131.7559911
21
-142.283852
0
LINE
8
0
6
CONTINUOUS
10
140.2786512
20
-131.1769052
11
141.1004791
21
-130.1058782
0
ARC
8
0
6
CONTINUOUS
10
140.3071257
20
-129.4971168
40
1
50
322.5
51
52.5
0
LINE
8
0
6
CONTINUOUS
10
140.9158872
20
-128.7037634
11
139.7258572
21
-127.7906213
0
ARC
8
0
6
CONTINUOUS
10
139.1170957
20
-128.5839746
40
1
50
52.5
51
142.5
0
LINE
8
0
6
CONTINUOUS
10
138.3237424
20
-127.9752132
11
137.5019145
21
-129.0462402
0
LINE
8
0
6
CONTINUOUS
10
128.9792544
20
-140.153187
11
128.1574265
21
-141.224214
0
ARC
8
0
6
CONTINUOUS
10
128.9507799
20
-141.8329754
40
1
50
142.5
51
232.5
0
LINE
8
0
6
CONTINUOUS
10
174.2084716
20
-143.5394709
11
175.3985016
21
-142.6263288
0
ARC
8
0
6
CONTINUOUS
10
174.7897401
20
-141.8329754
40
1
50
307.5
51
37.5
0
LINE
8
0
6
CONTINUOUS
10
175.5830935
20
-141.224214
11
174.7612656
21
-140.153187
0
LINE
8
0
6
CONTINUOUS
10
166.2386055
20
-129.0462402
11
165.4167776
21
-127.9752132
0
ARC
8
0
6
CONTINUOUS
10
164.6234243
20
-128.5839746
40
1
50
37.5
51
127.5
0
LINE
8
0
6
CONTINUOUS
10
164.0146628
20
-127.7906213
11
162.8246328
21
-128.7037634
0
ARC
8
0
6
CONTINUOUS
10
163.4333943
20
-129.4971168
40
1
50
127.5
51
217.5
0
LINE
8
0
6
CONTINUOUS
10
162.6400409
20
-130.1058782
11
163.4618688
21
-131.1769052
0
LINE
8
0
6
CONTINUOUS
10
171.9845289
20
-142.283852
11
172.8063568
21
-143.354879
0
ARC
8
0
6
CONTINUOUS
10
173.5997101
20
-142.7461176
40
1
50
217.5
51
307.5
0
CIRCLE
8
0
6
CONTINUOUS
10
151.87026
20
-41.0696989
40
1.05
0
CIRCLE
8
0
6
CONTINUOUS
10
53.2571947
20
-70.0099903
40
1.2
0
CIRCLE
8
0
6
CONTINUOUS
10
250.4833253
20
-70.0099903
40
1.2
0
ARC
8
0
6
CONTINUOUS
10
48.3503423
20
-109.3556737
40
1.2
50
158.2336372
51
361.7663649
0
ARC
8
0
6
CONTINUOUS
10
255.3901777
20
-109.3556737
40
1.2
50
178.2336351
51
381.7663628
0
CIRCLE
8
0
6
CONTINUOUS
10
94.7308719
20
-50.0168435
40
1.2
0
CIRCLE
8
0
6
CONTINUOUS
10
209.0096481
20
-50.0168435
40
1.2
0
CIRCLE
8
0
6
CONTINUOUS
10
114.5082262
20
-40.6066986
40
1.2
0
CIRCLE
8
0
6
CONTINUOUS
10
189.2322938
20
-40.6066986
40
1.2
0
CIRCLE
8
0
6
CONTINUOUS
10
117.0082628
20
-110.1697273
40
1.2
0
CIRCLE
8
0
6
CONTINUOUS
10
186.7322572
20
-110.1697273
40
1.2
0
CIRCLE
8
0
6
CONTINUOUS
10
151.87026
20
-77.7150461
40
1.2
0
CIRCLE
8
0
6
CONTINUOUS
10
151.87026
20
-144.2150461
40
1.2
0
ARC
8
0
6
CONTINUOUS
10
55.3593613
20
-107.0375597
40
1
50
260
51
350
0
LINE
8
0
6
CONTINUOUS
10
56.3441691
20
-107.2112079
11
58.4279472
21
-95.3935148
0
ARC
8
0
6
CONTINUOUS
10
57.4431395
20
-95.2198666
40
1
50
350
51
80
0
ARC
8
0
6
CONTINUOUS
10
44.6406387
20
-92.9624403
40
1
50
80
51
170
0
LINE
8
0
6
CONTINUOUS
10
43.6558309
20
-92.7887921
11
41.5720528
21
-104.6064852
0
ARC
8
0
6
CONTINUOUS
10
42.5568605
20
-104.7801334
40
1
50
170
51
260
0
ARC
8
0
6
CONTINUOUS
10
58.6586767
20
-88.3262124
40
1
50
260
51
350
0
LINE
8
0
6
CONTINUOUS
10
59.6434845
20
-88.4998606
11
61.7272626
21
-76.6821675
0
ARC
8
0
6
CONTINUOUS
10
60.7424549
20
-76.5085193
40
1
50
350
51
80
0
ARC
8
0
6
CONTINUOUS
10
47.9399541
20
-74.251093
40
1
50
80
51
170
0
LINE
8
0
6
CONTINUOUS
10
46.9551463
20
-74.0774448
11
44.8713682
21
-85.8951379
0
ARC
8
0
6
CONTINUOUS
10
45.8561759
20
-86.0687861
40
1
50
170
51
260
0
ARC
8
0
6
CONTINUOUS
10
64.998469
20
-67.9338639
40
1
50
255
51
345
0
LINE
8
0
6
CONTINUOUS
10
65.9643948
20
-68.1926829
11
69.0702234
21
-56.601573
0
ARC
8
0
6
CONTINUOUS
10
68.1042975
20
-56.3427539
40
1
50
345
51
75
0
ARC
8
0
6
CONTINUOUS
10
55.5472618
20
-52.9781063
40
1
50
75
51
165
0
LINE
8
0
6
CONTINUOUS
10
54.581336
20
-52.7192873
11
51.4755074
21
-64.3103972
0
ARC
8
0
6
CONTINUOUS
10
52.4414333
20
-64.5692163
40
1
50
165
51
255
0
ARC
8
0
6
CONTINUOUS
10
76.5720619
20
-98.4679284
40
1
50
255
51
345
0
LINE
8
0
6
CONTINUOUS
10
77.5379877
20
-98.7267474
11
80.6438163
21
-87.1356375
0
ARC
8
0
6
CONTINUOUS
10
79.6778904
20
-86.8768184
40
1
50
345
51
75
0
ARC
8
0
6
CONTINUOUS
10
67.1208547
20
-83.5121708
40
1
50
75
51
165
0
LINE
8
0
6
CONTINUOUS
10
66.1549289
20
-83.2533518
11
63.0491003
21
-94.8444617
0
ARC
8
0
6
CONTINUOUS
10
64.0150262
20
-95.1032808
40
1
50
165
51
255
0
ARC
8
0
6
CONTINUOUS
10
81.4896238
20
-80.1153377
40
1
50
255
51
345
0
LINE
8
0
6
CONTINUOUS
10
82.4555496
20
-80.3741567
11
85.5613782
21
-68.7830468
0
ARC
8
0
6
CONTINUOUS
10
84.5954523
20
-68.5242277
40
1
50
345
51
75
0
ARC
8
0
6
CONTINUOUS
10
72.0384166
20
-65.1595801
40
1
50
75
51
165
0
LINE
8
0
6
CONTINUOUS
10
71.0724908
20
-64.9007611
11
67.9666622
21
-76.491871
0
ARC
8
0
6
CONTINUOUS
10
68.9325881
20
-76.7506901
40
1
50
165
51
255
0
ARC
8
0
6
CONTINUOUS
10
86.4071857
20
-61.762747
40
1
50
255
51
345
0
LINE
8
0
6
CONTINUOUS
10
87.3731115
20
-62.021566
11
90.4789401
21
-50.4304561
0
ARC
8
0
6
CONTINUOUS
10
89.5130142
20
-50.171637
40
1
50
345
51
75
0
ARC
8
0
6
CONTINUOUS
10
76.9559785
20
-46.8069894
40
1
50
75
51
165
0
LINE
8
0
6
CONTINUOUS
10
75.9900527
20
-46.5481704
11
72.8842241
21
-58.1392803
0
ARC
8
0
6
CONTINUOUS
10
73.85015
20
-58.3980994
40
1
50
165
51
255
0
ARC
8
0
6
CONTINUOUS
10
97.4478147
20
-94.7893052
40
1
50
250
51
340
0
LINE
8
0
6
CONTINUOUS
10
98.3875073
20
-95.1313253
11
102.491749
21
-83.8550139
0
ARC
8
0
6
CONTINUOUS
10
101.5520564
20
-83.5129937
40
1
50
340
51
70
0
ARC
8
0
6
CONTINUOUS
10
89.3360523
20
-79.0667318
40
1
50
70
51
160
0
LINE
8
0
6
CONTINUOUS
10
88.3963597
20
-78.7247117
11
84.292118
21
-90.0010231
0
ARC
8
0
6
CONTINUOUS
10
85.2318106
20
-90.3430433
40
1
50
160
51
250
0
ARC
8
0
6
CONTINUOUS
10
103.9461974
20
-76.9351454
40
1
50
250
51
340
0
LINE
8
0
6
CONTINUOUS
10
104.88589
20
-77.2771655
11
108.9901317
21
-66.0008541
0
ARC
8
0
6
CONTINUOUS
10
108.0504391
20
-65.6588339
40
1
50
340
51
70
0
ARC
8
0
6
CONTINUOUS
10
95.834435
20
-61.212572
40
1
50
70
51
160
0
LINE
8
0
6
CONTINUOUS
10
94.8947424
20
-60.8705519
11
90.7905007
21
-72.1468633
0
ARC
8
0
6
CONTINUOUS
10
91.7301933
20
-72.4888835
40
1
50
160
51
250
0
ARC
8
0
6
CONTINUOUS
10
110.4445801
20
-59.0809856
40
1
50
250
51
340
0
LINE
8
0
6
CONTINUOUS
10
111.3842727
20
-59.4230057
11
115.4885144
21
-48.1466943
0
ARC
8
0
6
CONTINUOUS
10
114.5488218
20
-47.8046741
40
1
50
340
51
70
0
ARC
8
0
6
CONTINUOUS
10
102.3328177
20
-43.3584122
40
1
50
70
51
160
0
LINE
8
0
6
CONTINUOUS
10
101.3931251
20
-43.0163921
11
97.2888834
21
-54.2927035
0
ARC
8
0
6
CONTINUOUS
10
98.228576
20
-54.6347237
40
1
50
160
51
250
0
ARC
8
0
6
CONTINUOUS
10
111.7060184
20
-110.3842006
40
1
50
247.5
51
337.5
0
LINE
8
0
6
CONTINUOUS
10
112.6298979
20
-110.766884
11
117.2220991
21
-99.6803296
0
ARC
8
0
6
CONTINUOUS
10
116.2982196
20
-99.2976462
40
1
50
337.5
51
67.5
0
ARC
8
0
6
CONTINUOUS
10
104.2877856
20
-94.3227616
40
1
50
67.5
51
157.5
0
LINE
8
0
6
CONTINUOUS
10
103.3639061
20
-93.9400782
11
98.7717049
21
-105.0266326
0
ARC
8
0
6
CONTINUOUS
10
99.6955844
20
-105.409316
40
1
50
157.5
51
247.5
0
ARC
8
0
6
CONTINUOUS
10
118.9770036
20
-92.8304895
40
1
50
247.5
51
337.5
0
LINE
8
0
6
CONTINUOUS
10
119.9008831
20
-93.2131729
11
124.4930843
21
-82.1266185
0
ARC
8
0
6
CONTINUOUS
10
123.5692048
20
-81.7439351
40
1
50
337.5
51
67.5
0
ARC
8
0
6
CONTINUOUS
10
111.5587708
20
-76.7690505
40
1
50
67.5
51
157.5
0
LINE
8
0
6
CONTINUOUS
10
110.6348913
20
-76.3863671
11
106.0426901
21
-87.4729215
0
ARC
8
0
6
CONTINUOUS
10
106.9665696
20
-87.8556049
40
1
50
157.5
51
247.5
0
ARC
8
0
6
CONTINUOUS
10
126.2479888
20
-75.2767784
40
1
50
247.5
51
337.5
0
LINE
8
0
6
CONTINUOUS
10
127.1718683
20
-75.6594618
11
131.7640695
21
-64.5729074
0
ARC
8
0
6
CONTINUOUS
10
130.84019
20
-64.190224
40
1
50
337.5
51
67.5
0
ARC
8
0
6
CONTINUOUS
10
118.829756
20
-59.2153394
40
1
50
67.5
51
157.5
0
LINE
8
0
6
CONTINUOUS
10
117.9058765
20
-58.832656
11
113.3136753
21
-69.9192104
0
ARC
8
0
6
CONTINUOUS
10
114.2375548
20
-70.3018938
40
1
50
157.5
51
247.5
0
ARC
8
0
6
CONTINUOUS
10
131.6833912
20
-111.8039488
40
1
50
247.5
51
337.5
0
LINE
8
0
6
CONTINUOUS
10
132.6072707
20
-112.1866322
11
137.1994719
21
-101.1000778
0
ARC
8
0
6
CONTINUOUS
10
136.2755924
20
-100.7173944
40
1
50
337.5
51
67.5
0
ARC
8
0
6
CONTINUOUS
10
124.2651584
20
-95.7425098
40
1
50
67.5
51
157.5
0
LINE
8
0
6
CONTINUOUS
10
123.3412789
20
-95.3598264
11
118.7490777
21
-106.4463808
0
ARC
8
0
6
CONTINUOUS
10
119.6729572
20
-106.8290642
40
1
50
157.5
51
247.5
0
ARC
8
0
6
CONTINUOUS
10
138.9543764
20
-94.2502377
40
1
50
247.5
51
337.5
0
LINE
8
0
6
CONTINUOUS
10
139.8782559
20
-94.6329211
11
144.4704571
21
-83.5463667
0
ARC
8
0
6
CONTINUOUS
10
143.5465776
20
-83.1636833
40
1
50
337.5
51
67.5
0
ARC
8
0
6
CONTINUOUS
10
131.5361436
20
-78.1887987
40
1
50
67.5
51
157.5
0
LINE
8
0
6
CONTINUOUS
10
130.6122641
20
-77.8061153
11
126.0200629
21
-88.8926697
0
ARC
8
0
6
CONTINUOUS
10
126.9439424
20
-89.2753531
40
1
50
157.5
51
247.5
0
ARC
8
0
6
CONTINUOUS
10
261.1836595
20
-104.7801334
40
1
50
280
51
10
0
LINE
8
0
6
CONTINUOUS
10
262.1684672
20
-104.6064852
11
260.0846891
21
-92.7887921
0
ARC
8
0
6
CONTINUOUS
10
259.0998813
20
-92.9624403
40
1
50
10
51
100
0
ARC
8
0
6
CONTINUOUS
10
246.2973805
20
-95.2198666
40
1
50
100
51
190
0
LINE
8
0
6
CONTINUOUS
10
245.3125728
20
-95.3935148
11
247.3963509
21
-107.2112079
0
ARC
8
0
6
CONTINUOUS
10
248.3811587
20
-107.0375597
40
1
50
190
51
280
0
ARC
8
0
6
CONTINUOUS
10
257.8843441
20
-86.0687861
40
1
50
280
51
10
0
LINE
8
0
6
CONTINUOUS
10
258.8691518
20
-85.8951379
11
256.7853737
21
-74.0774448
0
ARC
8
0
6
CONTINUOUS
10
255.8005659
20
-74.251093
40
1
50
10
51
100
0
ARC
8
0
6
CONTINUOUS
10
242.9980651
20
-76.5085193
40
1
50
100
51
190
0
LINE
8
0
6
CONTINUOUS
10
242.0132574
20
-76.6821675
11
244.0970355
21
-88.4998606
0
ARC
8
0
6
CONTINUOUS
10
245.0818433
20
-88.3262124
40
1
50
190
51
280
0
ARC
8
0
6
CONTINUOUS
10
251.2990867
20
-64.5692163
40
1
50
285
51
15
0
LINE
8
0
6
CONTINUOUS
10
252.2650126
20
-64.3103972
11
249.159184
21
-52.7192873
0
ARC
8
0
6
CONTINUOUS
10
248.1932582
20
-52.9781063
40
1
50
15
51
105
0
ARC
8
0
6
CONTINUOUS
10
235.6362225
20
-56.3427539
40
1
50
105
51
195
0
LINE
8
0
6
CONTINUOUS
10
234.6702966
20
-56.601573
11
237.7761252
21
-68.1926829
0
ARC
8
0
6
CONTINUOUS
10
238.742051
20
-67.9338639
40
1
50
195
51
285
0
ARC
8
0
6
CONTINUOUS
10
239.7254938
20
-95.1032808
40
1
50
285
51
15
0
LINE
8
0
6
CONTINUOUS
10
240.6914197
20
-94.8444617
11
237.5855911
21
-83.2533518
0
ARC
8
0
6
CONTINUOUS
10
236.6196653
20
-83.5121708
40
1
50
15
51
105
0
ARC
8
0
6
CONTINUOUS
10
224.0626296
20
-86.8768184
40
1
50
105
51
195
0
LINE
8
0
6
CONTINUOUS
10
223.0967037
20
-87.1356375
11
226.2025323
21
-98.7267474
0
ARC
8
0
6
CONTINUOUS
10
227.1684581
20
-98.4679284
40
1
50
195
51
285
0
ARC
8
0
6
CONTINUOUS
10
234.8079319
20
-76.7506901
40
1
50
285
51
15
0
LINE
8
0
6
CONTINUOUS
10
235.7738578
20
-76.491871
11
232.6680292
21
-64.9007611
0
ARC
8
0
6
CONTINUOUS
10
231.7021034
20
-65.1595801
40
1
50
15
51
105
0
ARC
8
0
6
CONTINUOUS
10
219.1450677
20
-68.5242277
40
1
50
105
51
195
0
LINE
8
0
6
CONTINUOUS
10
218.1791418
20
-68.7830468
11
221.2849704
21
-80.3741567
0
ARC
8
0
6
CONTINUOUS
10
222.2508962
20
-80.1153377
40
1
50
195
51
285
0
ARC
8
0
6
CONTINUOUS
10
229.89037
20
-58.3980994
40
1
50
285
51
15
0
LINE
8
0
6
CONTINUOUS
10
230.8562959
20
-58.1392803
11
227.7504673
21
-46.5481704
0
ARC
8
0
6
CONTINUOUS
10
226.7845415
20
-46.8069894
40
1
50
15
51
105
0
ARC
8
0
6
CONTINUOUS
10
214.2275058
20
-50.171637
40
1
50
105
51
195
0
LINE
8
0
6
CONTINUOUS
10
213.2615799
20
-50.4304561
11
216.3674085
21
-62.021566
0
ARC
8
0
6
CONTINUOUS
10
217.3333343
20
-61.762747
40
1
50
195
51
285
0
ARC
8
0
6
CONTINUOUS
10
218.5087094
20
-90.3430433
40
1
50
290
51
20
0
LINE
8
0
6
CONTINUOUS
10
219.448402
20
-90.0010231
11
215.3441603
21
-78.7247117
0
ARC
8
0
6
CONTINUOUS
10
214.4044677
20
-79.0667318
40
1
50
20
51
110
0
ARC
8
0
6
CONTINUOUS
10
202.1884636
20
-83.5129937
40
1
50
110
51
200
0
LINE
8
0
6
CONTINUOUS
10
201.248771
20
-83.8550139
11
205.3530127
21
-95.1313253
0
ARC
8
0
6
CONTINUOUS
10
206.2927053
20
-94.7893052
40
1
50
200
51
290
0
ARC
8
0
6
CONTINUOUS
10
212.0103267
20
-72.4888835
40
1
50
290
51
20
0
LINE
8
0
6
CONTINUOUS
10
212.9500193
20
-72.1468633
11
208.8457776
21
-60.8705519
0
ARC
8
0
6
CONTINUOUS
10
207.906085
20
-61.212572
40
1
50
20
51
110
0
ARC
8
0
6
CONTINUOUS
10
195.6900809
20
-65.6588339
40
1
50
110
51
200
0
LINE
8
0
6
CONTINUOUS
10
194.7503883
20
-66.0008541
11
198.85463
21
-77.2771655
0
ARC
8
0
6
CONTINUOUS
10
199.7943226
20
-76.9351454
40
1
50
200
51
290
0
ARC
8
0
6
CONTINUOUS
10
205.511944
20
-54.6347237
40
1
50
290
51
20
0
LINE
8
0
6
CONTINUOUS
10
206.4516366
20
-54.2927035
11
202.3473949
21
-43.0163921
0
ARC
8
0
6
CONTINUOUS
10
201.4077023
20
-43.3584122
40
1
50
20
51
110
0
ARC
8
0
6
CONTINUOUS
10
189.1916982
20
-47.8046741
40
1
50
110
51
200
0
LINE
8
0
6
CONTINUOUS
10
188.2520056
20
-48.1466943
11
192.3562473
21
-59.4230057
0
ARC
8
0
6
CONTINUOUS
10
193.2959399
20
-59.0809856
40
1
50
200
51
290
0
ARC
8
0
6
CONTINUOUS
10
204.0449356
20
-105.409316
40
1
50
292.5
51
22.5
0
LINE
8
0
6
CONTINUOUS
10
204.9688151
20
-105.0266326
11
200.3766139
21
-93.9400782
0
ARC
8
0
6
CONTINUOUS
10
199.4527344
20
-94.3227616
40
1
50
22.5
51
112.5
0
ARC
8
0
6
CONTINUOUS
10
187.4423004
20
-99.2976462
40
1
50
112.5
51
202.5
0
LINE
8
0
6
CONTINUOUS
10
186.5184209
20
-99.6803296
11
191.1106221
21
-110.766884
0
ARC
8
0
6
CONTINUOUS
10
192.0345016
20
-110.3842006
40
1
50
202.5
51
292.5
0
ARC
8
0
6
CONTINUOUS
10
196.7739504
20
-87.8556049
40
1
50
292.5
51
22.5
0
LINE
8
0
6
CONTINUOUS
10
197.6978299
20
-87.4729215
11
193.1056287
21
-76.3863671
0
ARC
8
0
6
CONTINUOUS
10
192.1817492
20
-76.7690505
40
1
50
22.5
51
112.5
0
ARC
8
0
6
CONTINUOUS
10
180.1713152
20
-81.7439351
40
1
50
112.5
51
202.5
0
LINE
8
0
6
CONTINUOUS
10
179.2474357
20
-82.1266185
11
183.8396369
21
-93.2131729
0
ARC
8
0
6
CONTINUOUS
10
184.7635164
20
-92.8304895
40
1
50
202.5
51
292.5
0
ARC
8
0
6
CONTINUOUS
10
189.5029652
20
-70.3018938
40
1
50
292.5
51
22.5
0
LINE
8
0
6
CONTINUOUS
10
190.4268447
20
-69.9192104
11
185.8346435
21
-58.832656
0
ARC
8
0
6
CONTINUOUS
10
184.910764
20
-59.2153394
40
1
50
22.5
51
112.5
0
ARC
8
0
6
CONTINUOUS
10
172.90033
20
-64.190224
40
1
50
112.5
51
202.5
0
LINE
8
0
6
CONTINUOUS
10
171.9764505
20
-64.5729074
11
176.5686517
21
-75.6594618
0
ARC
8
0
6
CONTINUOUS
10
177.4925312
20
-75.2767784
40
1
50
202.5
51
292.5
0
ARC
8
0
6
CONTINUOUS
10
184.0675628
20
-106.8290642
40
1
50
292.5
51
22.5
0
LINE
8
0
6
CONTINUOUS
10
184.9914423
20
-106.4463808
11
180.3992411
21
-95.3598264
0
ARC
8
0
6
CONTINUOUS
10
179.4753616
20
-95.7425098
40
1
50
22.5
51
112.5
0
ARC
8
0
6
CONTINUOUS
10
167.4649276
20
-100.7173944
40
1
50
112.5
51
202.5
0
LINE
8
0
6
CONTINUOUS
10
166.5410481
20
-101.1000778
11
171.1332493
21
-112.1866322
0
ARC
8
0
6
CONTINUOUS
10
172.0571288
20
-111.8039488
40
1
50
202.5
51
292.5
0
ARC
8
0
6
CONTINUOUS
10
176.7965776
20
-89.2753531
40
1
50
292.5
51
22.5
0
LINE
8
0
6
CONTINUOUS
10
177.7204571
20
-88.8926697
11
173.1282559
21
-77.8061153
0
ARC
8
0
6
CONTINUOUS
10
172.2043764
20
-78.1887987
40
1
50
22.5
51
112.5
0
ARC
8
0
6
CONTINUOUS
10
160.1939424
20
-83.1636833
40
1
50
112.5
51
202.5
0
LINE
8
0
6
CONTINUOUS
10
159.2700629
20
-83.5463667
11
163.8622641
21
-94.6329211
0
ARC
8
0
6
CONTINUOUS
10
164.7861436
20
-94.2502377
40
1
50
202.5
51
292.5
0
ARC
8
0
6
CONTINUOUS
10
136.1331809
20
-144.3821154
40
1
50
232.5
51
322.5
0
LINE
8
0
6
CONTINUOUS
10
136.9265343
20
-144.9908769
11
144.2316714
21
-135.4706368
0
ARC
8
0
6
CONTINUOUS
10
143.4383181
20
-134.8618753
40
1
50
322.5
51
52.5
0
ARC
8
0
6
CONTINUOUS
10
133.1247247
20
-126.9479768
40
1
50
52.5
51
142.5
0
LINE
8
0
6
CONTINUOUS
10
132.3313713
20
-126.3392153
11
125.0262342
21
-135.8594554
0
ARC
8
0
6
CONTINUOUS
10
125.8195875
20
-136.4682169
40
1
50
142.5
51
232.5
0
ARC
8
0
6
CONTINUOUS
10
177.9209325
20
-136.4682169
40
1
50
307.5
51
37.5
0
LINE
8
0
6
CONTINUOUS
10
178.7142858
20
-135.8594554
11
171.4091487
21
-126.3392153
0
ARC
8
0
6
CONTINUOUS
10
170.6157953
20
-126.9479768
40
1
50
37.5
51
127.5
0
ARC
8
0
6
CONTINUOUS
10
160.3022019
20
-134.8618753
40
1
50
127.5
51
217.5
0
LINE
8
0
6
CONTINUOUS
10
159.5088486
20
-135.4706368
11
166.8139857
21
-144.9908769
0
ARC
8
0
6
CONTINUOUS
10
167.6073391
20
-144.3821154
40
1
50
217.5
51
307.5
0
LINE
8
0
6
CONTINUOUS
10
145.67026
20
-123.3150461
11
147.82026
21
-123.3150461
0
LINE
8
0
6
CONTINUOUS
10
147.82026
20
-123.3150461
11
147.82026
21
-123.5150461
0
ARC
8
0
6
CONTINUOUS
10
148.82026
20
-123.5150461
40
1
50
180
51
270
0
LINE
8
0
6
CONTINUOUS
10
148.82026
20
-124.5150461
11
154.92026
21
-124.5150461
0
ARC
8
0
6
CONTINUOUS
10
154.92026
20
-123.5150461
40
1
50
270
51
360
0
LINE
8
0
6
CONTINUOUS
10
155.92026
20
-123.5150461
11
155.92026
21
-123.3150461
0
LINE
8
0
6
CONTINUOUS
10
155.92026
20
-123.3150461
11
158.07026
21
-123.3150461
0
ARC
8
0
6
CONTINUOUS
10
158.07026
20
-122.3150461
40
1
50
270
51
360
0
LINE
8
0
6
CONTINUOUS
10
159.07026
20
-122.3150461
11
159.07026
21
-109.1150461
0
ARC
8
0
6
CONTINUOUS
10
158.07026
20
-109.1150461
40
1
50
0
51
90
0
LINE
8
0
6
CONTINUOUS
10
158.07026
20
-108.1150461
11
145.67026
21
-108.1150461
0
ARC
8
0
6
CONTINUOUS
10
145.67026
20
-109.1150461
40
1
50
90
51
180
0
LINE
8
0
6
CONTINUOUS
10
144.67026
20
-109.1150461
11
144.67026
21
-122.3150461
0
ARC
8
0
6
CONTINUOUS
10
145.67026
20
-122.3150461
40
1
50
180
51
270
0
LINE
8
0
6
CONTINUOUS
10
138.87026
20
-75.2196989
11
164.87026
21
-75.2196989
0
ARC
8
0
6
CONTINUOUS
10
164.87026
20
-74.2196989
40
1
50
270
51
360
0
LINE
8
0
6
CONTINUOUS
10
165.87026
20
-74.2196989
11
165.87026
21
-43.2196989
0
ARC
8
0
6
CONTINUOUS
10
164.87026
20
-43.2196989
40
1
50
0
51
90
0
LINE
8
0
6
CONTINUOUS
10
164.87026
20
-42.2196989
11
138.87026
21
-42.2196989
0
ARC
8
0
6
CONTINUOUS
10
138.87026
20
-43.2196989
40
1
50
90
51
180
0
LINE
8
0
6
CONTINUOUS
10
137.87026
20
-43.2196989
11
137.87026
21
-74.2196989
0
ARC
8
0
6
CONTINUOUS
10
138.87026
20
-74.2196989
40
1
50
180
51
270
0
LINE
8
0
6
CONTINUOUS
10
174.6986871
20
-53.7196989
11
179.87026
21
-53.7196989
0
ARC
8
0
6
CONTINUOUS
10
179.87026
20
-52.7196989
40
1
50
270
51
0
0
LINE
8
0
6
CONTINUOUS
10
180.87026
20
-52.7196989
11
180.87026
21
-46.7196989
0
ARC
8
0
6
CONTINUOUS
10
179.87026
20
-46.7196989
40
1
50
0
51
90
0
LINE
8
0
6
CONTINUOUS
10
179.87026
20
-45.7196989
11
174.6986871
21
-45.7196989
0
ARC
8
0
6
CONTINUOUS
10
161.87026
20
-52.7196989
40
3
50
180
51
270
0
LINE
8
0
6
CONTINUOUS
10
161.87026
20
-55.7196989
11
171.87026
21
-55.7196989
0
ARC
8
0
6
CONTINUOUS
10
171.87026
20
-52.7196989
40
3
50
270
51
340.5287792
0
ARC
8
0
6
CONTINUOUS
10
171.87026
20
-46.7196989
40
3
50
19.4712208
51
90
0
LINE
8
0
6
CONTINUOUS
10
171.87026
20
-43.7196989
11
161.87026
21
-43.7196989
0
ARC
8
0
6
CONTINUOUS
10
161.87026
20
-46.7196989
40
3
50
90
51
180
0
LINE
8
0
6
CONTINUOUS
10
150.87026
20
-48.7196989
11
150.87026
21
-50.7196989
0
ARC
8
0
6
CONTINUOUS
10
152.87026
20
-50.7196989
40
2
50
180
51
270
0
LINE
8
0
6
CONTINUOUS
10
152.87026
20
-52.7196989
11
158.87026
21
-52.7196989
0
LINE
8
0
6
CONTINUOUS
10
158.87026
20
-46.7196989
11
152.87026
21
-46.7196989
0
ARC
8
0
6
CONTINUOUS
10
152.87026
20
-48.7196989
40
2
50
90
51
180
0
LINE
8
0
6
CONTINUOUS
10
139.37026
20
-44.5696989
11
152.37026
21
-44.5696989
0
LINE
8
0
6
CONTINUOUS
10
150.62026
20
-44.5696989
11
150.62026
21
-36.0696989
0
LINE
8
0
6
CONTINUOUS
10
150.62026
20
-36.0696989
11
141.12026
21
-36.0696989
0
LINE
8
0
6
CONTINUOUS
10
141.12026
20
-36.0696989
11
141.12026
21
-44.5696989
0
LINE
8
0
6
CONTINUOUS
10
139.37026
20
-56.5696989
11
152.37026
21
-56.5696989
0
LINE
8
0
6
CONTINUOUS
10
152.37026
20
-56.5696989
11
152.37026
21
-44.5696989
0
LINE
8
0
6
CONTINUOUS
10
139.37026
20
-44.5696989
11
139.37026
21
-56.5696989
0
LINE
8
0
6
CONTINUOUS
10
51.6818028
20
-71.8899878
11
54.0945818
21
-72.3154258
0
LINE
8
0
6
CONTINUOUS
10
54.0945818
20
-72.3154258
11
54.0951441
21
-72.3122372
0
LINE
8
0
6
CONTINUOUS
10
54.8320243
20
-68.1331814
11
54.8325866
21
-68.1299928
0
LINE
8
0
6
CONTINUOUS
10
54.8325866
20
-68.1299928
11
52.4198076
21
-67.7045548
0
LINE
8
0
6
CONTINUOUS
10
52.4198076
20
-67.7045548
11
52.4192453
21
-67.7077434
0
LINE
8
0
6
CONTINUOUS
10
51.6823651
20
-71.8867992
11
51.6818028
21
-71.8899878
0
LINE
8
0
6
CONTINUOUS
10
54.0976243
20
-72.3143184
11
55.672454
21
-70.4375096
0
LINE
8
0
6
CONTINUOUS
10
55.672454
20
-70.4375096
11
55.6699737
21
-70.4354283
0
LINE
8
0
6
CONTINUOUS
10
52.4192453
20
-67.7077434
11
52.4167651
21
-67.7056622
0
LINE
8
0
6
CONTINUOUS
10
52.4167651
20
-67.7056622
11
50.8419354
21
-69.582471
0
LINE
8
0
6
CONTINUOUS
10
50.8419354
20
-69.582471
11
50.8444157
21
-69.5845523
0
LINE
8
0
6
CONTINUOUS
10
54.0951441
20
-72.3122372
11
54.0976243
21
-72.3143184
0
LINE
8
0
6
CONTINUOUS
10
50.8413732
20
-69.5856597
11
51.6793225
21
-71.8879065
0
LINE
8
0
6
CONTINUOUS
10
51.6793225
20
-71.8879065
11
51.6823651
21
-71.8867992
0
LINE
8
0
6
CONTINUOUS
10
55.6699737
20
-70.4354283
11
55.6730162
21
-70.4343209
0
LINE
8
0
6
CONTINUOUS
10
55.6730162
20
-70.4343209
11
54.8350669
21
-68.1320741
0
LINE
8
0
6
CONTINUOUS
10
54.8350669
20
-68.1320741
11
54.8320243
21
-68.1331814
0
LINE
8
0
6
CONTINUOUS
10
50.8444157
20
-69.5845523
11
50.8413732
21
-69.5856597
0
LINE
8
0
6
CONTINUOUS
10
249.6459382
20
-72.3154258
11
252.0587172
21
-71.8899878
0
LINE
8
0
6
CONTINUOUS
10
252.0587172
20
-71.8899878
11
252.0581549
21
-71.8867992
0
LINE
8
0
6
CONTINUOUS
10
251.3212747
20
-67.7077434
11
251.3207124
21
-67.7045548
0
LINE
8
0
6
CONTINUOUS
10
251.3207124
20
-67.7045548
11
248.9079334
21
-68.1299928
0
LINE
8
0
6
CONTINUOUS
10
248.9079334
20
-68.1299928
11
248.9084957
21
-68.1331814
0
LINE
8
0
6
CONTINUOUS
10
249.6453759
20
-72.3122372
11
249.6459382
21
-72.3154258
0
LINE
8
0
6
CONTINUOUS
10
252.0611975
20
-71.8879065
11
252.8991468
21
-69.5856597
0
LINE
8
0
6
CONTINUOUS
10
252.8991468
20
-69.5856597
11
252.8961043
21
-69.5845523
0
LINE
8
0
6
CONTINUOUS
10
248.9084957
20
-68.1331814
11
248.9054531
21
-68.1320741
0
LINE
8
0
6
CONTINUOUS
10
248.9054531
20
-68.1320741
11
248.0675038
21
-70.4343209
0
LINE
8
0
6
CONTINUOUS
10
248.0675038
20
-70.4343209
11
248.0705463
21
-70.4354283
0
LINE
8
0
6
CONTINUOUS
10
252.0581549
20
-71.8867992
11
252.0611975
21
-71.8879065
0
LINE
8
0
6
CONTINUOUS
10
248.068066
20
-70.4375096
11
249.6428957
21
-72.3143184
0
LINE
8
0
6
CONTINUOUS
10
249.6428957
20
-72.3143184
11
249.6453759
21
-72.3122372
0
LINE
8
0
6
CONTINUOUS
10
252.8961043
20
-69.5845523
11
252.8985846
21
-69.582471
0
LINE
8
0
6
CONTINUOUS
10
252.8985846
20
-69.582471
11
251.3237549
21
-67.7056622
0
LINE
8
0
6
CONTINUOUS
10
251.3237549
20
-67.7056622
11
251.3212747
21
-67.7077434
0
LINE
8
0
6
CONTINUOUS
10
248.0705463
20
-70.4354283
11
248.068066
21
-70.4375096
0
LINE
8
0
6
CONTINUOUS
10
46.7749504
20
-111.2356712
11
49.1877294
21
-111.6611092
0
LINE
8
0
6
CONTINUOUS
10
49.1877294
20
-111.6611092
11
49.1882917
21
-111.6579206
0
LINE
8
0
6
CONTINUOUS
10
49.9251719
20
-107.4788648
11
49.9257342
21
-107.4756762
0
LINE
8
0
6
CONTINUOUS
10
49.9257342
20
-107.4756762
11
47.5129552
21
-107.0502382
0
LINE
8
0
6
CONTINUOUS
10
47.5129552
20
-107.0502382
11
47.5123929
21
-107.0534268
0
LINE
8
0
6
CONTINUOUS
10
46.7755127
20
-111.2324826
11
46.7749504
21
-111.2356712
0
LINE
8
0
6
CONTINUOUS
10
49.1907719
20
-111.6600018
11
50.7656016
21
-109.783193
0
LINE
8
0
6
CONTINUOUS
10
50.7656016
20
-109.783193
11
50.7631213
21
-109.7811117
0
LINE
8
0
6
CONTINUOUS
10
47.5123929
20
-107.0534268
11
47.5099127
21
-107.0513456
0
LINE
8
0
6
CONTINUOUS
10
47.5099127
20
-107.0513456
11
45.935083
21
-108.9281544
0
LINE
8
0
6
CONTINUOUS
10
45.935083
20
-108.9281544
11
45.9375633
21
-108.9302357
0
LINE
8
0
6
CONTINUOUS
10
49.1882917
20
-111.6579206
11
49.1907719
21
-111.6600018
0
LINE
8
0
6
CONTINUOUS
10
45.9345208
20
-108.9313431
11
46.7724701
21
-111.2335899
0
LINE
8
0
6
CONTINUOUS
10
46.7724701
20
-111.2335899
11
46.7755127
21
-111.2324826
0
LINE
8
0
6
CONTINUOUS
10
50.7631213
20
-109.7811117
11
50.7661638
21
-109.7800043
0
LINE
8
0
6
CONTINUOUS
10
50.7661638
20
-109.7800043
11
49.9282145
21
-107.4777575
0
LINE
8
0
6
CONTINUOUS
10
49.9282145
20
-107.4777575
11
49.9251719
21
-107.4788648
0
LINE
8
0
6
CONTINUOUS
10
45.9375633
20
-108.9302357
11
45.9345208
21
-108.9313431
0
LINE
8
0
6
CONTINUOUS
10
254.5527906
20
-111.6611092
11
256.9655696
21
-111.2356712
0
LINE
8
0
6
CONTINUOUS
10
256.9655696
20
-111.2356712
11
256.9650073
21
-111.2324826
0
LINE
8
0
6
CONTINUOUS
10
256.2281271
20
-107.0534268
11
256.2275648
21
-107.0502382
0
LINE
8
0
6
CONTINUOUS
10
256.2275648
20
-107.0502382
11
253.8147858
21
-107.4756762
0
LINE
8
0
6
CONTINUOUS
10
253.8147858
20
-107.4756762
11
253.8153481
21
-107.4788648
0
LINE
8
0
6
CONTINUOUS
10
254.5522283
20
-111.6579206
11
254.5527906
21
-111.6611092
0
LINE
8
0
6
CONTINUOUS
10
256.9680499
20
-111.2335899
11
257.8059992
21
-108.9313431
0
LINE
8
0
6
CONTINUOUS
10
257.8059992
20
-108.9313431
11
257.8029567
21
-108.9302357
0
LINE
8
0
6
CONTINUOUS
10
253.8153481
20
-107.4788648
11
253.8123055
21
-107.4777575
0
LINE
8
0
6
CONTINUOUS
10
253.8123055
20
-107.4777575
11
252.9743562
21
-109.7800043
0
LINE
8
0
6
CONTINUOUS
10
252.9743562
20
-109.7800043
11
252.9773987
21
-109.7811117
0
LINE
8
0
6
CONTINUOUS
10
256.9650073
20
-111.2324826
11
256.9680499
21
-111.2335899
0
LINE
8
0
6
CONTINUOUS
10
252.9749184
20
-109.783193
11
254.5497481
21
-111.6600018
0
LINE
8
0
6
CONTINUOUS
10
254.5497481
20
-111.6600018
11
254.5522283
21
-111.6579206
0
LINE
8
0
6
CONTINUOUS
10
257.8029567
20
-108.9302357
11
257.805437
21
-108.9281544
0
LINE
8
0
6
CONTINUOUS
10
257.805437
20
-108.9281544
11
256.2306073
21
-107.0513456
0
LINE
8
0
6
CONTINUOUS
10
256.2306073
20
-107.0513456
11
256.2281271
21
-107.0534268
0
LINE
8
0
6
CONTINUOUS
10
252.9773987
20
-109.7811117
11
252.9749184
21
-109.783193
0
LINE
8
0
6
CONTINUOUS
10
92.9976223
20
-51.7523826
11
95.3641406
21
-52.3864892
0
LINE
8
0
6
CONTINUOUS
10
95.3641406
20
-52.3864892
11
95.3649786
21
-52.3833617
0
LINE
8
0
6
CONTINUOUS
10
96.4632835
20
-48.2844319
11
96.4641215
21
-48.2813044
0
LINE
8
0
6
CONTINUOUS
10
96.4641215
20
-48.2813044
11
94.0976032
21
-47.6471978
0
LINE
8
0
6
CONTINUOUS
10
94.0976032
20
-47.6471978
11
94.0967652
21
-47.6503253
0
LINE
8
0
6
CONTINUOUS
10
92.9984603
20
-51.7492551
11
92.9976223
21
-51.7523826
0
LINE
8
0
6
CONTINUOUS
10
95.367268
20
-52.3856512
11
97.0996796
21
-50.6532396
0
LINE
8
0
6
CONTINUOUS
10
97.0996796
20
-50.6532396
11
97.0973902
21
-50.6509502
0
LINE
8
0
6
CONTINUOUS
10
94.0967652
20
-47.6503253
11
94.0944758
21
-47.6480358
0
LINE
8
0
6
CONTINUOUS
10
94.0944758
20
-47.6480358
11
92.3620642
21
-49.3804474
0
LINE
8
0
6
CONTINUOUS
10
92.3620642
20
-49.3804474
11
92.3643536
21
-49.3827368
0
LINE
8
0
6
CONTINUOUS
10
95.3649786
20
-52.3833617
11
95.367268
21
-52.3856512
0
LINE
8
0
6
CONTINUOUS
10
92.3612262
20
-49.3835748
11
92.9953328
21
-51.7500931
0
LINE
8
0
6
CONTINUOUS
10
92.9953328
20
-51.7500931
11
92.9984603
21
-51.7492551
0
LINE
8
0
6
CONTINUOUS
10
97.0973902
20
-50.6509502
11
97.1005176
21
-50.6501122
0
LINE
8
0
6
CONTINUOUS
10
97.1005176
20
-50.6501122
11
96.466411
21
-48.2835939
0
LINE
8
0
6
CONTINUOUS
10
96.466411
20
-48.2835939
11
96.4632835
21
-48.2844319
0
LINE
8
0
6
CONTINUOUS
10
92.3643536
20
-49.3827368
11
92.3612262
21
-49.3835748
0
LINE
8
0
6
CONTINUOUS
10
208.3763794
20
-52.3864892
11
210.7428977
21
-51.7523826
0
LINE
8
0
6
CONTINUOUS
10
210.7428977
20
-51.7523826
11
210.7420597
21
-51.7492551
0
LINE
8
0
6
CONTINUOUS
10
209.6437548
20
-47.6503253
11
209.6429168
21
-47.6471978
0
LINE
8
0
6
CONTINUOUS
10
209.6429168
20
-47.6471978
11
207.2763985
21
-48.2813044
0
LINE
8
0
6
CONTINUOUS
10
207.2763985
20
-48.2813044
11
207.2772365
21
-48.2844319
0
LINE
8
0
6
CONTINUOUS
10
208.3755414
20
-52.3833617
11
208.3763794
21
-52.3864892
0
LINE
8
0
6
CONTINUOUS
10
210.7451872
20
-51.7500931
11
211.3792938
21
-49.3835748
0
LINE
8
0
6
CONTINUOUS
10
211.3792938
20
-49.3835748
11
211.3761664
21
-49.3827368
0
LINE
8
0
6
CONTINUOUS
10
207.2772365
20
-48.2844319
11
207.274109
21
-48.2835939
0
LINE
8
0
6
CONTINUOUS
10
207.274109
20
-48.2835939
11
206.6400024
21
-50.6501122
0
LINE
8
0
6
CONTINUOUS
10
206.6400024
20
-50.6501122
11
206.6431298
21
-50.6509502
0
LINE
8
0
6
CONTINUOUS
10
210.7420597
20
-51.7492551
11
210.7451872
21
-51.7500931
0
LINE
8
0
6
CONTINUOUS
10
206.6408404
20
-50.6532396
11
208.373252
21
-52.3856512
0
LINE
8
0
6
CONTINUOUS
10
208.373252
20
-52.3856512
11
208.3755414
21
-52.3833617
0
LINE
8
0
6
CONTINUOUS
10
211.3761664
20
-49.3827368
11
211.3784558
21
-49.3804474
0
LINE
8
0
6
CONTINUOUS
10
211.3784558
20
-49.3804474
11
209.6460442
21
-47.6480358
0
LINE
8
0
6
CONTINUOUS
10
209.6460442
20
-47.6480358
11
209.6437548
21
-47.6503253
0
LINE
8
0
6
CONTINUOUS
10
206.6431298
20
-50.6509502
11
206.6408404
21
-50.6532396
0
LINE
8
0
6
CONTINUOUS
10
114.7427869
20
-111.1098704
11
116.6865026
21
-112.6013359
0
LINE
8
0
6
CONTINUOUS
10
116.6865026
20
-112.6013359
11
116.6884736
21
-112.5987672
0
LINE
8
0
6
CONTINUOUS
10
119.2717676
20
-109.2321529
11
119.2737387
21
-109.2295842
0
LINE
8
0
6
CONTINUOUS
10
119.2737387
20
-109.2295842
11
117.330023
21
-107.7381187
0
LINE
8
0
6
CONTINUOUS
10
117.330023
20
-107.7381187
11
117.328052
21
-107.7406874
0
LINE
8
0
6
CONTINUOUS
10
114.744758
20
-111.1073017
11
114.7427869
21
-111.1098704
0
LINE
8
0
6
CONTINUOUS
10
116.6897127
20
-112.6017585
11
118.9532175
21
-111.6641841
0
LINE
8
0
6
CONTINUOUS
10
118.9532175
20
-111.6641841
11
118.9519785
21
-111.6611928
0
LINE
8
0
6
CONTINUOUS
10
117.328052
20
-107.7406874
11
117.3268129
21
-107.7376961
0
LINE
8
0
6
CONTINUOUS
10
117.3268129
20
-107.7376961
11
115.0633081
21
-108.6752705
0
LINE
8
0
6
CONTINUOUS
10
115.0633081
20
-108.6752705
11
115.0645471
21
-108.6782618
0
LINE
8
0
6
CONTINUOUS
10
116.6884736
20
-112.5987672
11
116.6897127
21
-112.6017585
0
LINE
8
0
6
CONTINUOUS
10
115.061337
20
-108.6778392
11
114.7415479
21
-111.1068791
0
LINE
8
0
6
CONTINUOUS
10
114.7415479
20
-111.1068791
11
114.744758
21
-111.1073017
0
LINE
8
0
6
CONTINUOUS
10
118.9519785
20
-111.6611928
11
118.9551886
21
-111.6616154
0
LINE
8
0
6
CONTINUOUS
10
118.9551886
20
-111.6616154
11
119.2749777
21
-109.2325755
0
LINE
8
0
6
CONTINUOUS
10
119.2749777
20
-109.2325755
11
119.2717676
21
-109.2321529
0
LINE
8
0
6
CONTINUOUS
10
115.0645471
20
-108.6782618
11
115.061337
21
-108.6778392
0
LINE
8
0
6
CONTINUOUS
10
187.0540174
20
-112.6013359
11
188.9977331
21
-111.1098704
0
LINE
8
0
6
CONTINUOUS
10
188.9977331
20
-111.1098704
11
188.995762
21
-111.1073017
0
LINE
8
0
6
CONTINUOUS
10
186.412468
20
-107.7406874
11
186.410497
21
-107.7381187
0
LINE
8
0
6
CONTINUOUS
10
186.410497
20
-107.7381187
11
184.4667813
21
-109.2295842
0
LINE
8
0
6
CONTINUOUS
10
184.4667813
20
-109.2295842
11
184.4687524
21
-109.2321529
0
LINE
8
0
6
CONTINUOUS
10
187.0520464
20
-112.5987672
11
187.0540174
21
-112.6013359
0
LINE
8
0
6
CONTINUOUS
10
188.9989721
20
-111.1068791
11
188.679183
21
-108.6778392
0
LINE
8
0
6
CONTINUOUS
10
188.679183
20
-108.6778392
11
188.6759729
21
-108.6782618
0
LINE
8
0
6
CONTINUOUS
10
184.4687524
20
-109.2321529
11
184.4655423
21
-109.2325755
0
LINE
8
0
6
CONTINUOUS
10
184.4655423
20
-109.2325755
11
184.7853314
21
-111.6616154
0
LINE
8
0
6
CONTINUOUS
10
184.7853314
20
-111.6616154
11
184.7885415
21
-111.6611928
0
LINE
8
0
6
CONTINUOUS
10
188.995762
20
-111.1073017
11
188.9989721
21
-111.1068791
0
LINE
8
0
6
CONTINUOUS
10
184.7873025
20
-111.6641841
11
187.0508073
21
-112.6017585
0
LINE
8
0
6
CONTINUOUS
10
187.0508073
20
-112.6017585
11
187.0520464
21
-112.5987672
0
LINE
8
0
6
CONTINUOUS
10
188.6759729
20
-108.6782618
11
188.6772119
21
-108.6752705
0
LINE
8
0
6
CONTINUOUS
10
188.6772119
20
-108.6752705
11
186.4137071
21
-107.7376961
0
LINE
8
0
6
CONTINUOUS
10
186.4137071
20
-107.7376961
11
186.412468
21
-107.7406874
0
LINE
8
0
6
CONTINUOUS
10
184.7885415
20
-111.6611928
11
184.7873025
21
-111.6641841
0
LINE
8
0
6
CONTINUOUS
10
150.64526
20
-146.3400461
11
153.09526
21
-146.3400461
0
LINE
8
0
6
CONTINUOUS
10
153.09526
20
-146.3400461
11
153.09526
21
-146.3368083
0
LINE
8
0
6
CONTINUOUS
10
153.09526
20
-142.0932839
11
153.09526
21
-142.0900461
0
LINE
8
0
6
CONTINUOUS
10
153.09526
20
-142.0900461
11
150.64526
21
-142.0900461
0
LINE
8
0
6
CONTINUOUS
10
150.64526
20
-142.0900461
11
150.64526
21
-142.0932839
0
LINE
8
0
6
CONTINUOUS
10
150.64526
20
-146.3368083
11
150.64526
21
-146.3400461
0
LINE
8
0
6
CONTINUOUS
10
153.098064
20
-146.3384272
11
154.323064
21
-144.216665
0
LINE
8
0
6
CONTINUOUS
10
154.323064
20
-144.216665
11
154.32026
21
-144.2150461
0
LINE
8
0
6
CONTINUOUS
10
150.64526
20
-142.0932839
11
150.642456
21
-142.091665
0
LINE
8
0
6
CONTINUOUS
10
150.642456
20
-142.091665
11
149.417456
21
-144.2134272
0
LINE
8
0
6
CONTINUOUS
10
149.417456
20
-144.2134272
11
149.42026
21
-144.2150461
0
LINE
8
0
6
CONTINUOUS
10
153.09526
20
-146.3368083
11
153.098064
21
-146.3384272
0
LINE
8
0
6
CONTINUOUS
10
149.417456
20
-144.216665
11
150.642456
21
-146.3384272
0
LINE
8
0
6
CONTINUOUS
10
150.642456
20
-146.3384272
11
150.64526
21
-146.3368083
0
LINE
8
0
6
CONTINUOUS
10
154.32026
20
-144.2150461
11
154.323064
21
-144.2134272
0
LINE
8
0
6
CONTINUOUS
10
154.323064
20
-144.2134272
11
153.098064
21
-142.091665
0
LINE
8
0
6
CONTINUOUS
10
153.098064
20
-142.091665
11
153.09526
21
-142.0932839
0
LINE
8
0
6
CONTINUOUS
10
149.42026
20
-144.2150461
11
149.417456
21
-144.216665
0
ENDSEC
0
EOF