0
SECTION
2
HEADER
9
$INSUNITS
70
4
0
ENDSEC
0
SECTION
2
TABLES
0
TABLE
2
LTYPE
0
LTYPE
72
65
70
0
2
CONTINUOUS
3
______
73
0
40
0
0
LTYPE
72
65
70
0
2
DASHED
3
_ _ _ 
73
2
40
7.5
49
5
49
-2.5
0
LTYPE
72
65
70
0
2
DOTTED
3
. . . 
73
2
40
1.5
49
0.5
49
-1
0
ENDTAB
0
TABLE
2
LAYER
0
ENDTAB
0
ENDSEC
0
SECTION
2
ENTITIES
0
LINE
8
0
6
CONTINUOUS
10
201.37026
20
-37.8903503
11
201.37026
21
-37.8738587
0
LINE
8
0
6
CONTINUOUS
10
201.37026
20
-37.8738587
11
174.02026
21
-37.8738587
0
LINE
8
0
6
CONTINUOUS
10
172.72026
20
-37.8738587
11
149.87026
21
-37.8738587
0
LINE
8
0
6
CONTINUOUS
10
141.87026
20
-37.8738587
11
102.37026
21
-37.8738587
0
LINE
8
0
6
CONTINUOUS
10
102.37026
20
-37.8738587
11
102.37026
21
-37.8903503
0
ARC
8
0
6
CONTINUOUS
10
151.87026
20
-125.6650461
40
30
50
228.5677801
51
311.4322199
0
LINE
8
0
6
CONTINUOUS
10
41.6017956
20
-110.196576
11
54.4042964
21
-112.4540023
0
ARC
8
0
6
CONTINUOUS
10
55.2725372
20
-107.5299635
40
5
50
260
51
350
0
LINE
8
0
6
CONTINUOUS
10
60.196576
20
-108.3982044
11
61.665695
21
-100.0664165
0
LINE
8
0
6
CONTINUOUS
10
37.5459977
20
-104.4042964
11
43.1027394
21
-72.8904483
0
ARC
8
0
6
CONTINUOUS
10
42.4700365
20
-105.2725372
40
5
50
170
51
260
0
LINE
8
0
6
CONTINUOUS
10
49.0801712
20
-68.8672977
11
48.895019
21
-68.8346504
0
ARC
8
0
6
CONTINUOUS
10
48.0267782
20
-73.7586892
40
5
50
80
51
170
0
ARC
8
0
6
CONTINUOUS
10
68.2337071
20
-55.859791
40
5
50
422.5019746
51
75
0
LINE
8
0
6
CONTINUOUS
10
69.5278023
20
-51.0301619
11
56.9707665
21
-47.6655143
0
ARC
8
0
6
CONTINUOUS
10
55.6766713
20
-52.4951434
40
5
50
75
51
165
0
LINE
8
0
6
CONTINUOUS
10
50.8470422
20
-51.2010482
11
47.4823946
21
-63.758084
0
ARC
8
0
6
CONTINUOUS
10
52.3120237
20
-65.0521792
40
5
50
165
51
229.731491
0
LINE
8
0
6
CONTINUOUS
10
62.5915214
20
-100.4158728
11
75.1485572
21
-103.7805204
0
ARC
8
0
6
CONTINUOUS
10
76.4426524
20
-98.9508913
40
5
50
255
51
345
0
LINE
8
0
6
CONTINUOUS
10
81.2722815
20
-100.2449865
11
82.6289912
21
-95.181677
0
ARC
8
0
6
CONTINUOUS
10
63.8856166
20
-95.5862437
40
5
50
243.641626
51
255
0
LINE
8
0
6
CONTINUOUS
10
87.5557785
20
-43.9531783
11
95.9744193
21
-46.2089463
0
LINE
8
0
6
CONTINUOUS
10
87.5548126
20
-43.9529195
11
78.3794832
21
-41.4943974
0
ARC
8
0
6
CONTINUOUS
10
77.085388
20
-46.3240265
40
5
50
75
51
165
0
LINE
8
0
6
CONTINUOUS
10
72.2557589
20
-45.0299313
11
70.5422973
21
-51.4246573
0
LINE
8
0
6
CONTINUOUS
10
83.3506998
20
-95.5113527
11
95.5667039
21
-99.9576146
0
ARC
8
0
6
CONTINUOUS
10
97.2768046
20
-95.2591515
40
5
50
250
51
260.4318651
0
ARC
8
0
6
CONTINUOUS
10
85.0608005
20
-90.8128896
40
5
50
240.8982635
51
250
0
ARC
8
0
6
CONTINUOUS
10
102.5038278
20
-42.8885659
40
5
50
91.5307564
51
160
0
LINE
8
0
6
CONTINUOUS
10
97.8053647
20
-41.1784652
11
95.9744193
21
-46.2089463
0
LINE
8
0
6
CONTINUOUS
10
97.5908256
20
-110.4906534
11
106.3667573
21
-114.1257633
0
LINE
8
0
6
CONTINUOUS
10
106.3676812
20
-114.126146
11
109.6012595
21
-115.465538
0
LINE
8
0
6
CONTINUOUS
10
106.3667573
20
-114.1257633
11
106.3676812
21
-114.126146
0
ARC
8
0
6
CONTINUOUS
10
111.5146767
20
-110.8461404
40
5
50
247.5
51
247.5114598
0
LINE
8
0
6
CONTINUOUS
10
96.4457028
20
-100.1895947
11
94.8848451
21
-103.9578386
0
ARC
8
0
6
CONTINUOUS
10
99.5042427
20
-105.8712558
40
5
50
157.5
51
247.5
0
LINE
8
0
6
CONTINUOUS
10
249.3362236
20
-112.4540023
11
262.1387244
21
-110.196576
0
ARC
8
0
6
CONTINUOUS
10
261.2704835
20
-105.2725372
40
5
50
280
51
10
0
LINE
8
0
6
CONTINUOUS
10
260.6377806
20
-72.8904483
11
266.1945223
21
-104.4042964
0
LINE
8
0
6
CONTINUOUS
10
242.074825
20
-100.0664165
11
243.543944
21
-108.3982044
0
ARC
8
0
6
CONTINUOUS
10
248.4679828
20
-107.5299635
40
5
50
190
51
280
0
ARC
8
0
6
CONTINUOUS
10
255.7137418
20
-73.7586892
40
5
50
10
51
100
0
LINE
8
0
6
CONTINUOUS
10
254.845501
20
-68.8346504
11
254.6603488
21
-68.8672977
0
ARC
8
0
6
CONTINUOUS
10
251.4284963
20
-65.0521792
40
5
50
310.268509
51
15
0
LINE
8
0
6
CONTINUOUS
10
256.2581254
20
-63.758084
11
252.8934778
21
-51.2010482
0
ARC
8
0
6
CONTINUOUS
10
248.0638487
20
-52.4951434
40
5
50
15
51
105
0
LINE
8
0
6
CONTINUOUS
10
246.7697535
20
-47.6655143
11
234.2127177
21
-51.0301619
0
ARC
8
0
6
CONTINUOUS
10
235.5068129
20
-55.859791
40
5
50
105
51
117.4980254
0
LINE
8
0
6
CONTINUOUS
10
228.5919628
20
-103.7805204
11
241.1489986
21
-100.4158728
0
ARC
8
0
6
CONTINUOUS
10
239.8549034
20
-95.5862437
40
5
50
285
51
296.358374
0
LINE
8
0
6
CONTINUOUS
10
221.1115288
20
-95.181677
11
222.4682385
21
-100.2449865
0
ARC
8
0
6
CONTINUOUS
10
227.2978676
20
-98.9508913
40
5
50
195
51
285
0
LINE
8
0
6
CONTINUOUS
10
233.1982227
20
-51.4246573
11
231.4847611
21
-45.0299313
0
ARC
8
0
6
CONTINUOUS
10
226.655132
20
-46.3240265
40
5
50
15
51
105
0
LINE
8
0
6
CONTINUOUS
10
225.3610368
20
-41.4943974
11
216.1857074
21
-43.9529195
0
LINE
8
0
6
CONTINUOUS
10
207.7661007
20
-46.2089463
11
216.1847415
21
-43.9531783
0
LINE
8
0
6
CONTINUOUS
10
208.1738161
20
-99.9576146
11
220.3898202
21
-95.5113527
0
ARC
8
0
6
CONTINUOUS
10
218.6797195
20
-90.8128896
40
5
50
290
51
299.1017365
0
ARC
8
0
6
CONTINUOUS
10
206.4637154
20
-95.2591515
40
5
50
279.5681349
51
290
0
LINE
8
0
6
CONTINUOUS
10
207.7661007
20
-46.2089463
11
205.9351553
21
-41.1784652
0
ARC
8
0
6
CONTINUOUS
10
201.2366922
20
-42.8885659
40
5
50
20
51
88.4692436
0
LINE
8
0
6
CONTINUOUS
10
194.1392605
20
-115.465538
11
197.3728388
21
-114.126146
0
LINE
8
0
6
CONTINUOUS
10
197.3737627
20
-114.1257633
11
206.1496944
21
-110.4906534
0
ARC
8
0
6
CONTINUOUS
10
204.2362773
20
-105.8712558
40
5
50
292.5
51
22.5
0
LINE
8
0
6
CONTINUOUS
10
208.8556749
20
-103.9578386
11
207.2948172
21
-100.1895947
0
ARC
8
0
6
CONTINUOUS
10
192.2258433
20
-110.8461404
40
5
50
292.4885402
51
292.5
0
LINE
8
0
6
CONTINUOUS
10
107.3976862
20
-129.2651931
11
125.2481363
21
-142.9623253
0
LINE
8
0
6
CONTINUOUS
10
111.1818132
20
-116.1202247
11
106.4747266
21
-122.2546193
0
ARC
8
0
6
CONTINUOUS
10
110.4414933
20
-125.2984264
40
5
50
142.5
51
232.5
0
LINE
8
0
6
CONTINUOUS
10
125.2481363
20
-142.9623253
11
125.2492583
21
-142.9631861
0
LINE
8
0
6
CONTINUOUS
10
125.2492583
20
-142.9631861
11
132.0182526
21
-148.1572181
0
LINE
8
0
6
CONTINUOUS
10
178.4923837
20
-142.9623253
11
196.3428338
21
-129.2651931
0
ARC
8
0
6
CONTINUOUS
10
193.2990267
20
-125.2984264
40
5
50
307.5
51
37.5
0
LINE
8
0
6
CONTINUOUS
10
197.2657934
20
-122.2546193
11
192.5587068
21
-116.1202247
0
LINE
8
0
6
CONTINUOUS
10
171.7222674
20
-148.1572181
11
178.4912617
21
-142.9631861
0
ARC
8
0
6
CONTINUOUS
10
128.2919434
20
-138.9955586
40
5
50
232.5
51
232.5162055
0
ARC
8
0
6
CONTINUOUS
10
175.4485766
20
-138.9955586
40
5
50
307.4837945
51
307.5
0
LINE
8
0
6
CONTINUOUS
10
109.6012595
20
-115.465538
11
109.6021835
21
-115.4659207
0
LINE
8
0
6
CONTINUOUS
10
109.6021835
20
-115.4659207
11
111.1818132
21
-116.1202247
0
ARC
8
0
6
CONTINUOUS
10
108.2810983
20
-109.5067484
40
5
50
247.4885409
51
247.5
0
LINE
8
0
6
CONTINUOUS
10
192.5587068
20
-116.1202247
11
194.1383365
21
-115.4659207
0
ARC
8
0
6
CONTINUOUS
10
195.4594217
20
-109.5067484
40
5
50
292.5
51
292.5114591
0
LINE
8
0
6
CONTINUOUS
10
149.87026
20
-37.8738587
11
149.87026
21
-36.0696989
0
LINE
8
0
6
CONTINUOUS
10
149.87026
20
-36.0696989
11
141.87026
21
-36.0696989
0
LINE
8
0
6
CONTINUOUS
10
141.87026
20
-36.0696989
11
141.87026
21
-37.8738587
0
LINE
8
0
6
CONTINUOUS
10
174.02026
20
-37.8738587
11
174.02026
21
-36.9696989
0
LINE
8
0
6
CONTINUOUS
10
174.02026
20
-36.9696989
11
172.72026
21
-36.9696989
0
LINE
8
0
6
CONTINUOUS
10
172.72026
20
-36.9696989
11
172.72026
21
-37.8738587
0
LINE
8
0
6
CONTINUOUS
10
40.5587044
20
-107.4740844
11
56.3156284
21
-110.2524552
0
ARC
8
0
6
CONTINUOUS
10
56.4892766
20
-109.2676474
40
1
50
260
51
350
0
LINE
8
0
6
CONTINUOUS
10
57.4740844
20
-109.4412956
11
60.2524552
21
-93.6843716
0
ARC
8
0
6
CONTINUOUS
10
59.2676474
20
-93.5107234
40
1
50
350
51
80
0
LINE
8
0
6
CONTINUOUS
10
59.4412956
20
-92.5259156
11
43.6843716
21
-89.7475448
0
ARC
8
0
6
CONTINUOUS
10
43.5107234
20
-90.7323526
40
1
50
80
51
170
0
LINE
8
0
6
CONTINUOUS
10
42.5259156
20
-90.5587044
11
39.7475448
21
-106.3156284
0
ARC
8
0
6
CONTINUOUS
10
40.7323526
20
-106.4892766
40
1
50
170
51
260
0
LINE
8
0
6
CONTINUOUS
10
43.8580198
20
-88.7627371
11
59.6149438
21
-91.5411079
0
ARC
8
0
6
CONTINUOUS
10
59.788592
20
-90.5563001
40
1
50
260
51
350
0
LINE
8
0
6
CONTINUOUS
10
60.7733998
20
-90.7299483
11
63.5517706
21
-74.9730243
0
ARC
8
0
6
CONTINUOUS
10
62.5669628
20
-74.7993761
40
1
50
350
51
80
0
LINE
8
0
6
CONTINUOUS
10
62.740611
20
-73.8145683
11
46.983687
21
-71.0361975
0
ARC
8
0
6
CONTINUOUS
10
46.8100388
20
-72.0210053
40
1
50
80
51
170
0
LINE
8
0
6
CONTINUOUS
10
45.825231
20
-71.8473571
11
43.0468602
21
-87.6042811
0
ARC
8
0
6
CONTINUOUS
10
44.031668
20
-87.7779293
40
1
50
170
51
260
0
LINE
8
0
6
CONTINUOUS
10
50.2160874
20
-67.0787652
11
65.6709006
21
-71.2198699
0
ARC
8
0
6
CONTINUOUS
10
65.9297196
20
-70.2539441
40
1
50
255
51
345
0
LINE
8
0
6
CONTINUOUS
10
66.8956455
20
-70.5127631
11
71.0367502
21
-55.0579499
0
ARC
8
0
6
CONTINUOUS
10
70.0708244
20
-54.7991309
40
1
50
345
51
75
0
LINE
8
0
6
CONTINUOUS
10
70.3296434
20
-53.833205
11
54.8748302
21
-49.6921003
0
ARC
8
0
6
CONTINUOUS
10
54.6160112
20
-50.6580261
40
1
50
75
51
165
0
LINE
8
0
6
CONTINUOUS
10
53.6500853
20
-50.3992071
11
49.5089806
21
-65.8540203
0
ARC
8
0
6
CONTINUOUS
10
50.4749064
20
-66.1128393
40
1
50
165
51
255
0
LINE
8
0
6
CONTINUOUS
10
61.7896803
20
-97.6128297
11
77.2444935
21
-101.7539344
0
ARC
8
0
6
CONTINUOUS
10
77.5033125
20
-100.7880086
40
1
50
255
51
345
0
LINE
8
0
6
CONTINUOUS
10
78.4692384
20
-101.0468276
11
82.6103431
21
-85.5920144
0
ARC
8
0
6
CONTINUOUS
10
81.6444173
20
-85.3331954
40
1
50
345
51
75
0
LINE
8
0
6
CONTINUOUS
10
81.9032363
20
-84.3672695
11
66.4484231
21
-80.2261648
0
ARC
8
0
6
CONTINUOUS
10
66.1896041
20
-81.1920906
40
1
50
75
51
165
0
LINE
8
0
6
CONTINUOUS
10
65.2236782
20
-80.9332716
11
61.0825735
21
-96.3880848
0
ARC
8
0
6
CONTINUOUS
10
62.0484993
20
-96.6469038
40
1
50
165
51
255
0
LINE
8
0
6
CONTINUOUS
10
66.7072422
20
-79.260239
11
82.1620554
21
-83.4013437
0
ARC
8
0
6
CONTINUOUS
10
82.4208744
20
-82.4354179
40
1
50
255
51
345
0
LINE
8
0
6
CONTINUOUS
10
83.3868003
20
-82.6942369
11
87.527905
21
-67.2394237
0
ARC
8
0
6
CONTINUOUS
10
86.5619792
20
-66.9806047
40
1
50
345
51
75
0
LINE
8
0
6
CONTINUOUS
10
86.8207982
20
-66.0146788
11
71.365985
21
-61.8735741
0
ARC
8
0
6
CONTINUOUS
10
71.107166
20
-62.8394999
40
1
50
75
51
165
0
LINE
8
0
6
CONTINUOUS
10
70.1412401
20
-62.5806809
11
66.0001354
21
-78.0354941
0
ARC
8
0
6
CONTINUOUS
10
66.9660612
20
-78.2943131
40
1
50
165
51
255
0
LINE
8
0
6
CONTINUOUS
10
71.6248041
20
-60.9076483
11
87.0796173
21
-65.048753
0
ARC
8
0
6
CONTINUOUS
10
87.3384363
20
-64.0828272
40
1
50
255
51
345
0
LINE
8
0
6
CONTINUOUS
10
88.3043622
20
-64.3416462
11
92.4454669
21
-48.886833
0
ARC
8
0
6
CONTINUOUS
10
91.4795411
20
-48.628014
40
1
50
345
51
75
0
LINE
8
0
6
CONTINUOUS
10
91.7383601
20
-47.6620881
11
76.2835469
21
-43.5209834
0
ARC
8
0
6
CONTINUOUS
10
76.0247279
20
-44.4869092
40
1
50
75
51
165
0
LINE
8
0
6
CONTINUOUS
10
75.058802
20
-44.2280902
11
70.9176973
21
-59.6829034
0
ARC
8
0
6
CONTINUOUS
10
71.8836231
20
-59.9417224
40
1
50
165
51
255
0
LINE
8
0
6
CONTINUOUS
10
82.7962112
20
-92.6490909
11
97.8312932
21
-98.1214132
0
ARC
8
0
6
CONTINUOUS
10
98.1733133
20
-97.1817206
40
1
50
250
51
340
0
LINE
8
0
6
CONTINUOUS
10
99.1130059
20
-97.5237408
11
104.5853282
21
-82.4886588
0
ARC
8
0
6
CONTINUOUS
10
103.6456356
20
-82.1466387
40
1
50
340
51
70
0
LINE
8
0
6
CONTINUOUS
10
103.9876558
20
-81.2069461
11
88.9525738
21
-75.7346238
0
ARC
8
0
6
CONTINUOUS
10
88.6105537
20
-76.6743164
40
1
50
70
51
160
0
LINE
8
0
6
CONTINUOUS
10
87.6708611
20
-76.3322962
11
82.1985388
21
-91.3673782
0
ARC
8
0
6
CONTINUOUS
10
83.1382314
20
-91.7093983
40
1
50
160
51
250
0
LINE
8
0
6
CONTINUOUS
10
89.2945939
20
-74.7949311
11
104.3296759
21
-80.2672534
0
ARC
8
0
6
CONTINUOUS
10
104.671696
20
-79.3275608
40
1
50
250
51
340
0
LINE
8
0
6
CONTINUOUS
10
105.6113886
20
-79.669581
11
111.0837109
21
-64.634499
0
ARC
8
0
6
CONTINUOUS
10
110.1440183
20
-64.2924789
40
1
50
340
51
70
0
LINE
8
0
6
CONTINUOUS
10
110.4860385
20
-63.3527863
11
95.4509565
21
-57.880464
0
ARC
8
0
6
CONTINUOUS
10
95.1089364
20
-58.8201566
40
1
50
70
51
160
0
LINE
8
0
6
CONTINUOUS
10
94.1692438
20
-58.4781364
11
88.6969215
21
-73.5132184
0
ARC
8
0
6
CONTINUOUS
10
89.6366141
20
-73.8552385
40
1
50
160
51
250
0
LINE
8
0
6
CONTINUOUS
10
95.7929766
20
-56.9407713
11
110.8280586
21
-62.4130936
0
ARC
8
0
6
CONTINUOUS
10
111.1700787
20
-61.473401
40
1
50
250
51
340
0
LINE
8
0
6
CONTINUOUS
10
112.1097713
20
-61.8154212
11
117.5820936
21
-46.7803392
0
ARC
8
0
6
CONTINUOUS
10
116.642401
20
-46.4383191
40
1
50
340
51
70
0
LINE
8
0
6
CONTINUOUS
10
116.9844212
20
-45.4986265
11
101.9493392
21
-40.0263042
0
ARC
8
0
6
CONTINUOUS
10
101.6073191
20
-40.9659968
40
1
50
70
51
160
0
LINE
8
0
6
CONTINUOUS
10
100.6676265
20
-40.6239766
11
95.1953042
21
-55.6590586
0
ARC
8
0
6
CONTINUOUS
10
96.1349968
20
-56.0010787
40
1
50
160
51
250
0
LINE
8
0
6
CONTINUOUS
10
97.1617148
20
-107.6069294
11
111.9437874
21
-113.7298644
0
ARC
8
0
6
CONTINUOUS
10
112.3264708
20
-112.8059848
40
1
50
247.5
51
337.5
0
LINE
8
0
6
CONTINUOUS
10
113.2503503
20
-113.1886683
11
119.3732853
21
-98.4065957
0
ARC
8
0
6
CONTINUOUS
10
118.4494057
20
-98.0239123
40
1
50
337.5
51
67.5
0
LINE
8
0
6
CONTINUOUS
10
118.8320892
20
-97.1000328
11
104.0500166
21
-90.9770978
0
ARC
8
0
6
CONTINUOUS
10
103.6673332
20
-91.9009774
40
1
50
67.5
51
157.5
0
LINE
8
0
6
CONTINUOUS
10
102.7434537
20
-91.5182939
11
96.6205187
21
-106.3003665
0
ARC
8
0
6
CONTINUOUS
10
97.5443983
20
-106.6830499
40
1
50
157.5
51
247.5
0
LINE
8
0
6
CONTINUOUS
10
104.4327
20
-90.0532183
11
119.2147726
21
-96.1761533
0
ARC
8
0
6
CONTINUOUS
10
119.597456
20
-95.2522737
40
1
50
247.5
51
337.5
0
LINE
8
0
6
CONTINUOUS
10
120.5213355
20
-95.6349572
11
126.6442705
21
-80.8528846
0
ARC
8
0
6
CONTINUOUS
10
125.7203909
20
-80.4702012
40
1
50
337.5
51
67.5
0
LINE
8
0
6
CONTINUOUS
10
126.1030744
20
-79.5463217
11
111.3210018
21
-73.4233867
0
ARC
8
0
6
CONTINUOUS
10
110.9383184
20
-74.3472663
40
1
50
67.5
51
157.5
0
LINE
8
0
6
CONTINUOUS
10
110.0144389
20
-73.9645828
11
103.8915039
21
-88.7466554
0
ARC
8
0
6
CONTINUOUS
10
104.8153835
20
-89.1293388
40
1
50
157.5
51
247.5
0
LINE
8
0
6
CONTINUOUS
10
111.7036852
20
-72.4995072
11
126.4857578
21
-78.6224422
0
ARC
8
0
6
CONTINUOUS
10
126.8684412
20
-77.6985626
40
1
50
247.5
51
337.5
0
LINE
8
0
6
CONTINUOUS
10
127.7923207
20
-78.0812461
11
133.9152557
21
-63.2991735
0
ARC
8
0
6
CONTINUOUS
10
132.9913761
20
-62.9164901
40
1
50
337.5
51
67.5
0
LINE
8
0
6
CONTINUOUS
10
133.3740596
20
-61.9926106
11
118.591987
21
-55.8696756
0
ARC
8
0
6
CONTINUOUS
10
118.2093036
20
-56.7935552
40
1
50
67.5
51
157.5
0
LINE
8
0
6
CONTINUOUS
10
117.2854241
20
-56.4108717
11
111.1624891
21
-71.1929443
0
ARC
8
0
6
CONTINUOUS
10
112.0863687
20
-71.5756277
40
1
50
157.5
51
247.5
0
LINE
8
0
6
CONTINUOUS
10
117.1390876
20
-109.0266776
11
131.9211602
21
-115.1496126
0
ARC
8
0
6
CONTINUOUS
10
132.3038436
20
-114.225733
40
1
50
247.5
51
337.5
0
LINE
8
0
6
CONTINUOUS
10
133.2277231
20
-114.6084165
11
139.3506581
21
-99.8263439
0
ARC
8
0
6
CONTINUOUS
10
138.4267785
20
-99.4436605
40
1
50
337.5
51
67.5
0
LINE
8
0
6
CONTINUOUS
10
138.809462
20
-98.519781
11
124.0273894
21
-92.396846
0
ARC
8
0
6
CONTINUOUS
10
123.644706
20
-93.3207256
40
1
50
67.5
51
157.5
0
LINE
8
0
6
CONTINUOUS
10
122.7208265
20
-92.9380421
11
116.5978915
21
-107.7201147
0
ARC
8
0
6
CONTINUOUS
10
117.5217711
20
-108.1027981
40
1
50
157.5
51
247.5
0
LINE
8
0
6
CONTINUOUS
10
124.4100728
20
-91.4729665
11
139.1921454
21
-97.5959015
0
ARC
8
0
6
CONTINUOUS
10
139.5748288
20
-96.6720219
40
1
50
247.5
51
337.5
0
LINE
8
0
6
CONTINUOUS
10
140.4987083
20
-97.0547054
11
146.6216433
21
-82.2726328
0
ARC
8
0
6
CONTINUOUS
10
145.6977637
20
-81.8899494
40
1
50
337.5
51
67.5
0
LINE
8
0
6
CONTINUOUS
10
146.0804472
20
-80.9660699
11
131.2983746
21
-74.8431349
0
ARC
8
0
6
CONTINUOUS
10
130.9156912
20
-75.7670145
40
1
50
67.5
51
157.5
0
LINE
8
0
6
CONTINUOUS
10
129.9918117
20
-75.384331
11
123.8688767
21
-90.1664036
0
ARC
8
0
6
CONTINUOUS
10
124.7927563
20
-90.549087
40
1
50
157.5
51
247.5
0
LINE
8
0
6
CONTINUOUS
10
247.4248916
20
-110.2524552
11
263.1818156
21
-107.4740844
0
ARC
8
0
6
CONTINUOUS
10
263.0081674
20
-106.4892766
40
1
50
280
51
10
0
LINE
8
0
6
CONTINUOUS
10
263.9929752
20
-106.3156284
11
261.2146044
21
-90.5587044
0
ARC
8
0
6
CONTINUOUS
10
260.2297966
20
-90.7323526
40
1
50
10
51
100
0
LINE
8
0
6
CONTINUOUS
10
260.0561484
20
-89.7475448
11
244.2992244
21
-92.5259156
0
ARC
8
0
6
CONTINUOUS
10
244.4728726
20
-93.5107234
40
1
50
100
51
190
0
LINE
8
0
6
CONTINUOUS
10
243.4880648
20
-93.6843716
11
246.2664356
21
-109.4412956
0
ARC
8
0
6
CONTINUOUS
10
247.2512434
20
-109.2676474
40
1
50
190
51
280
0
LINE
8
0
6
CONTINUOUS
10
244.1255762
20
-91.5411079
11
259.8825002
21
-88.7627371
0
ARC
8
0
6
CONTINUOUS
10
259.708852
20
-87.7779293
40
1
50
280
51
10
0
LINE
8
0
6
CONTINUOUS
10
260.6936598
20
-87.6042811
11
257.915289
21
-71.8473571
0
ARC
8
0
6
CONTINUOUS
10
256.9304812
20
-72.0210053
40
1
50
10
51
100
0
LINE
8
0
6
CONTINUOUS
10
256.756833
20
-71.0361975
11
240.999909
21
-73.8145683
0
ARC
8
0
6
CONTINUOUS
10
241.1735572
20
-74.7993761
40
1
50
100
51
190
0
LINE
8
0
6
CONTINUOUS
10
240.1887494
20
-74.9730243
11
242.9671202
21
-90.7299483
0
ARC
8
0
6
CONTINUOUS
10
243.951928
20
-90.5563001
40
1
50
190
51
280
0
LINE
8
0
6
CONTINUOUS
10
238.0696194
20
-71.2198699
11
253.5244326
21
-67.0787652
0
ARC
8
0
6
CONTINUOUS
10
253.2656136
20
-66.1128393
40
1
50
285
51
15
0
LINE
8
0
6
CONTINUOUS
10
254.2315394
20
-65.8540203
11
250.0904347
21
-50.3992071
0
ARC
8
0
6
CONTINUOUS
10
249.1245088
20
-50.6580261
40
1
50
15
51
105
0
LINE
8
0
6
CONTINUOUS
10
248.8656898
20
-49.6921003
11
233.4108766
21
-53.833205
0
ARC
8
0
6
CONTINUOUS
10
233.6696956
20
-54.7991309
40
1
50
105
51
195
0
LINE
8
0
6
CONTINUOUS
10
232.7037698
20
-55.0579499
11
236.8448745
21
-70.5127631
0
ARC
8
0
6
CONTINUOUS
10
237.8108004
20
-70.2539441
40
1
50
195
51
285
0
LINE
8
0
6
CONTINUOUS
10
226.4960265
20
-101.7539344
11
241.9508397
21
-97.6128297
0
ARC
8
0
6
CONTINUOUS
10
241.6920207
20
-96.6469038
40
1
50
285
51
15
0
LINE
8
0
6
CONTINUOUS
10
242.6579465
20
-96.3880848
11
238.5168418
21
-80.9332716
0
ARC
8
0
6
CONTINUOUS
10
237.5509159
20
-81.1920906
40
1
50
15
51
105
0
LINE
8
0
6
CONTINUOUS
10
237.2920969
20
-80.2261648
11
221.8372837
21
-84.3672695
0
ARC
8
0
6
CONTINUOUS
10
222.0961027
20
-85.3331954
40
1
50
105
51
195
0
LINE
8
0
6
CONTINUOUS
10
221.1301769
20
-85.5920144
11
225.2712816
21
-101.0468276
0
ARC
8
0
6
CONTINUOUS
10
226.2372075
20
-100.7880086
40
1
50
195
51
285
0
LINE
8
0
6
CONTINUOUS
10
221.5784646
20
-83.4013437
11
237.0332778
21
-79.260239
0
ARC
8
0
6
CONTINUOUS
10
236.7744588
20
-78.2943131
40
1
50
285
51
15
0
LINE
8
0
6
CONTINUOUS
10
237.7403846
20
-78.0354941
11
233.5992799
21
-62.5806809
0
ARC
8
0
6
CONTINUOUS
10
232.633354
20
-62.8394999
40
1
50
15
51
105
0
LINE
8
0
6
CONTINUOUS
10
232.374535
20
-61.8735741
11
216.9197218
21
-66.0146788
0
ARC
8
0
6
CONTINUOUS
10
217.1785408
20
-66.9806047
40
1
50
105
51
195
0
LINE
8
0
6
CONTINUOUS
10
216.212615
20
-67.2394237
11
220.3537197
21
-82.6942369
0
ARC
8
0
6
CONTINUOUS
10
221.3196456
20
-82.4354179
40
1
50
195
51
285
0
LINE
8
0
6
CONTINUOUS
10
216.6609027
20
-65.048753
11
232.1157159
21
-60.9076483
0
ARC
8
0
6
CONTINUOUS
10
231.8568969
20
-59.9417224
40
1
50
285
51
15
0
LINE
8
0
6
CONTINUOUS
10
232.8228227
20
-59.6829034
11
228.681718
21
-44.2280902
0
ARC
8
0
6
CONTINUOUS
10
227.7157921
20
-44.4869092
40
1
50
15
51
105
0
LINE
8
0
6
CONTINUOUS
10
227.4569731
20
-43.5209834
11
212.0021599
21
-47.6620881
0
ARC
8
0
6
CONTINUOUS
10
212.2609789
20
-48.628014
40
1
50
105
51
195
0
LINE
8
0
6
CONTINUOUS
10
211.2950531
20
-48.886833
11
215.4361578
21
-64.3416462
0
ARC
8
0
6
CONTINUOUS
10
216.4020837
20
-64.0828272
40
1
50
195
51
285
0
LINE
8
0
6
CONTINUOUS
10
205.9092268
20
-98.1214132
11
220.9443088
21
-92.6490909
0
ARC
8
0
6
CONTINUOUS
10
220.6022886
20
-91.7093983
40
1
50
290
51
20
0
LINE
8
0
6
CONTINUOUS
10
221.5419812
20
-91.3673782
11
216.0696589
21
-76.3322962
0
ARC
8
0
6
CONTINUOUS
10
215.1299663
20
-76.6743164
40
1
50
20
51
110
0
LINE
8
0
6
CONTINUOUS
10
214.7879462
20
-75.7346238
11
199.7528642
21
-81.2069461
0
ARC
8
0
6
CONTINUOUS
10
200.0948844
20
-82.1466387
40
1
50
110
51
200
0
LINE
8
0
6
CONTINUOUS
10
199.1551918
20
-82.4886588
11
204.6275141
21
-97.5237408
0
ARC
8
0
6
CONTINUOUS
10
205.5672067
20
-97.1817206
40
1
50
200
51
290
0
LINE
8
0
6
CONTINUOUS
10
199.4108441
20
-80.2672534
11
214.4459261
21
-74.7949311
0
ARC
8
0
6
CONTINUOUS
10
214.1039059
20
-73.8552385
40
1
50
290
51
20
0
LINE
8
0
6
CONTINUOUS
10
215.0435985
20
-73.5132184
11
209.5712762
21
-58.4781364
0
ARC
8
0
6
CONTINUOUS
10
208.6315836
20
-58.8201566
40
1
50
20
51
110
0
LINE
8
0
6
CONTINUOUS
10
208.2895635
20
-57.880464
11
193.2544815
21
-63.3527863
0
ARC
8
0
6
CONTINUOUS
10
193.5965017
20
-64.2924789
40
1
50
110
51
200
0
LINE
8
0
6
CONTINUOUS
10
192.6568091
20
-64.634499
11
198.1291314
21
-79.669581
0
ARC
8
0
6
CONTINUOUS
10
199.068824
20
-79.3275608
40
1
50
200
51
290
0
LINE
8
0
6
CONTINUOUS
10
192.9124614
20
-62.4130936
11
207.9475434
21
-56.9407713
0
ARC
8
0
6
CONTINUOUS
10
207.6055232
20
-56.0010787
40
1
50
290
51
20
0
LINE
8
0
6
CONTINUOUS
10
208.5452158
20
-55.6590586
11
203.0728935
21
-40.6239766
0
ARC
8
0
6
CONTINUOUS
10
202.1332009
20
-40.9659968
40
1
50
20
51
110
0
LINE
8
0
6
CONTINUOUS
10
201.7911808
20
-40.0263042
11
186.7560988
21
-45.4986265
0
ARC
8
0
6
CONTINUOUS
10
187.098119
20
-46.4383191
40
1
50
110
51
200
0
LINE
8
0
6
CONTINUOUS
10
186.1584264
20
-46.7803392
11
191.6307487
21
-61.8154212
0
ARC
8
0
6
CONTINUOUS
10
192.5704413
20
-61.473401
40
1
50
200
51
290
0
LINE
8
0
6
CONTINUOUS
10
191.7967326
20
-113.7298644
11
206.5788052
21
-107.6069294
0
ARC
8
0
6
CONTINUOUS
10
206.1961217
20
-106.6830499
40
1
50
292.5
51
22.5
0
LINE
8
0
6
CONTINUOUS
10
207.1200013
20
-106.3003665
11
200.9970663
21
-91.5182939
0
ARC
8
0
6
CONTINUOUS
10
200.0731868
20
-91.9009774
40
1
50
22.5
51
112.5
0
LINE
8
0
6
CONTINUOUS
10
199.6905034
20
-90.9770978
11
184.9084308
21
-97.1000328
0
ARC
8
0
6
CONTINUOUS
10
185.2911143
20
-98.0239123
40
1
50
112.5
51
202.5
0
LINE
8
0
6
CONTINUOUS
10
184.3672347
20
-98.4065957
11
190.4901697
21
-113.1886683
0
ARC
8
0
6
CONTINUOUS
10
191.4140492
20
-112.8059848
40
1
50
202.5
51
292.5
0
LINE
8
0
6
CONTINUOUS
10
184.5257474
20
-96.1761533
11
199.30782
21
-90.0532183
0
ARC
8
0
6
CONTINUOUS
10
198.9251365
20
-89.1293388
40
1
50
292.5
51
22.5
0
LINE
8
0
6
CONTINUOUS
10
199.8490161
20
-88.7466554
11
193.7260811
21
-73.9645828
0
ARC
8
0
6
CONTINUOUS
10
192.8022016
20
-74.3472663
40
1
50
22.5
51
112.5
0
LINE
8
0
6
CONTINUOUS
10
192.4195182
20
-73.4233867
11
177.6374456
21
-79.5463217
0
ARC
8
0
6
CONTINUOUS
10
178.0201291
20
-80.4702012
40
1
50
112.5
51
202.5
0
LINE
8
0
6
CONTINUOUS
10
177.0962495
20
-80.8528846
11
183.2191845
21
-95.6349572
0
ARC
8
0
6
CONTINUOUS
10
184.143064
20
-95.2522737
40
1
50
202.5
51
292.5
0
LINE
8
0
6
CONTINUOUS
10
177.2547622
20
-78.6224422
11
192.0368348
21
-72.4995072
0
ARC
8
0
6
CONTINUOUS
10
191.6541513
20
-71.5756277
40
1
50
292.5
51
22.5
0
LINE
8
0
6
CONTINUOUS
10
192.5780309
20
-71.1929443
11
186.4550959
21
-56.4108717
0
ARC
8
0
6
CONTINUOUS
10
185.5312164
20
-56.7935552
40
1
50
22.5
51
112.5
0
LINE
8
0
6
CONTINUOUS
10
185.148533
20
-55.8696756
11
170.3664604
21
-61.9926106
0
ARC
8
0
6
CONTINUOUS
10
170.7491439
20
-62.9164901
40
1
50
112.5
51
202.5
0
LINE
8
0
6
CONTINUOUS
10
169.8252643
20
-63.2991735
11
175.9481993
21
-78.0812461
0
ARC
8
0
6
CONTINUOUS
10
176.8720788
20
-77.6985626
40
1
50
202.5
51
292.5
0
LINE
8
0
6
CONTINUOUS
10
171.8193598
20
-115.1496126
11
186.6014324
21
-109.0266776
0
ARC
8
0
6
CONTINUOUS
10
186.2187489
20
-108.1027981
40
1
50
292.5
51
22.5
0
LINE
8
0
6
CONTINUOUS
10
187.1426285
20
-107.7201147
11
181.0196935
21
-92.9380421
0
ARC
8
0
6
CONTINUOUS
10
180.095814
20
-93.3207256
40
1
50
22.5
51
112.5
0
LINE
8
0
6
CONTINUOUS
10
179.7131306
20
-92.396846
11
164.931058
21
-98.519781
0
ARC
8
0
6
CONTINUOUS
10
165.3137415
20
-99.4436605
40
1
50
112.5
51
202.5
0
LINE
8
0
6
CONTINUOUS
10
164.3898619
20
-99.8263439
11
170.5127969
21
-114.6084165
0
ARC
8
0
6
CONTINUOUS
10
171.4366764
20
-114.225733
40
1
50
202.5
51
292.5
0
LINE
8
0
6
CONTINUOUS
10
164.5483746
20
-97.5959015
11
179.3304472
21
-91.4729665
0
ARC
8
0
6
CONTINUOUS
10
178.9477637
20
-90.549087
40
1
50
292.5
51
22.5
0
LINE
8
0
6
CONTINUOUS
10
179.8716433
20
-90.1664036
11
173.7487083
21
-75.384331
0
ARC
8
0
6
CONTINUOUS
10
172.8248288
20
-75.7670145
40
1
50
22.5
51
112.5
0
LINE
8
0
6
CONTINUOUS
10
172.4421454
20
-74.8431349
11
157.6600728
21
-80.9660699
0
ARC
8
0
6
CONTINUOUS
10
158.0427563
20
-81.8899494
40
1
50
112.5
51
202.5
0
LINE
8
0
6
CONTINUOUS
10
157.1188767
20
-82.2726328
11
163.2418117
21
-97.0547054
0
ARC
8
0
6
CONTINUOUS
10
164.1656912
20
-96.6720219
40
1
50
202.5
51
292.5
0
LINE
8
0
6
CONTINUOUS
10
107.7295597
20
-126.3686676
11
120.4232132
21
-136.1088505
0
ARC
8
0
6
CONTINUOUS
10
121.0319746
20
-135.3154972
40
1
50
232.5
51
322.5
0
LINE
8
0
6
CONTINUOUS
10
121.8253279
20
-135.9242586
11
131.5655108
21
-123.2306051
0
ARC
8
0
6
CONTINUOUS
10
130.7721575
20
-122.6218437
40
1
50
322.5
51
52.5
0
LINE
8
0
6
CONTINUOUS
10
131.3809189
20
-121.8284904
11
118.6872654
21
-112.0883075
0
ARC
8
0
6
CONTINUOUS
10
118.078504
20
-112.8816608
40
1
50
52.5
51
142.5
0
LINE
8
0
6
CONTINUOUS
10
117.2851507
20
-112.2728994
11
107.5449678
21
-124.9665529
0
ARC
8
0
6
CONTINUOUS
10
108.3383211
20
-125.5753143
40
1
50
142.5
51
232.5
0
LINE
8
0
6
CONTINUOUS
10
122.8032732
20
-137.9351347
11
135.4969267
21
-147.6753176
0
ARC
8
0
6
CONTINUOUS
10
136.1056881
20
-146.8819643
40
1
50
232.5
51
322.5
0
LINE
8
0
6
CONTINUOUS
10
136.8990414
20
-147.4907257
11
146.6392243
21
-134.7970722
0
ARC
8
0
6
CONTINUOUS
10
145.845871
20
-134.1883108
40
1
50
322.5
51
52.5
0
LINE
8
0
6
CONTINUOUS
10
146.4546324
20
-133.3949575
11
133.7609789
21
-123.6547746
0
ARC
8
0
6
CONTINUOUS
10
133.1522175
20
-124.4481279
40
1
50
52.5
51
142.5
0
LINE
8
0
6
CONTINUOUS
10
132.3588642
20
-123.8393665
11
122.6186813
21
-136.53302
0
ARC
8
0
6
CONTINUOUS
10
123.4120346
20
-137.1417814
40
1
50
142.5
51
232.5
0
LINE
8
0
6
CONTINUOUS
10
183.3173068
20
-136.1088505
11
196.0109603
21
-126.3686676
0
ARC
8
0
6
CONTINUOUS
10
195.4021989
20
-125.5753143
40
1
50
307.5
51
37.5
0
LINE
8
0
6
CONTINUOUS
10
196.1955522
20
-124.9665529
11
186.4553693
21
-112.2728994
0
ARC
8
0
6
CONTINUOUS
10
185.662016
20
-112.8816608
40
1
50
37.5
51
127.5
0
LINE
8
0
6
CONTINUOUS
10
185.0532546
20
-112.0883075
11
172.3596011
21
-121.8284904
0
ARC
8
0
6
CONTINUOUS
10
172.9683625
20
-122.6218437
40
1
50
127.5
51
217.5
0
LINE
8
0
6
CONTINUOUS
10
172.1750092
20
-123.2306051
11
181.9151921
21
-135.9242586
0
ARC
8
0
6
CONTINUOUS
10
182.7085454
20
-135.3154972
40
1
50
217.5
51
307.5
0
LINE
8
0
6
CONTINUOUS
10
168.2435933
20
-147.6753176
11
180.9372468
21
-137.9351347
0
ARC
8
0
6
CONTINUOUS
10
180.3284854
20
-137.1417814
40
1
50
307.5
51
37.5
0
LINE
8
0
6
CONTINUOUS
10
181.1218387
20
-136.53302
11
171.3816558
21
-123.8393665
0
ARC
8
0
6
CONTINUOUS
10
170.5883025
20
-124.4481279
40
1
50
37.5
51
127.5
0
LINE
8
0
6
CONTINUOUS
10
169.9795411
20
-123.6547746
11
157.2858876
21
-133.3949575
0
ARC
8
0
6
CONTINUOUS
10
157.894649
20
-134.1883108
40
1
50
127.5
51
217.5
0
LINE
8
0
6
CONTINUOUS
10
157.1012957
20
-134.7970722
11
166.8414786
21
-147.4907257
0
ARC
8
0
6
CONTINUOUS
10
167.6348319
20
-146.8819643
40
1
50
217.5
51
307.5
0
CIRCLE
8
0
6
CONTINUOUS
10
151.87026
20
-41.0696989
40
1.05
0
ENDSEC
0
EOF